{"glyphs":{"0":{"ha":833,"x_min":68,"x_max":765,"o":"m 137 281 l 99 390 l 697 714 l 735 605 l 137 281 m 417 -22 q 160 108 251 -22 q 68 472 68 239 l 68 524 q 160 887 68 757 q 417 1017 251 1017 q 674 887 583 1017 q 765 524 765 757 l 765 472 q 674 108 765 238 q 417 -22 583 -22 m 417 96 q 584 191 527 96 q 642 471 642 287 l 642 525 q 584 808 642 718 q 417 899 527 899 q 249 804 306 899 q 192 525 192 709 l 192 471 q 249 187 192 278 q 417 96 306 96 z "},"1":{"ha":833,"x_min":103,"x_max":768,"o":"m 403 56 l 403 831 l 163 703 l 103 813 l 445 994 l 535 994 l 535 56 l 403 56 m 143 0 l 143 125 l 768 125 l 768 0 l 143 0 z "},"2":{"ha":833,"x_min":104,"x_max":719,"o":"m 104 0 l 104 119 l 449 508 q 543 635 517 585 q 569 742 569 686 l 569 749 q 531 852 569 815 q 423 890 492 890 q 222 747 293 890 l 104 803 q 238 963 156 909 q 426 1017 320 1017 q 572 983 509 1017 q 669 890 634 950 q 704 752 704 831 l 704 744 q 689 649 704 694 q 638 551 674 603 q 541 431 603 499 l 269 128 l 269 122 l 719 122 l 719 0 l 104 0 z "},"3":{"ha":833,"x_min":78,"x_max":742,"o":"m 432 -22 q 204 47 297 -22 q 78 235 110 115 l 198 272 q 280 145 220 190 q 426 101 340 101 q 561 145 510 101 q 612 264 612 190 l 612 282 q 558 406 612 362 q 405 451 504 451 l 305 451 l 305 573 l 391 573 q 532 616 481 573 q 583 733 583 658 l 583 747 q 540 854 583 814 q 422 894 497 894 q 297 857 349 894 q 220 751 244 820 l 101 790 q 224 957 138 897 q 426 1016 310 1016 q 576 983 512 1016 q 677 891 641 950 q 713 753 713 832 l 713 747 q 671 604 713 662 q 546 520 628 546 l 546 516 q 690 430 638 497 q 742 272 742 364 l 742 258 q 702 114 742 177 q 592 15 662 51 q 432 -22 522 -22 z "},"4":{"ha":833,"x_min":53,"x_max":774,"o":"m 496 0 l 496 296 l 500 324 l 500 873 l 554 810 l 497 810 l 196 367 l 196 364 l 550 364 l 582 367 l 774 367 l 774 249 l 53 249 l 53 354 l 488 994 l 624 994 l 624 0 l 496 0 z "},"5":{"ha":833,"x_min":78,"x_max":750,"o":"m 417 -22 q 265 9 333 -22 q 149 98 197 40 q 78 238 101 156 l 197 274 q 277 145 221 190 q 416 101 333 101 q 565 156 510 101 q 620 303 620 211 l 620 324 q 569 462 620 411 q 433 513 519 513 q 329 491 376 513 q 243 423 282 468 l 108 465 l 178 994 l 696 994 l 696 872 l 281 872 l 234 545 l 238 544 q 338 611 281 588 q 461 634 395 634 q 612 594 547 634 q 714 484 677 555 q 750 321 750 414 l 750 307 q 709 134 750 208 q 593 19 667 60 q 417 -22 518 -22 z "},"6":{"ha":833,"x_min":85,"x_max":748,"o":"m 416 -21 q 245 22 319 -21 q 128 141 170 65 q 85 314 85 216 l 85 328 q 101 442 85 385 q 150 559 116 498 q 237 692 183 620 l 487 1025 l 594 947 l 402 710 q 346 646 372 674 q 290 592 319 618 l 293 587 q 459 640 366 640 q 608 599 543 640 q 710 485 673 557 q 748 322 748 413 l 748 308 q 705 138 748 213 q 588 22 663 64 q 416 -21 513 -21 m 416 103 q 562 159 507 103 q 617 305 617 215 l 617 326 q 563 473 617 417 q 417 529 508 529 q 272 473 327 529 q 216 326 216 417 l 216 305 q 271 159 216 215 q 416 103 326 103 z "},"7":{"ha":833,"x_min":94,"x_max":739,"o":"m 296 -22 l 176 33 l 587 866 l 587 869 l 94 869 l 94 994 l 739 994 l 739 884 l 296 -22 z "},"8":{"ha":833,"x_min":94,"x_max":740,"o":"m 417 -22 q 371 -22 417 -22 q 251 15 324 -22 q 136 117 178 52 q 94 263 94 181 l 94 273 q 141 427 94 358 q 266 528 188 497 l 266 531 q 165 621 201 563 q 128 749 128 679 l 128 756 q 165 891 128 832 q 267 983 202 949 q 417 1017 333 1017 q 566 983 501 1017 q 668 891 631 949 q 706 756 706 832 l 706 749 q 669 621 706 678 q 567 531 632 563 l 567 528 q 693 427 646 497 q 740 273 740 358 l 740 263 q 698 117 740 181 q 583 15 656 52 q 417 -22 510 -22 m 417 97 q 556 147 502 97 q 610 274 610 197 l 610 290 q 556 417 610 368 q 417 467 502 467 q 277 417 331 467 q 223 290 223 368 l 223 274 q 277 147 223 197 q 417 97 331 97 m 417 585 q 453 585 417 585 q 533 626 489 585 q 578 735 578 667 l 578 749 q 534 856 578 815 q 417 897 490 897 q 300 856 344 897 q 256 749 256 815 l 256 735 q 300 627 256 668 q 417 585 344 585 z "},"9":{"ha":833,"x_min":85,"x_max":748,"o":"m 417 1015 q 589 973 515 1015 q 706 854 663 930 q 748 681 748 778 l 748 667 q 733 553 748 609 q 684 435 717 497 q 597 303 651 374 l 347 -31 l 240 47 l 431 284 q 488 349 461 321 q 544 403 514 376 l 540 408 q 374 354 467 354 q 226 396 291 354 q 123 509 160 438 q 85 672 85 581 l 85 686 q 128 856 85 782 q 246 973 171 931 q 417 1015 321 1015 m 417 892 q 271 836 326 892 q 216 690 216 780 l 216 669 q 271 522 216 578 q 416 465 326 465 q 562 522 507 465 q 617 669 617 578 l 617 690 q 563 836 617 780 q 417 892 508 892 z "},"\u0000":{"ha":833,"x_min":0,"x_max":0,"o":""},"\r":{"ha":833,"x_min":0,"x_max":0,"o":""}," ":{"ha":833,"x_min":0,"x_max":0,"o":""}," ":{"ha":833,"x_min":0,"x_max":0,"o":""},"◌":{"ha":833,"x_min":68,"x_max":765,"o":"m 715 304 q 705 304 715 304 q 680 319 694 304 q 665 354 665 333 q 680 390 665 375 q 715 404 694 404 q 751 390 736 404 q 765 354 765 375 q 751 319 765 333 q 715 304 736 304 m 158 155 q 123 169 138 155 q 108 205 108 184 q 123 240 108 226 q 158 255 138 255 q 193 240 178 255 q 208 205 208 226 q 193 169 208 184 q 158 155 178 155 m 267 46 q 257 46 267 46 q 232 60 247 46 q 217 96 217 75 q 232 131 217 116 q 267 145 247 145 q 303 131 288 145 q 317 96 317 116 q 303 60 317 75 q 267 46 288 46 m 118 304 q 108 304 118 304 q 83 319 97 304 q 68 354 68 333 q 83 390 68 375 q 118 404 97 404 q 153 390 139 404 q 168 354 168 375 q 153 319 168 333 q 118 304 139 304 m 417 6 q 406 6 417 6 q 381 20 396 6 q 367 56 367 35 q 381 91 367 76 q 417 106 396 106 q 452 91 438 106 q 467 56 467 76 q 452 20 467 35 q 417 6 438 6 m 158 453 q 123 468 138 453 q 108 503 108 483 q 123 539 108 524 q 158 553 138 553 q 193 539 178 553 q 208 503 208 524 q 193 468 208 483 q 158 453 178 453 m 566 46 q 556 46 566 46 q 531 60 545 46 q 516 96 516 75 q 531 131 516 116 q 566 145 545 145 q 601 131 587 145 q 616 96 616 116 q 601 60 616 75 q 566 46 587 46 m 267 563 q 257 563 267 563 q 232 578 247 563 q 217 613 217 592 q 232 648 217 633 q 267 663 247 663 q 303 648 288 663 q 317 613 317 633 q 303 578 317 592 q 267 563 288 563 m 675 155 q 640 169 655 155 q 626 205 626 184 q 640 240 626 226 q 675 255 655 255 q 710 240 696 255 q 725 205 725 226 q 710 169 725 184 q 675 155 696 155 m 417 603 q 406 603 417 603 q 381 617 396 603 q 367 653 367 632 q 381 688 367 674 q 417 703 396 703 q 452 688 438 703 q 467 653 467 674 q 452 617 467 632 q 417 603 438 603 m 675 453 q 640 468 655 453 q 626 503 626 483 q 640 539 626 524 q 675 553 655 553 q 710 539 696 553 q 725 503 725 524 q 710 468 725 483 q 675 453 696 453 m 566 563 q 556 563 566 563 q 531 578 545 563 q 516 613 516 592 q 531 648 516 633 q 566 663 545 663 q 601 648 587 663 q 616 613 616 633 q 601 578 616 592 q 566 563 587 563 z "},"!":{"ha":833,"x_min":303,"x_max":531,"o":"m 349 382 l 330 1036 l 503 1036 l 484 382 l 349 382 m 417 -20 q 393 -20 417 -20 q 336 13 369 -20 q 303 94 303 47 q 336 174 303 141 q 417 208 369 208 q 498 174 465 208 q 531 94 531 141 q 498 13 531 47 q 417 -20 465 -20 z "},"#":{"ha":833,"x_min":30,"x_max":803,"o":"m 433 -12 l 578 1006 l 685 1006 l 540 -12 l 433 -12 m 149 -12 l 294 1006 l 400 1006 l 255 -12 l 149 -12 m 30 254 l 30 358 l 751 358 l 751 254 l 30 254 m 81 636 l 81 740 l 803 740 l 803 636 l 81 636 z "},"$":{"ha":833,"x_min":89,"x_max":739,"o":"m 428 0 q 208 67 296 0 q 89 254 119 133 l 206 292 q 285 153 229 199 q 431 107 341 107 q 564 148 517 107 q 612 262 612 189 l 612 269 q 580 372 612 333 q 471 442 549 412 l 331 496 q 176 597 228 535 q 124 742 124 658 l 124 753 q 161 881 124 826 q 265 965 199 935 q 422 994 332 994 q 614 945 538 994 q 724 799 690 896 l 611 752 q 538 855 583 822 q 422 888 493 888 q 294 853 339 888 q 249 755 249 818 l 249 749 q 278 663 249 696 q 379 603 308 631 l 519 549 q 687 438 635 504 q 739 274 739 371 l 739 263 q 701 123 739 182 q 593 32 663 64 q 428 0 523 0 m 376 -164 l 376 43 l 381 69 l 381 511 l 471 511 l 471 69 l 475 43 l 475 -164 l 376 -164 m 381 527 l 381 930 l 376 959 l 376 1158 l 475 1158 l 475 959 l 471 930 l 471 527 l 381 527 z "},"%":{"ha":833,"x_min":19,"x_max":814,"o":"m 92 176 l 19 266 l 742 818 l 814 728 l 92 176 m 603 -22 q 498 6 544 -22 q 423 83 451 35 q 396 192 396 132 l 396 198 q 423 308 396 259 q 498 385 451 356 q 603 413 544 413 q 708 385 661 413 q 782 308 755 356 q 810 198 810 259 l 810 192 q 782 83 810 132 q 708 6 755 35 q 603 -22 661 -22 m 603 81 q 675 112 647 81 q 703 194 703 144 l 703 197 q 675 278 703 247 q 603 310 647 310 q 531 278 559 310 q 503 197 503 247 l 503 194 q 531 112 503 144 q 603 81 558 81 m 231 581 q 125 610 172 581 q 51 687 78 638 q 24 796 24 735 l 24 801 q 51 911 24 863 q 125 988 78 960 q 231 1017 172 1017 q 336 988 289 1017 q 410 911 383 960 q 438 801 438 863 l 438 796 q 410 687 438 735 q 336 610 383 638 q 231 581 289 581 m 231 684 q 303 716 275 684 q 331 797 331 747 l 331 800 q 303 882 331 850 q 231 914 275 914 q 158 882 186 914 q 131 800 131 850 l 131 797 q 158 716 131 747 q 231 684 186 684 z "},"&":{"ha":833,"x_min":35,"x_max":821,"o":"m 732 -35 l 267 465 q 167 585 203 533 q 115 680 131 636 q 100 770 100 724 l 100 772 q 134 899 100 844 q 230 985 169 954 q 369 1017 290 1017 q 536 971 468 1017 q 656 824 605 925 l 544 764 q 467 864 508 834 q 367 894 426 894 q 267 861 304 894 q 231 770 231 828 l 231 763 q 257 672 231 719 q 351 553 283 625 l 821 51 l 732 -35 m 331 -22 q 176 14 243 -22 q 72 114 109 50 q 35 264 35 178 l 35 276 q 90 463 35 386 q 257 585 146 540 l 335 500 q 207 420 249 474 q 164 285 164 367 l 164 266 q 210 142 164 186 q 339 97 256 97 q 470 144 415 97 q 565 296 525 192 q 638 574 606 401 l 764 551 q 665 236 726 364 q 519 43 603 108 q 331 -22 435 -22 z "},"'":{"ha":833,"x_min":339,"x_max":494,"o":"m 339 628 l 339 1014 l 494 1014 l 494 628 l 339 628 z "},"(":{"ha":833,"x_min":251,"x_max":706,"o":"m 629 1137 l 706 1036 q 461 779 540 917 q 382 460 382 641 q 461 142 382 280 q 706 -115 540 5 l 629 -216 q 421 -22 506 -125 q 294 200 337 81 q 251 460 251 319 q 294 721 251 601 q 421 943 337 840 q 629 1137 506 1047 z "},")":{"ha":833,"x_min":128,"x_max":582,"o":"m 204 -214 l 128 -113 q 372 144 293 7 q 451 463 451 282 q 372 781 451 643 q 128 1038 293 919 l 204 1139 q 413 945 328 1049 q 539 723 497 842 q 582 463 582 603 q 539 202 582 322 q 413 -20 497 83 q 204 -214 328 -123 z "},"*":{"ha":833,"x_min":55,"x_max":778,"o":"m 109 298 l 55 392 l 395 575 l 724 777 l 778 683 l 438 497 l 109 298 m 724 298 l 395 497 l 55 683 l 109 777 l 438 575 l 778 392 l 724 298 m 363 150 l 363 925 l 471 925 l 471 150 l 363 150 z "},"+":{"ha":833,"x_min":97,"x_max":736,"o":"m 354 114 l 354 754 l 479 754 l 479 114 l 354 114 m 97 376 l 97 494 l 736 494 l 736 376 l 97 376 z "},",":{"ha":833,"x_min":263,"x_max":539,"o":"m 343 -242 l 263 -188 l 428 34 l 427 -4 q 370 9 396 -4 q 328 45 344 22 q 313 102 313 69 q 344 179 313 147 q 424 210 375 210 q 506 179 474 210 q 539 91 539 148 q 525 25 539 58 q 485 -44 511 -8 l 343 -242 z "},"-":{"ha":833,"x_min":108,"x_max":726,"o":"m 108 370 l 108 499 l 726 499 l 726 370 l 108 370 z "},".":{"ha":833,"x_min":302,"x_max":531,"o":"m 416 -20 q 335 13 368 -20 q 302 94 302 45 q 335 174 302 141 q 416 206 369 206 q 498 174 465 206 q 531 94 531 141 q 498 13 531 45 q 416 -20 465 -20 z "},"/":{"ha":833,"x_min":76,"x_max":757,"o":"m 76 -122 l 626 1014 l 757 1014 l 207 -122 l 76 -122 z "},":":{"ha":833,"x_min":303,"x_max":531,"o":"m 416 522 q 336 555 369 522 q 303 636 303 588 q 336 716 303 683 q 416 749 369 749 q 498 716 465 749 q 531 636 531 683 q 498 555 531 588 q 416 522 465 522 m 416 -21 q 336 12 369 -21 q 303 93 303 44 q 336 173 303 140 q 416 206 369 206 q 498 173 465 206 q 531 93 531 140 q 498 12 531 44 q 416 -21 465 -21 z "},";":{"ha":833,"x_min":263,"x_max":540,"o":"m 425 523 q 344 556 377 523 q 311 637 311 588 q 344 717 311 684 q 425 749 378 749 q 507 717 474 749 q 540 637 540 684 q 507 556 540 588 q 425 523 474 523 m 343 -242 l 263 -188 l 428 34 l 427 -4 q 370 9 396 -4 q 328 45 344 22 q 313 102 313 69 q 344 179 313 147 q 424 210 375 210 q 506 179 474 210 q 539 91 539 148 q 525 25 539 58 q 485 -44 511 -8 l 343 -242 z "},"<":{"ha":833,"x_min":104,"x_max":715,"o":"m 715 44 l 104 376 l 104 493 l 715 825 l 715 689 l 242 438 l 242 432 l 715 180 l 715 44 z "},"=":{"ha":833,"x_min":90,"x_max":743,"o":"m 90 530 l 90 649 l 743 649 l 743 530 l 90 530 m 90 220 l 90 340 l 743 340 l 743 220 l 90 220 z "},">":{"ha":833,"x_min":118,"x_max":729,"o":"m 118 44 l 118 180 l 592 432 l 592 438 l 118 689 l 118 825 l 729 493 l 729 376 l 118 44 z "},"?":{"ha":833,"x_min":90,"x_max":734,"o":"m 338 325 l 338 503 l 484 592 q 574 670 545 630 q 603 756 603 710 l 603 766 q 562 860 603 826 q 446 894 520 894 q 301 851 360 894 q 213 726 241 808 l 90 769 q 223 951 129 886 q 447 1016 317 1016 q 600 983 535 1016 q 699 893 664 951 q 734 761 734 835 l 734 759 q 695 619 734 679 q 568 506 657 560 l 467 444 l 467 325 l 338 325 m 403 -22 q 321 11 354 -22 q 288 92 288 44 q 321 172 288 140 q 403 203 354 203 q 484 171 451 203 q 517 92 517 139 q 484 11 517 44 q 403 -22 451 -22 z "},"@":{"ha":833,"x_min":40,"x_max":770,"o":"m 490 -162 q 156 0 273 -162 q 40 463 40 163 l 40 492 q 143 955 40 797 q 445 1114 247 1114 q 683 1015 597 1114 q 770 744 770 917 l 770 162 l 656 162 l 656 251 l 652 251 q 583 177 622 201 q 491 154 544 154 q 375 191 425 154 q 296 295 324 228 q 268 450 268 362 l 268 468 q 297 622 268 556 q 376 726 325 688 q 493 763 427 763 q 587 740 548 763 q 652 667 626 716 l 656 667 l 656 741 q 602 935 656 869 q 444 1002 548 1002 q 229 877 300 1002 q 158 496 158 751 l 158 460 q 242 79 158 208 q 491 -50 326 -50 q 700 22 603 -50 l 760 -77 q 490 -162 649 -162 m 517 261 q 616 311 579 261 q 652 447 652 361 l 652 472 q 616 607 652 557 q 517 656 579 656 q 418 607 454 656 q 382 472 382 558 l 382 447 q 418 310 382 360 q 517 261 454 261 z "},"A":{"ha":833,"x_min":40,"x_max":794,"o":"m 40 0 l 349 994 l 486 994 l 794 0 l 658 0 l 446 738 l 418 846 l 414 846 l 385 738 l 175 0 l 40 0 m 176 256 l 213 372 l 619 372 l 656 256 l 176 256 z "},"B":{"ha":833,"x_min":119,"x_max":746,"o":"m 119 0 l 119 994 l 429 994 q 633 929 559 994 q 706 756 706 864 l 706 737 q 669 603 706 659 q 563 522 632 548 l 563 517 q 697 436 649 499 q 746 283 746 374 l 746 263 q 709 125 746 184 q 607 33 673 65 q 453 0 542 0 l 119 0 m 246 114 l 441 114 q 570 157 524 114 q 615 280 615 200 l 615 297 q 569 419 615 376 q 433 463 522 463 l 205 463 l 205 569 l 417 569 q 535 608 494 569 q 576 718 576 647 l 576 732 q 535 842 576 804 q 417 881 495 881 l 246 881 l 246 114 z "},"C":{"ha":833,"x_min":69,"x_max":780,"o":"m 453 -22 q 250 40 336 -22 q 116 215 163 101 q 69 484 69 328 l 69 510 q 115 782 69 668 q 246 956 161 895 q 449 1017 331 1017 q 646 954 565 1017 q 767 772 728 892 l 647 726 q 569 855 617 815 q 447 894 522 894 q 265 796 329 894 q 201 514 201 697 l 201 481 q 268 199 201 299 q 456 100 334 100 q 660 267 606 100 l 780 223 q 658 41 742 103 q 453 -22 574 -22 z "},"D":{"ha":833,"x_min":97,"x_max":761,"o":"m 97 0 l 97 994 l 360 994 q 576 937 486 994 q 713 771 665 879 q 761 510 761 663 l 761 484 q 713 224 761 333 q 576 58 665 115 q 360 0 486 0 l 97 0 m 225 121 l 356 121 q 560 212 491 121 q 629 481 629 303 l 629 514 q 560 783 629 692 q 356 874 491 874 l 225 874 l 225 121 z "},"E":{"ha":833,"x_min":128,"x_max":701,"o":"m 128 0 l 128 994 l 690 994 l 690 874 l 257 874 l 257 121 l 701 121 l 701 0 l 128 0 m 203 449 l 203 570 l 635 570 l 635 449 l 203 449 z "},"F":{"ha":833,"x_min":128,"x_max":701,"o":"m 128 0 l 128 994 l 701 994 l 701 874 l 257 874 l 257 0 l 128 0 m 203 433 l 203 554 l 660 554 l 660 433 l 203 433 z "},"G":{"ha":833,"x_min":60,"x_max":790,"o":"m 449 -22 q 240 38 327 -22 q 106 210 153 98 q 60 481 60 323 l 60 504 q 106 780 60 665 q 240 956 153 894 q 449 1017 327 1017 q 645 961 565 1017 q 766 801 726 906 l 649 749 q 573 858 622 822 q 452 894 524 894 q 258 794 326 894 q 190 508 190 693 l 190 477 q 257 198 190 295 q 449 100 324 100 q 610 173 555 100 q 665 384 665 245 l 665 421 l 435 421 l 435 541 l 790 541 l 790 396 q 700 88 790 198 q 449 -22 610 -22 z "},"H":{"ha":833,"x_min":111,"x_max":722,"o":"m 593 0 l 593 994 l 722 994 l 722 0 l 593 0 m 111 0 l 111 994 l 240 994 l 240 0 l 111 0 m 184 449 l 184 569 l 651 569 l 651 449 l 184 449 z "},"I":{"ha":833,"x_min":124,"x_max":710,"o":"m 351 63 l 351 931 l 482 931 l 482 63 l 351 63 m 124 0 l 124 122 l 710 122 l 710 0 l 124 0 m 124 873 l 124 994 l 710 994 l 710 873 l 124 873 z "},"J":{"ha":833,"x_min":103,"x_max":707,"o":"m 419 -22 q 219 42 302 -22 q 103 222 136 106 l 223 266 q 417 100 269 100 q 537 153 497 100 q 578 311 578 206 l 578 994 l 707 994 l 707 308 q 673 131 707 205 q 574 17 638 56 q 419 -22 510 -22 z "},"K":{"ha":833,"x_min":111,"x_max":799,"o":"m 640 0 l 237 499 l 237 503 l 627 994 l 783 994 l 365 479 l 365 532 l 799 0 l 640 0 m 111 0 l 111 994 l 240 994 l 240 0 l 111 0 z "},"L":{"ha":833,"x_min":138,"x_max":740,"o":"m 138 0 l 138 994 l 267 994 l 267 122 l 740 122 l 740 0 l 138 0 z "},"M":{"ha":833,"x_min":60,"x_max":773,"o":"m 60 0 l 60 994 l 185 994 l 356 615 l 415 462 l 419 462 l 478 615 l 648 994 l 773 994 l 773 0 l 651 0 l 651 524 l 665 783 l 660 783 l 462 319 l 372 319 l 173 783 l 169 783 l 183 524 l 183 0 l 60 0 z "},"N":{"ha":833,"x_min":75,"x_max":758,"o":"m 75 0 l 75 994 l 207 994 l 639 236 l 642 236 l 628 466 l 628 994 l 758 994 l 758 0 l 644 0 l 194 790 l 190 790 l 206 560 l 206 0 l 75 0 z "},"O":{"ha":833,"x_min":53,"x_max":781,"o":"m 417 -22 q 360 -22 417 -22 q 223 39 304 -22 q 97 214 141 101 q 53 484 53 327 l 53 510 q 97 781 53 667 q 223 955 141 894 q 417 1017 304 1017 q 611 955 529 1017 q 736 781 692 894 q 781 510 781 667 l 781 484 q 736 214 781 327 q 611 39 692 101 q 417 -22 529 -22 m 417 100 q 473 100 417 100 q 589 199 528 100 q 649 481 649 297 l 649 514 q 588 795 649 696 q 417 894 527 894 q 245 795 306 894 q 185 514 185 696 l 185 481 q 245 199 185 297 q 417 100 306 100 z "},"P":{"ha":833,"x_min":113,"x_max":736,"o":"m 113 0 l 113 994 l 426 994 q 589 956 519 994 q 697 849 658 918 q 736 688 736 780 l 736 669 q 697 508 736 577 q 589 401 658 440 q 426 363 519 363 l 185 363 l 185 482 l 423 482 q 558 531 510 482 q 606 666 606 579 l 606 692 q 558 827 606 779 q 423 875 510 875 l 240 875 l 240 0 l 113 0 z "},"Q":{"ha":833,"x_min":53,"x_max":822,"o":"m 415 -11 q 223 49 304 -11 q 97 221 142 110 q 53 484 53 332 l 53 510 q 97 781 53 667 q 223 956 141 894 q 417 1017 304 1017 q 611 956 529 1017 q 736 781 692 894 q 781 510 781 667 l 781 484 q 736 221 781 332 q 610 49 692 110 q 415 -11 528 -11 m 724 -262 q 604 -231 656 -262 q 499 -128 552 -200 q 445 -62 468 -85 q 402 -31 423 -40 q 356 -22 382 -22 q 282 -61 310 -22 q 242 -183 253 -100 l 109 -160 q 192 20 127 -42 q 355 83 256 83 q 473 56 421 83 q 569 -30 524 28 q 651 -115 619 -93 q 728 -137 684 -137 q 793 -124 761 -137 l 822 -243 q 724 -262 776 -262 m 417 88 q 588 190 527 88 q 649 480 649 292 l 649 513 q 588 795 649 696 q 417 894 527 894 q 245 795 306 894 q 185 513 185 696 l 185 480 q 245 190 185 292 q 417 88 306 88 z "},"R":{"ha":833,"x_min":111,"x_max":796,"o":"m 111 0 l 111 994 l 418 994 q 585 958 515 994 q 695 856 656 922 q 735 701 735 790 l 735 688 q 695 533 735 599 q 585 431 656 467 q 418 394 514 394 l 183 394 l 183 510 l 415 510 q 554 556 504 510 q 604 682 604 601 l 604 703 q 554 829 604 783 q 415 875 504 875 l 239 875 l 239 0 l 111 0 m 649 0 l 375 447 l 517 447 l 796 0 l 649 0 z "},"S":{"ha":833,"x_min":63,"x_max":765,"o":"m 445 -22 q 277 10 353 -22 q 147 102 201 42 q 63 247 92 163 l 183 291 q 282 148 215 197 q 443 99 348 99 q 585 140 534 99 q 636 251 636 180 l 636 263 q 597 361 636 322 q 466 433 557 401 l 329 481 q 119 740 119 554 l 119 745 q 158 888 119 826 q 268 983 197 949 q 431 1017 338 1017 q 639 961 555 1017 q 763 797 724 906 l 643 752 q 431 895 592 895 q 298 856 349 895 q 248 752 248 817 l 248 744 q 281 658 248 693 q 385 598 313 623 l 522 550 q 707 435 648 506 q 765 260 765 365 l 765 254 q 725 109 765 171 q 613 12 685 47 q 445 -22 541 -22 z "},"T":{"ha":833,"x_min":75,"x_max":758,"o":"m 352 0 l 352 938 l 481 938 l 481 0 l 352 0 m 75 872 l 75 994 l 758 994 l 758 872 l 75 872 z "},"U":{"ha":833,"x_min":99,"x_max":735,"o":"m 417 -22 q 370 -22 417 -22 q 250 20 322 -22 q 139 137 178 62 q 99 310 99 212 l 99 994 l 228 994 l 228 318 q 278 159 228 217 q 417 100 329 100 q 555 159 505 100 q 606 318 606 217 l 606 994 l 735 994 l 735 310 q 695 137 735 212 q 583 20 655 62 q 417 -22 512 -22 z "},"V":{"ha":833,"x_min":42,"x_max":792,"o":"m 352 0 l 42 994 l 178 994 l 391 270 l 416 149 l 420 149 l 446 270 l 657 994 l 792 994 l 481 0 l 352 0 z "},"W":{"ha":833,"x_min":22,"x_max":812,"o":"m 156 0 l 22 994 l 148 994 l 233 210 l 238 210 l 274 413 l 367 799 l 466 799 l 559 413 l 596 210 l 600 210 l 684 994 l 812 994 l 678 0 l 564 0 l 446 472 l 419 614 l 415 614 l 388 472 l 271 0 l 156 0 z "},"X":{"ha":833,"x_min":33,"x_max":800,"o":"m 653 0 l 373 472 l 355 480 l 47 994 l 194 994 l 463 544 l 481 537 l 800 0 l 653 0 m 33 0 l 360 538 l 376 551 l 643 994 l 786 994 l 476 485 l 461 472 l 176 0 l 33 0 z "},"Y":{"ha":833,"x_min":45,"x_max":788,"o":"m 360 364 l 45 994 l 190 994 l 347 669 l 417 510 l 422 510 l 489 669 l 648 994 l 788 994 l 474 364 l 360 364 m 352 0 l 352 435 l 481 435 l 481 0 l 352 0 z "},"Z":{"ha":833,"x_min":100,"x_max":733,"o":"m 100 0 l 100 111 l 573 873 l 118 873 l 118 994 l 722 994 l 722 883 l 250 122 l 733 122 l 733 0 l 100 0 z "},"[":{"ha":833,"x_min":244,"x_max":710,"o":"m 710 1101 l 710 994 l 372 994 l 372 -70 l 710 -70 l 710 -177 l 244 -177 l 244 1101 l 710 1101 z "},"\\":{"ha":833,"x_min":76,"x_max":757,"o":"m 757 -122 l 626 -122 l 76 1014 l 207 1014 l 757 -122 z "},"]":{"ha":833,"x_min":124,"x_max":589,"o":"m 124 -177 l 124 -70 l 461 -70 l 461 994 l 124 994 l 124 1101 l 589 1101 l 589 -177 l 124 -177 z "},"^":{"ha":833,"x_min":60,"x_max":774,"o":"m 60 469 l 367 994 l 467 994 l 774 469 l 635 469 l 418 849 l 413 849 l 199 469 l 60 469 z "},"_":{"ha":833,"x_min":69,"x_max":764,"o":"m 69 -140 l 69 -22 l 764 -22 l 764 -140 l 69 -140 z "},"`":{"ha":833,"x_min":215,"x_max":567,"o":"m 431 613 l 215 1014 l 392 1014 l 567 613 l 431 613 z "},"a":{"ha":833,"x_min":113,"x_max":699,"o":"m 365 -22 q 233 7 290 -22 q 144 89 176 37 q 113 210 113 142 l 113 220 q 189 398 113 332 q 390 465 265 465 q 498 451 447 465 q 588 415 549 438 l 588 317 q 412 365 514 365 q 287 327 333 365 q 240 225 240 290 l 240 218 q 280 121 240 156 q 388 86 320 86 q 486 114 444 86 q 552 190 528 141 q 576 300 576 238 l 576 474 q 536 594 576 551 q 416 638 497 638 q 228 556 309 638 l 150 640 q 417 749 252 749 q 625 676 551 749 q 699 478 699 602 l 699 0 l 582 0 l 582 106 l 577 106 q 492 12 545 46 q 365 -22 438 -22 z "},"b":{"ha":833,"x_min":106,"x_max":747,"o":"m 453 -22 q 319 15 378 -22 q 227 119 260 53 l 222 119 l 222 0 l 106 0 l 106 1014 l 232 1014 l 232 619 l 236 619 q 330 715 274 681 q 463 749 387 749 q 613 703 549 749 q 712 572 676 656 q 747 376 747 488 l 747 351 q 710 156 747 240 q 608 25 674 72 q 453 -22 542 -22 m 426 92 q 567 162 515 92 q 618 354 618 232 l 618 373 q 567 566 618 496 q 426 635 516 635 q 281 564 335 635 q 227 372 227 493 l 227 356 q 281 164 227 235 q 426 92 335 92 z "},"c":{"ha":833,"x_min":117,"x_max":758,"o":"m 468 -22 q 284 26 363 -22 q 161 158 205 73 q 117 355 117 242 l 117 373 q 160 570 117 485 q 280 701 203 654 q 458 749 357 749 q 628 703 559 749 q 740 574 697 658 l 635 514 q 564 602 607 572 q 458 632 520 632 q 302 564 360 632 q 245 378 245 496 l 245 349 q 306 165 245 233 q 467 96 366 96 q 575 125 528 96 q 656 215 622 153 l 758 150 q 682 56 726 94 q 584 -2 638 17 q 468 -22 531 -22 z "},"d":{"ha":833,"x_min":86,"x_max":728,"o":"m 385 -22 q 230 25 297 -22 q 124 157 162 72 q 86 352 86 241 l 86 376 q 123 573 86 489 q 226 702 160 656 q 380 749 292 749 q 508 715 453 749 q 597 621 563 681 l 601 621 l 601 1014 l 728 1014 l 728 0 l 611 0 l 611 119 l 606 119 q 517 16 574 53 q 385 -22 460 -22 m 411 92 q 553 164 500 92 q 606 356 606 235 l 606 372 q 553 564 606 492 q 411 635 501 635 q 268 565 320 635 q 215 373 215 496 l 215 355 q 268 163 215 233 q 411 92 321 92 z "},"e":{"ha":833,"x_min":90,"x_max":738,"o":"m 438 -22 q 255 25 333 -22 q 133 156 176 72 q 90 353 90 240 l 90 380 q 133 574 90 491 q 253 703 176 657 q 433 749 330 749 q 593 709 525 749 q 700 597 662 669 q 738 427 738 524 q 736 376 738 401 q 731 328 734 351 l 169 328 l 169 428 l 613 428 l 613 431 q 564 582 613 526 q 431 638 515 638 q 274 568 333 638 q 215 376 215 499 l 215 357 q 276 163 215 235 q 441 92 337 92 q 631 205 567 92 l 733 140 q 613 18 686 59 q 438 -22 539 -22 z "},"f":{"ha":833,"x_min":94,"x_max":774,"o":"m 275 0 l 275 783 q 343 969 275 901 q 532 1036 412 1036 q 661 1017 604 1036 q 774 954 718 997 l 706 864 q 625 911 665 897 q 535 925 585 925 q 431 888 465 925 q 397 775 397 851 l 397 676 l 400 650 l 400 0 l 275 0 m 94 592 l 94 700 l 739 700 l 739 592 l 94 592 z "},"g":{"ha":833,"x_min":60,"x_max":781,"o":"m 412 -397 q 225 -367 303 -397 q 103 -283 146 -337 q 60 -153 60 -228 q 104 -20 60 -77 q 228 63 148 36 l 258 3 q 195 -55 217 -19 q 173 -137 173 -92 q 233 -249 173 -211 q 412 -286 293 -286 q 594 -243 526 -286 q 661 -126 661 -200 q 527 -19 661 -19 l 187 -19 l 187 21 l 326 244 l 403 229 l 349 86 l 537 86 q 716 30 652 86 q 781 -125 781 -26 q 735 -269 781 -208 q 608 -364 690 -331 q 412 -397 525 -397 m 417 199 q 269 235 335 199 q 164 333 203 271 q 126 471 126 394 l 126 478 q 163 618 126 557 q 267 715 201 680 q 417 749 333 749 q 566 713 500 749 q 670 616 632 677 q 709 478 709 554 l 709 471 q 672 331 709 392 q 568 234 634 269 q 417 199 502 199 m 417 302 q 541 348 493 302 q 590 466 590 394 l 590 477 q 541 595 590 549 q 417 641 493 641 q 293 595 342 641 q 245 477 245 549 l 245 466 q 293 348 245 394 q 417 302 342 302 m 578 667 l 530 692 q 613 836 554 786 q 760 886 672 886 l 760 747 q 578 667 639 747 z "},"h":{"ha":833,"x_min":128,"x_max":726,"o":"m 128 0 l 128 1014 l 254 1014 l 254 628 l 259 628 q 491 749 345 749 q 663 677 601 749 q 726 478 726 605 l 726 0 l 600 0 l 600 458 q 447 638 600 638 q 307 578 360 638 q 254 421 254 519 l 254 0 l 128 0 z "},"i":{"ha":833,"x_min":141,"x_max":748,"o":"m 388 42 l 388 727 l 511 727 l 511 42 l 388 42 m 141 0 l 141 103 l 748 103 l 748 0 l 141 0 m 155 624 l 155 727 l 474 727 l 474 624 l 155 624 m 431 888 q 356 919 388 888 q 325 994 325 950 q 356 1068 325 1039 q 431 1098 388 1098 q 506 1068 476 1098 q 536 993 536 1038 q 506 919 536 950 q 431 888 476 888 z "},"j":{"ha":833,"x_min":77,"x_max":598,"o":"m 308 -307 q 77 -229 185 -307 l 141 -130 q 222 -175 182 -160 q 305 -190 263 -190 q 411 -148 375 -190 q 448 -24 448 -106 l 448 727 l 573 727 l 573 -22 q 501 -230 573 -153 q 308 -307 429 -307 m 166 624 l 166 727 l 543 727 l 543 624 l 166 624 m 493 888 q 418 919 449 888 q 387 994 387 950 q 418 1068 387 1038 q 493 1098 449 1098 q 568 1068 538 1098 q 598 993 598 1038 q 568 918 598 949 q 493 888 538 888 z "},"k":{"ha":833,"x_min":121,"x_max":749,"o":"m 585 0 l 242 390 l 242 394 l 569 727 l 731 727 l 360 355 l 360 433 l 749 0 l 585 0 m 121 0 l 121 1014 l 247 1014 l 247 0 l 121 0 z "},"l":{"ha":833,"x_min":81,"x_max":758,"o":"m 543 -22 q 361 45 428 -22 q 295 232 295 113 l 295 1014 l 420 1014 l 420 245 q 551 96 420 96 q 619 110 588 96 q 686 156 651 124 l 758 61 q 660 -2 713 19 q 543 -22 606 -22 m 81 904 l 81 1014 l 361 1014 l 361 904 l 81 904 z "},"m":{"ha":833,"x_min":71,"x_max":767,"o":"m 71 0 l 71 727 l 186 727 l 186 633 l 191 633 q 246 719 210 689 q 333 749 283 749 q 426 708 391 749 q 465 590 460 666 l 455 597 q 517 710 474 670 q 618 749 560 749 q 767 528 767 749 l 767 0 l 642 0 l 642 528 q 625 613 642 588 q 574 638 608 638 q 507 601 533 638 q 481 494 481 564 l 481 0 l 356 0 l 356 527 q 339 612 356 587 q 288 638 322 638 q 222 601 248 638 q 195 494 195 564 l 195 0 l 71 0 z "},"n":{"ha":833,"x_min":128,"x_max":726,"o":"m 128 0 l 128 727 l 246 727 l 246 616 l 251 616 q 353 715 292 681 q 491 749 413 749 q 665 676 603 749 q 726 478 726 602 l 726 0 l 600 0 l 600 458 q 561 592 600 547 q 447 638 522 638 q 307 579 360 638 q 254 417 254 521 l 254 0 l 128 0 z "},"o":{"ha":833,"x_min":79,"x_max":754,"o":"m 417 -22 q 366 -22 417 -22 q 240 25 316 -22 q 122 157 164 72 q 79 354 79 242 l 79 373 q 122 570 79 485 q 240 702 164 655 q 417 749 316 749 q 593 702 517 749 q 712 570 669 655 q 754 373 754 485 l 754 354 q 712 157 754 242 q 593 25 669 72 q 417 -22 517 -22 m 417 94 q 465 94 417 94 q 569 165 514 94 q 625 356 625 235 l 625 371 q 569 563 625 493 q 417 633 514 633 q 264 563 320 633 q 208 371 208 493 l 208 356 q 264 165 208 235 q 417 94 320 94 z "},"p":{"ha":833,"x_min":106,"x_max":747,"o":"m 453 749 q 608 702 542 749 q 710 572 674 656 q 747 376 747 488 l 747 351 q 712 155 747 240 q 613 24 676 71 q 463 -22 549 -22 q 330 12 387 -22 q 236 108 274 47 l 232 108 l 232 -287 l 106 -287 l 106 727 l 222 727 l 222 608 l 227 608 q 319 712 260 674 q 453 749 378 749 m 426 635 q 281 564 335 635 q 227 372 227 492 l 227 355 q 281 163 227 234 q 426 92 335 92 q 567 161 516 92 q 618 354 618 231 l 618 373 q 567 565 618 495 q 426 635 515 635 z "},"q":{"ha":833,"x_min":86,"x_max":728,"o":"m 385 749 q 517 711 460 749 q 606 608 574 674 l 611 608 l 611 727 l 728 727 l 728 -287 l 601 -287 l 601 106 l 597 106 q 508 12 563 46 q 380 -22 453 -22 q 226 25 292 -22 q 123 155 160 71 q 86 351 86 238 l 86 375 q 124 571 86 487 q 230 702 162 655 q 385 749 297 749 m 411 635 q 268 565 321 635 q 215 372 215 494 l 215 354 q 268 162 215 231 q 411 92 320 92 q 553 164 501 92 q 606 355 606 235 l 606 372 q 553 563 606 492 q 411 635 500 635 z "},"r":{"ha":833,"x_min":83,"x_max":788,"o":"m 258 42 l 258 727 l 369 727 l 369 576 l 375 576 q 469 704 408 659 q 608 749 530 749 q 707 727 664 749 q 788 658 749 706 l 697 556 q 631 612 665 595 q 555 628 598 628 q 426 562 473 628 q 380 379 380 496 l 380 42 l 258 42 m 83 0 l 83 102 l 616 102 l 616 0 l 83 0 m 97 625 l 97 727 l 317 727 l 317 625 l 97 625 z "},"s":{"ha":833,"x_min":117,"x_max":717,"o":"m 455 -22 q 248 28 334 -22 q 117 175 162 78 l 224 226 q 313 126 253 161 q 452 90 373 90 q 554 116 517 90 q 592 186 592 142 l 592 193 q 561 259 592 234 q 456 303 531 283 l 356 329 q 215 405 264 353 q 166 534 166 456 l 166 535 q 238 692 166 634 q 433 749 310 749 q 606 711 537 749 q 714 594 676 673 l 607 544 q 429 637 560 637 q 327 613 364 637 q 291 544 291 588 l 291 540 q 318 481 291 503 q 407 442 345 458 l 508 415 q 666 334 616 387 q 717 196 717 282 l 717 193 q 645 37 717 97 q 455 -22 573 -22 z "},"t":{"ha":833,"x_min":81,"x_max":753,"o":"m 546 -22 q 349 48 419 -22 q 278 244 278 119 l 278 921 l 406 921 l 406 254 q 440 134 406 173 q 546 96 474 96 q 682 157 621 96 l 753 63 q 546 -22 668 -22 m 81 619 l 81 727 l 709 727 l 709 619 l 81 619 z "},"u":{"ha":833,"x_min":119,"x_max":703,"o":"m 358 -22 q 184 48 249 -22 q 119 240 119 117 l 119 727 l 245 727 l 245 263 q 284 134 245 178 q 397 90 323 90 q 526 149 475 90 q 577 305 577 208 l 577 727 l 703 727 l 703 0 l 585 0 l 585 112 l 581 112 q 489 14 545 51 q 358 -22 433 -22 z "},"v":{"ha":833,"x_min":76,"x_max":757,"o":"m 351 0 l 76 727 l 213 727 l 367 300 l 417 136 l 422 136 l 470 300 l 622 727 l 757 727 l 482 0 l 351 0 z "},"w":{"ha":833,"x_min":22,"x_max":811,"o":"m 178 0 l 22 727 l 141 727 l 231 222 l 243 140 l 247 140 l 260 222 l 356 644 l 480 644 l 577 224 l 590 140 l 594 140 l 606 224 l 694 727 l 811 727 l 654 0 l 528 0 l 433 426 l 419 515 l 415 515 l 400 426 l 306 0 l 178 0 z "},"x":{"ha":833,"x_min":92,"x_max":742,"o":"m 600 0 l 372 342 l 360 349 l 103 727 l 244 727 l 455 411 l 467 404 l 742 0 l 600 0 m 92 0 l 367 399 l 378 408 l 594 727 l 731 727 l 469 347 l 456 335 l 228 0 l 92 0 z "},"y":{"ha":833,"x_min":44,"x_max":767,"o":"m 221 -307 q 44 -244 119 -307 l 108 -146 q 217 -190 163 -190 q 288 -168 260 -190 q 333 -97 315 -147 l 399 83 l 417 83 l 481 300 l 633 727 l 767 727 l 444 -128 q 356 -265 408 -222 q 221 -307 303 -307 m 390 -66 l 86 727 l 222 727 l 377 300 l 428 136 l 449 136 l 390 -66 z "},"z":{"ha":833,"x_min":128,"x_max":705,"o":"m 128 0 l 128 104 l 545 613 l 145 613 l 145 727 l 697 727 l 697 623 l 281 115 l 705 115 l 705 0 l 128 0 z "},"{":{"ha":833,"x_min":90,"x_max":704,"o":"m 576 1114 q 640 1112 608 1114 q 704 1106 672 1110 l 704 1004 q 653 1009 678 1008 q 606 1010 628 1010 q 472 991 515 1010 q 429 931 429 972 q 441 890 429 913 q 476 838 452 867 l 493 816 q 543 738 528 772 q 558 668 558 703 q 518 572 558 609 q 401 523 478 535 l 201 492 l 201 433 l 401 402 q 518 353 478 391 q 558 257 558 316 q 543 187 558 222 q 493 109 528 153 l 476 88 q 441 35 452 58 q 429 -6 429 13 q 472 -66 429 -47 q 606 -85 515 -85 q 653 -84 628 -85 q 704 -79 678 -82 l 704 -181 q 640 -187 672 -185 q 576 -189 608 -189 q 370 -148 437 -189 q 303 -23 303 -108 q 315 42 303 11 q 353 108 327 73 l 390 156 q 424 207 414 186 q 433 247 433 228 q 366 313 433 301 l 90 360 l 90 565 l 366 613 q 433 678 433 624 q 424 719 433 698 q 390 769 414 740 l 353 817 q 315 883 327 852 q 303 948 303 914 q 370 1073 303 1033 q 576 1114 437 1114 z "},"|":{"ha":833,"x_min":350,"x_max":483,"o":"m 350 -240 l 350 1235 l 483 1235 l 483 -240 l 350 -240 z "},"¦":{"ha":833,"x_min":350,"x_max":483,"o":"m 350 644 l 350 1235 l 483 1235 l 483 644 l 350 644 m 350 -240 l 350 350 l 483 350 l 483 -240 l 350 -240 z "},"}":{"ha":833,"x_min":129,"x_max":743,"o":"m 257 -190 q 193 -188 225 -190 q 129 -183 162 -186 l 129 -81 q 180 -85 155 -83 q 227 -87 205 -87 q 361 -67 318 -87 q 404 -8 404 -48 q 393 34 404 11 q 358 86 382 56 l 340 108 q 290 186 305 151 q 275 256 275 220 q 315 352 275 315 q 432 401 356 390 l 632 431 l 632 491 l 432 522 q 315 570 356 533 q 275 667 275 608 q 290 736 275 702 q 340 815 305 771 l 358 836 q 393 889 382 866 q 404 930 404 911 q 361 990 404 971 q 227 1009 318 1009 q 180 1008 205 1009 q 129 1003 155 1006 l 129 1105 q 193 1110 162 1108 q 257 1113 225 1113 q 464 1072 397 1113 q 531 947 531 1031 q 518 882 531 913 q 480 816 506 851 l 443 768 q 410 717 419 738 q 400 676 400 697 q 467 611 400 623 l 743 563 l 743 359 l 467 311 q 400 246 400 299 q 410 206 400 226 q 443 154 419 185 l 480 106 q 518 41 506 72 q 531 -24 531 10 q 464 -150 531 -109 q 257 -190 397 -190 z "},"~":{"ha":833,"x_min":78,"x_max":756,"o":"m 572 398 q 477 423 519 398 q 376 513 435 448 q 318 568 341 553 q 272 583 296 583 q 199 485 199 583 l 199 403 l 78 403 l 78 486 q 128 643 78 585 q 263 700 178 700 q 358 675 317 700 q 457 585 399 650 q 515 531 492 546 q 563 515 538 515 q 635 613 635 515 l 635 695 l 756 695 l 756 613 q 706 456 756 513 q 572 398 656 398 z "},"\"":{"ha":833,"x_min":190,"x_max":644,"o":"m 190 628 l 190 1014 l 346 1014 l 346 628 l 190 628 m 488 628 l 488 1014 l 644 1014 l 644 628 l 488 628 z "},"©":{"ha":833,"x_min":6,"x_max":828,"o":"m 417 -22 q 354 -22 417 -22 q 199 36 292 -22 q 56 201 107 94 q 6 453 6 308 l 6 542 q 56 793 6 687 q 199 958 107 900 q 417 1017 292 1017 q 634 958 542 1017 q 777 793 726 900 q 828 542 828 687 l 828 453 q 777 201 828 308 q 634 36 726 94 q 417 -22 542 -22 m 417 40 q 497 40 417 40 q 668 150 577 40 q 758 452 758 259 l 758 542 q 668 845 758 735 q 417 954 577 954 q 166 845 256 954 q 75 542 75 735 l 75 452 q 166 150 75 259 q 417 40 256 40 m 432 208 q 259 283 324 208 q 195 484 195 358 l 195 517 q 259 718 195 643 q 432 792 324 792 q 576 740 522 792 q 641 590 631 687 l 547 581 q 431 701 535 701 q 326 653 364 701 q 289 520 289 606 l 289 480 q 326 347 289 394 q 431 299 364 299 q 547 419 535 299 l 641 410 q 576 261 631 315 q 432 208 522 208 z "},"®":{"ha":833,"x_min":6,"x_max":828,"o":"m 417 -21 q 354 -21 417 -21 q 199 38 292 -21 q 56 203 107 96 q 6 454 6 310 l 6 541 q 56 793 6 686 q 199 958 107 899 q 417 1016 292 1016 q 634 958 542 1016 q 777 793 726 899 q 828 541 828 686 l 828 454 q 777 203 828 310 q 634 38 726 96 q 417 -21 542 -21 m 528 210 l 391 467 l 497 467 l 639 215 l 639 210 l 528 210 m 417 42 q 497 42 417 42 q 668 151 577 42 q 758 453 758 260 l 758 542 q 668 844 758 735 q 417 953 577 953 q 166 844 256 953 q 75 542 75 735 l 75 453 q 166 151 75 260 q 417 42 256 42 m 235 210 l 235 790 l 422 790 q 566 743 513 790 q 619 613 619 695 l 619 605 q 565 476 619 525 q 421 428 510 428 l 292 428 l 292 511 l 419 511 q 497 535 469 511 q 525 601 525 559 l 525 612 q 497 677 525 653 q 419 701 469 701 l 328 701 l 328 210 l 235 210 z "},"™":{"ha":833,"x_min":13,"x_max":821,"o":"m 408 432 l 408 1013 l 498 1013 l 585 764 l 611 665 l 618 665 l 644 764 l 731 1013 l 821 1013 l 821 432 l 738 432 l 738 647 l 746 833 l 739 833 l 650 561 l 579 561 l 490 833 l 483 833 l 492 647 l 492 432 l 408 432 m 139 432 l 139 988 l 229 988 l 229 432 l 139 432 m 13 928 l 13 1013 l 356 1013 l 356 928 l 13 928 z "},"−":{"ha":833,"x_min":107,"x_max":726,"o":"m 107 375 l 107 500 l 726 500 l 726 375 l 107 375 z "},"±":{"ha":833,"x_min":98,"x_max":735,"o":"m 104 0 l 104 122 l 729 122 l 729 0 l 104 0 m 98 434 l 98 549 l 735 549 l 735 434 l 98 434 m 356 196 l 356 788 l 478 788 l 478 196 l 356 196 z "},"×":{"ha":833,"x_min":114,"x_max":719,"o":"m 198 131 l 114 214 l 636 741 l 719 658 l 198 131 m 636 131 l 114 658 l 198 741 l 719 214 l 636 131 z "},"÷":{"ha":833,"x_min":107,"x_max":726,"o":"m 107 375 l 107 500 l 726 500 l 726 375 l 107 375 m 417 608 q 397 608 417 608 q 348 636 376 608 q 320 705 320 664 q 348 773 320 745 q 417 800 376 800 q 485 773 457 800 q 513 705 513 745 q 485 636 513 664 q 417 608 457 608 m 417 75 q 397 75 417 75 q 348 103 376 75 q 320 171 320 131 q 348 239 320 212 q 417 267 376 267 q 485 239 457 267 q 513 171 513 212 q 485 103 513 131 q 417 75 457 75 z "},"∕":{"ha":833,"x_min":35,"x_max":799,"o":"m 35 -22 l 650 1014 l 799 1014 l 183 -22 l 35 -22 z "},"⁄":{"ha":833,"x_min":39,"x_max":794,"o":"m 39 -22 l 694 1014 l 794 1014 l 139 -22 l 39 -22 z "},"‘":{"ha":833,"x_min":294,"x_max":571,"o":"m 490 1036 l 571 982 l 406 760 l 406 798 q 464 785 438 798 q 505 748 490 772 q 520 692 520 724 q 489 615 520 647 q 410 583 458 583 q 327 615 360 583 q 294 703 294 646 q 308 769 294 736 q 348 838 322 802 l 490 1036 z "},"’":{"ha":833,"x_min":263,"x_max":539,"o":"m 343 583 l 263 638 l 428 860 l 427 822 q 370 834 396 822 q 328 871 344 847 q 313 928 313 895 q 344 1005 313 973 q 424 1036 375 1036 q 506 1005 474 1036 q 539 917 539 974 q 525 850 539 883 q 485 782 511 817 l 343 583 z "},"“":{"ha":833,"x_min":103,"x_max":714,"o":"m 299 1036 l 379 982 l 214 760 l 215 798 q 272 785 246 798 q 313 748 298 772 q 328 692 328 724 q 298 615 328 647 q 218 583 267 583 q 135 615 168 583 q 103 703 103 646 q 117 769 103 736 q 156 838 131 802 l 299 1036 m 633 1036 l 714 982 l 549 760 l 549 798 q 607 785 581 798 q 648 748 633 772 q 663 692 663 724 q 632 615 663 647 q 553 583 601 583 q 470 615 503 583 q 438 703 438 646 q 451 769 438 736 q 491 838 465 802 l 633 1036 z "},"”":{"ha":833,"x_min":119,"x_max":731,"o":"m 200 583 l 119 638 l 285 860 l 284 822 q 227 834 253 822 q 185 871 201 847 q 170 928 170 895 q 201 1005 170 973 q 281 1036 232 1036 q 363 1005 331 1036 q 396 917 396 974 q 382 850 396 883 q 342 782 368 817 l 200 583 m 535 583 l 454 638 l 619 860 l 619 822 q 561 834 588 822 q 520 871 535 847 q 505 928 505 895 q 536 1005 505 973 q 615 1036 567 1036 q 698 1005 665 1036 q 731 917 731 974 q 717 850 731 883 q 677 782 703 817 l 535 583 z "},"→":{"ha":833,"x_min":65,"x_max":792,"o":"m 440 53 l 359 130 l 647 428 l 647 447 l 359 745 l 440 822 l 792 438 l 440 53 m 65 378 l 65 497 l 410 497 l 707 484 l 707 391 l 410 378 l 65 378 z "},"←":{"ha":833,"x_min":65,"x_max":792,"o":"m 417 53 l 65 438 l 417 822 l 498 745 l 210 447 l 210 428 l 498 130 l 417 53 m 447 378 l 150 391 l 150 484 l 447 497 l 792 497 l 792 378 l 447 378 z "},"↑":{"ha":833,"x_min":38,"x_max":796,"o":"m 114 425 l 38 506 l 417 852 l 796 506 l 719 425 l 426 707 l 407 707 l 114 425 m 355 17 l 355 470 l 370 767 l 463 767 l 478 470 l 478 17 l 355 17 z "},"↓":{"ha":833,"x_min":38,"x_max":796,"o":"m 417 17 l 38 364 l 114 444 l 407 163 l 426 163 l 719 444 l 796 364 l 417 17 m 370 102 l 355 399 l 355 852 l 478 852 l 478 399 l 463 102 l 370 102 z "},"⇒":{"ha":833,"x_min":28,"x_max":821,"o":"m 431 22 l 356 95 l 674 422 l 674 453 l 356 780 l 431 853 l 821 438 l 431 22 m 28 266 l 28 370 l 658 370 l 658 293 l 407 266 l 28 266 m 28 505 l 28 609 l 407 609 l 658 582 l 658 505 l 28 505 z "},"∷":{"ha":833,"x_min":118,"x_max":715,"o":"m 609 576 q 533 606 563 576 q 503 683 503 637 q 533 760 503 730 q 609 790 563 790 q 685 760 655 790 q 715 683 715 729 q 685 606 715 637 q 609 576 654 576 m 224 85 q 148 115 178 85 q 118 192 118 146 q 148 269 118 238 q 224 299 178 299 q 300 269 269 299 q 331 192 331 238 q 300 115 331 146 q 224 85 270 85 m 609 85 q 586 85 609 85 q 533 115 563 85 q 503 192 503 145 q 533 269 503 238 q 609 299 563 299 q 685 269 654 299 q 715 192 715 238 q 685 115 715 146 q 609 85 655 85 m 224 576 q 202 576 224 576 q 149 606 179 576 q 118 683 118 637 q 148 760 118 729 q 224 790 178 790 q 300 760 270 790 q 331 683 331 729 q 300 606 331 637 q 224 576 269 576 z "},"≤":{"ha":833,"x_min":104,"x_max":729,"o":"m 729 178 l 104 419 l 104 545 l 729 786 l 729 658 l 377 526 l 244 485 l 244 479 l 377 438 l 729 306 l 729 178 m 104 0 l 104 119 l 729 119 l 729 0 l 104 0 z "},"≥":{"ha":833,"x_min":104,"x_max":729,"o":"m 104 178 l 104 306 l 456 438 l 590 479 l 590 485 l 456 526 l 104 658 l 104 786 l 729 545 l 729 419 l 104 178 m 729 0 l 104 0 l 104 119 l 729 119 l 729 0 z "},"…":{"ha":833,"x_min":51,"x_max":782,"o":"m 138 -22 q 76 4 101 -22 q 51 68 51 30 q 76 130 51 105 q 138 156 101 156 q 199 130 174 156 q 224 68 224 105 q 199 4 224 30 q 138 -22 174 -22 m 696 -22 q 635 4 660 -22 q 610 68 610 30 q 635 130 610 105 q 696 156 660 156 q 757 130 733 156 q 782 68 782 105 q 757 4 782 30 q 696 -22 733 -22 m 417 -22 q 356 4 381 -22 q 331 68 331 30 q 356 130 331 105 q 417 156 381 156 q 478 130 453 156 q 503 68 503 105 q 478 4 503 30 q 417 -22 453 -22 z "},"■":{"ha":833,"x_min":93,"x_max":740,"o":"m 93 174 l 93 821 l 740 821 l 740 174 l 93 174 z "},"□":{"ha":833,"x_min":67,"x_max":767,"o":"m 67 147 l 67 847 l 767 847 l 767 147 l 67 147 m 153 231 l 681 231 l 681 763 l 153 763 l 153 231 z "},"▪":{"ha":833,"x_min":235,"x_max":599,"o":"m 235 223 l 235 588 l 599 588 l 599 223 l 235 223 z "},"▫":{"ha":833,"x_min":199,"x_max":634,"o":"m 199 188 l 199 623 l 634 623 l 634 188 l 199 188 m 273 260 l 560 260 l 560 551 l 273 551 l 273 260 z "},"▬":{"ha":833,"x_min":40,"x_max":793,"o":"m 40 283 l 40 461 l 793 461 l 793 283 l 40 283 z "},"▲":{"ha":833,"x_min":63,"x_max":771,"o":"m 63 132 l 417 896 l 771 132 l 63 132 z "},"►":{"ha":833,"x_min":49,"x_max":813,"o":"m 49 143 l 49 851 l 813 497 l 49 143 z "},"▼":{"ha":833,"x_min":63,"x_max":771,"o":"m 417 115 l 63 879 l 771 879 l 417 115 z "},"◄":{"ha":833,"x_min":21,"x_max":785,"o":"m 785 143 l 21 497 l 785 851 l 785 143 z "},"◆":{"ha":833,"x_min":56,"x_max":778,"o":"m 417 136 l 56 497 l 417 858 l 778 497 l 417 136 z "},"◉":{"ha":833,"x_min":31,"x_max":803,"o":"m 417 111 q 219 161 306 111 q 81 299 131 212 q 31 497 31 387 q 81 695 31 608 q 219 833 131 783 q 417 883 306 883 q 615 833 528 883 q 752 695 702 783 q 803 497 803 608 q 752 299 803 387 q 615 161 702 212 q 417 111 528 111 m 417 188 q 461 188 417 188 q 574 228 505 188 q 683 339 643 269 q 724 498 724 409 q 683 656 724 586 q 574 766 643 726 q 417 807 505 807 q 259 766 328 807 q 150 656 190 726 q 110 498 110 586 q 150 339 110 409 q 259 228 190 269 q 417 188 328 188 m 417 278 q 386 278 417 278 q 307 306 355 278 q 231 384 258 335 q 203 497 203 434 q 231 610 203 560 q 307 688 258 660 q 417 717 355 717 q 527 688 478 717 q 603 610 575 660 q 631 497 631 560 q 603 384 631 434 q 527 306 575 335 q 417 278 478 278 z "},"◊":{"ha":833,"x_min":75,"x_max":758,"o":"m 363 -22 l 75 497 l 363 1017 l 472 1017 l 758 497 l 472 -22 l 363 -22 m 417 112 l 652 540 l 652 454 l 417 883 l 182 454 l 182 540 l 417 112 z "},"○":{"ha":833,"x_min":31,"x_max":803,"o":"m 417 111 q 362 111 417 111 q 219 162 307 111 q 81 300 132 213 q 31 498 31 388 q 81 695 31 608 q 219 833 132 782 q 417 883 307 883 q 614 833 527 883 q 752 695 701 783 q 803 497 803 608 q 752 299 803 387 q 614 161 701 212 q 417 111 527 111 m 417 197 q 460 197 417 197 q 570 236 503 197 q 676 343 638 275 q 715 498 715 411 q 676 652 715 584 q 570 759 638 720 q 417 799 503 799 q 264 759 331 799 q 158 652 197 720 q 119 498 119 584 q 158 343 119 411 q 264 236 197 275 q 417 197 331 197 z "},"●":{"ha":833,"x_min":82,"x_max":751,"o":"m 417 160 q 369 160 417 160 q 245 204 322 160 q 126 325 169 249 q 82 498 82 401 q 126 670 82 594 q 245 790 169 746 q 417 835 322 835 q 588 790 513 835 q 708 670 664 746 q 751 498 751 594 q 708 325 751 401 q 588 204 664 249 q 417 160 513 160 z "},"◙":{"ha":833,"x_min":28,"x_max":805,"o":"m 28 109 l 28 885 l 805 885 l 805 109 l 28 109 m 417 126 q 606 175 522 126 q 739 308 690 224 q 788 497 788 392 q 739 687 788 603 q 606 819 690 771 q 417 868 522 868 q 228 819 312 868 q 95 686 144 770 q 46 498 46 603 q 95 308 46 392 q 228 175 144 224 q 417 126 312 126 m 417 208 q 376 208 417 208 q 270 246 335 208 q 168 349 206 284 q 131 497 131 415 q 168 645 131 580 q 270 748 206 710 q 417 786 335 786 q 563 748 499 786 q 665 645 628 710 q 703 497 703 580 q 665 349 703 415 q 563 246 628 284 q 417 208 499 208 z "},"─":{"ha":833,"x_min":-62,"x_max":896,"o":"m -62 385 l -62 510 l 896 510 l 896 385 l -62 385 z "},"━":{"ha":833,"x_min":-62,"x_max":896,"o":"m -62 335 l -62 560 l 896 560 l 896 335 l -62 335 z "},"│":{"ha":833,"x_min":354,"x_max":479,"o":"m 354 -456 l 354 1350 l 479 1350 l 479 -456 l 354 -456 z "},"┃":{"ha":833,"x_min":304,"x_max":529,"o":"m 304 -456 l 304 1350 l 529 1350 l 529 -456 l 304 -456 z "},"┄":{"ha":833,"x_min":47,"x_max":787,"o":"m 602 385 l 602 510 l 787 510 l 787 385 l 602 385 m 47 385 l 47 510 l 231 510 l 231 385 l 47 385 m 324 385 l 324 510 l 509 510 l 509 385 l 324 385 z "},"┅":{"ha":833,"x_min":47,"x_max":787,"o":"m 602 335 l 602 560 l 787 560 l 787 335 l 602 335 m 47 335 l 47 560 l 231 560 l 231 335 l 47 335 m 324 335 l 324 560 l 509 560 l 509 335 l 324 335 z "},"┆":{"ha":833,"x_min":354,"x_max":479,"o":"m 354 254 l 354 640 l 479 640 l 479 254 l 354 254 m 354 -324 l 354 61 l 479 61 l 479 -324 l 354 -324 m 354 833 l 354 1219 l 479 1219 l 479 833 l 354 833 z "},"┇":{"ha":833,"x_min":304,"x_max":529,"o":"m 304 254 l 304 640 l 529 640 l 529 254 l 304 254 m 304 -324 l 304 61 l 529 61 l 529 -324 l 304 -324 m 304 833 l 304 1219 l 529 1219 l 529 833 l 304 833 z "},"┈":{"ha":833,"x_min":26,"x_max":808,"o":"m 651 385 l 651 510 l 808 510 l 808 385 l 651 385 m 26 385 l 26 510 l 183 510 l 183 385 l 26 385 m 235 385 l 235 510 l 391 510 l 391 385 l 235 385 m 443 385 l 443 510 l 599 510 l 599 385 l 443 385 z "},"┉":{"ha":833,"x_min":26,"x_max":808,"o":"m 651 335 l 651 560 l 808 560 l 808 335 l 651 335 m 26 335 l 26 560 l 183 560 l 183 335 l 26 335 m 235 335 l 235 560 l 391 560 l 391 335 l 235 335 m 443 335 l 443 560 l 599 560 l 599 335 l 443 335 z "},"┊":{"ha":833,"x_min":354,"x_max":479,"o":"m 354 935 l 354 1261 l 479 1261 l 479 935 l 354 935 m 354 -367 l 354 -41 l 479 -41 l 479 -367 l 354 -367 m 354 67 l 354 393 l 479 393 l 479 67 l 354 67 m 354 501 l 354 827 l 479 827 l 479 501 l 354 501 z "},"┋":{"ha":833,"x_min":304,"x_max":529,"o":"m 304 935 l 304 1261 l 529 1261 l 529 935 l 304 935 m 304 -367 l 304 -41 l 529 -41 l 529 -367 l 304 -367 m 304 67 l 304 393 l 529 393 l 529 67 l 304 67 m 304 501 l 304 827 l 529 827 l 529 501 l 304 501 z "},"┌":{"ha":833,"x_min":354,"x_max":896,"o":"m 354 -456 l 354 510 l 896 510 l 896 385 l 479 385 l 479 -456 l 354 -456 z "},"┍":{"ha":833,"x_min":354,"x_max":896,"o":"m 354 -456 l 354 560 l 896 560 l 896 335 l 479 335 l 479 -456 l 354 -456 z "},"┎":{"ha":833,"x_min":304,"x_max":896,"o":"m 304 -456 l 304 510 l 896 510 l 896 385 l 529 385 l 529 -456 l 304 -456 z "},"┏":{"ha":833,"x_min":304,"x_max":896,"o":"m 304 -456 l 304 560 l 896 560 l 896 335 l 529 335 l 529 -456 l 304 -456 z "},"┐":{"ha":833,"x_min":-62,"x_max":479,"o":"m 354 -456 l 354 385 l -62 385 l -62 510 l 479 510 l 479 -456 l 354 -456 z "},"┑":{"ha":833,"x_min":-62,"x_max":479,"o":"m 354 -456 l 354 335 l -62 335 l -62 560 l 479 560 l 479 -456 l 354 -456 z "},"┒":{"ha":833,"x_min":-62,"x_max":529,"o":"m 304 -456 l 304 385 l -62 385 l -62 510 l 529 510 l 529 -456 l 304 -456 z "},"┓":{"ha":833,"x_min":-62,"x_max":529,"o":"m 304 -456 l 304 335 l -62 335 l -62 560 l 529 560 l 529 -456 l 304 -456 z "},"└":{"ha":833,"x_min":354,"x_max":896,"o":"m 354 385 l 354 1350 l 479 1350 l 479 510 l 896 510 l 896 385 l 354 385 z "},"┕":{"ha":833,"x_min":354,"x_max":896,"o":"m 354 335 l 354 1350 l 479 1350 l 479 560 l 896 560 l 896 335 l 354 335 z "},"┖":{"ha":833,"x_min":304,"x_max":896,"o":"m 304 385 l 304 1350 l 529 1350 l 529 510 l 896 510 l 896 385 l 304 385 z "},"┗":{"ha":833,"x_min":304,"x_max":896,"o":"m 304 335 l 304 1350 l 529 1350 l 529 560 l 896 560 l 896 335 l 304 335 z "},"┘":{"ha":833,"x_min":-62,"x_max":479,"o":"m -62 385 l -62 510 l 354 510 l 354 1350 l 479 1350 l 479 385 l -62 385 z "},"┙":{"ha":833,"x_min":-62,"x_max":479,"o":"m -62 335 l -62 560 l 354 560 l 354 1350 l 479 1350 l 479 335 l -62 335 z "},"┚":{"ha":833,"x_min":-62,"x_max":529,"o":"m -62 385 l -62 510 l 304 510 l 304 1350 l 529 1350 l 529 385 l -62 385 z "},"┛":{"ha":833,"x_min":-62,"x_max":529,"o":"m -62 335 l -62 560 l 304 560 l 304 1350 l 529 1350 l 529 335 l -62 335 z "},"├":{"ha":833,"x_min":354,"x_max":896,"o":"m 354 -456 l 354 1350 l 479 1350 l 479 510 l 896 510 l 896 385 l 479 385 l 479 -456 l 354 -456 z "},"┝":{"ha":833,"x_min":354,"x_max":896,"o":"m 354 -456 l 354 1350 l 479 1350 l 479 560 l 896 560 l 896 335 l 479 335 l 479 -456 l 354 -456 z "},"┞":{"ha":833,"x_min":304,"x_max":896,"o":"m 354 -456 l 354 385 l 304 385 l 304 1350 l 529 1350 l 529 510 l 896 510 l 896 385 l 479 385 l 479 -456 l 354 -456 z "},"┟":{"ha":833,"x_min":304,"x_max":896,"o":"m 304 -456 l 304 510 l 354 510 l 354 1350 l 479 1350 l 479 510 l 896 510 l 896 385 l 529 385 l 529 -456 l 304 -456 z "},"┠":{"ha":833,"x_min":304,"x_max":896,"o":"m 304 -456 l 304 1350 l 529 1350 l 529 510 l 896 510 l 896 385 l 529 385 l 529 -456 l 304 -456 z "},"┡":{"ha":833,"x_min":304,"x_max":896,"o":"m 354 -456 l 354 335 l 304 335 l 304 1350 l 529 1350 l 529 560 l 896 560 l 896 335 l 479 335 l 479 -456 l 354 -456 z "},"┢":{"ha":833,"x_min":304,"x_max":896,"o":"m 304 -456 l 304 560 l 354 560 l 354 1350 l 479 1350 l 479 560 l 896 560 l 896 335 l 529 335 l 529 -456 l 304 -456 z "},"┣":{"ha":833,"x_min":304,"x_max":896,"o":"m 304 -456 l 304 1350 l 529 1350 l 529 560 l 896 560 l 896 335 l 529 335 l 529 -456 l 304 -456 z "},"┤":{"ha":833,"x_min":-62,"x_max":479,"o":"m 354 -456 l 354 385 l -62 385 l -62 510 l 354 510 l 354 1350 l 479 1350 l 479 -456 l 354 -456 z "},"┥":{"ha":833,"x_min":-62,"x_max":479,"o":"m 354 -456 l 354 335 l -62 335 l -62 560 l 354 560 l 354 1350 l 479 1350 l 479 -456 l 354 -456 z "},"┦":{"ha":833,"x_min":-62,"x_max":529,"o":"m 354 -456 l 354 385 l -62 385 l -62 510 l 304 510 l 304 1350 l 529 1350 l 529 385 l 479 385 l 479 -456 l 354 -456 z "},"┧":{"ha":833,"x_min":-62,"x_max":529,"o":"m 304 -456 l 304 385 l -62 385 l -62 510 l 354 510 l 354 1350 l 479 1350 l 479 510 l 529 510 l 529 -456 l 304 -456 z "},"┨":{"ha":833,"x_min":-62,"x_max":529,"o":"m 304 -456 l 304 385 l -62 385 l -62 510 l 304 510 l 304 1350 l 529 1350 l 529 -456 l 304 -456 z "},"┩":{"ha":833,"x_min":-62,"x_max":529,"o":"m 354 -456 l 354 335 l -62 335 l -62 560 l 304 560 l 304 1350 l 529 1350 l 529 335 l 479 335 l 479 -456 l 354 -456 z "},"┪":{"ha":833,"x_min":-62,"x_max":529,"o":"m 304 -456 l 304 335 l -62 335 l -62 560 l 354 560 l 354 1350 l 479 1350 l 479 560 l 529 560 l 529 -456 l 304 -456 z "},"┫":{"ha":833,"x_min":-62,"x_max":529,"o":"m 304 -456 l 304 335 l -62 335 l -62 560 l 304 560 l 304 1350 l 529 1350 l 529 -456 l 304 -456 z "},"┬":{"ha":833,"x_min":-62,"x_max":896,"o":"m 354 -456 l 354 385 l -62 385 l -62 510 l 896 510 l 896 385 l 479 385 l 479 -456 l 354 -456 z "},"┭":{"ha":833,"x_min":-62,"x_max":896,"o":"m 354 -456 l 354 335 l -62 335 l -62 560 l 479 560 l 479 510 l 896 510 l 896 385 l 479 385 l 479 -456 l 354 -456 z "},"┮":{"ha":833,"x_min":-62,"x_max":896,"o":"m 354 -456 l 354 385 l -62 385 l -62 510 l 354 510 l 354 560 l 896 560 l 896 335 l 479 335 l 479 -456 l 354 -456 z "},"┯":{"ha":833,"x_min":-62,"x_max":896,"o":"m 354 -456 l 354 335 l -62 335 l -62 560 l 896 560 l 896 335 l 479 335 l 479 -456 l 354 -456 z "},"┰":{"ha":833,"x_min":-62,"x_max":896,"o":"m 304 -456 l 304 385 l -62 385 l -62 510 l 896 510 l 896 385 l 529 385 l 529 -456 l 304 -456 z "},"┱":{"ha":833,"x_min":-62,"x_max":896,"o":"m 304 -456 l 304 335 l -62 335 l -62 560 l 529 560 l 529 510 l 896 510 l 896 385 l 529 385 l 529 -456 l 304 -456 z "},"┲":{"ha":833,"x_min":-62,"x_max":896,"o":"m 304 -456 l 304 385 l -62 385 l -62 510 l 304 510 l 304 560 l 896 560 l 896 335 l 529 335 l 529 -456 l 304 -456 z "},"┳":{"ha":833,"x_min":-62,"x_max":896,"o":"m 304 -456 l 304 335 l -62 335 l -62 560 l 896 560 l 896 335 l 529 335 l 529 -456 l 304 -456 z "},"┴":{"ha":833,"x_min":-62,"x_max":896,"o":"m -62 385 l -62 510 l 354 510 l 354 1350 l 479 1350 l 479 510 l 896 510 l 896 385 l -62 385 z "},"┵":{"ha":833,"x_min":-62,"x_max":896,"o":"m -62 335 l -62 560 l 354 560 l 354 1350 l 479 1350 l 479 510 l 896 510 l 896 385 l 479 385 l 479 335 l -62 335 z "},"┶":{"ha":833,"x_min":-62,"x_max":896,"o":"m 354 335 l 354 385 l -62 385 l -62 510 l 354 510 l 354 1350 l 479 1350 l 479 560 l 896 560 l 896 335 l 354 335 z "},"┷":{"ha":833,"x_min":-62,"x_max":896,"o":"m -62 335 l -62 560 l 354 560 l 354 1350 l 479 1350 l 479 560 l 896 560 l 896 335 l -62 335 z "},"┸":{"ha":833,"x_min":-62,"x_max":896,"o":"m -62 385 l -62 510 l 304 510 l 304 1350 l 529 1350 l 529 510 l 896 510 l 896 385 l -62 385 z "},"┹":{"ha":833,"x_min":-62,"x_max":896,"o":"m -62 335 l -62 560 l 304 560 l 304 1350 l 529 1350 l 529 510 l 896 510 l 896 385 l 529 385 l 529 335 l -62 335 z "},"┺":{"ha":833,"x_min":-62,"x_max":896,"o":"m 304 335 l 304 385 l -62 385 l -62 510 l 304 510 l 304 1350 l 529 1350 l 529 560 l 896 560 l 896 335 l 304 335 z "},"┻":{"ha":833,"x_min":-62,"x_max":896,"o":"m -62 335 l -62 560 l 304 560 l 304 1350 l 529 1350 l 529 560 l 896 560 l 896 335 l -62 335 z "},"┼":{"ha":833,"x_min":-62,"x_max":896,"o":"m 354 -456 l 354 385 l -62 385 l -62 510 l 354 510 l 354 1350 l 479 1350 l 479 510 l 896 510 l 896 385 l 479 385 l 479 -456 l 354 -456 z "},"┽":{"ha":833,"x_min":-62,"x_max":896,"o":"m 354 -456 l 354 335 l -62 335 l -62 560 l 354 560 l 354 1350 l 479 1350 l 479 510 l 896 510 l 896 385 l 479 385 l 479 -456 l 354 -456 z "},"┾":{"ha":833,"x_min":-62,"x_max":896,"o":"m 354 -456 l 354 385 l -62 385 l -62 510 l 354 510 l 354 1350 l 479 1350 l 479 560 l 896 560 l 896 335 l 479 335 l 479 -456 l 354 -456 z "},"┿":{"ha":833,"x_min":-62,"x_max":896,"o":"m 354 -456 l 354 335 l -62 335 l -62 560 l 354 560 l 354 1350 l 479 1350 l 479 560 l 896 560 l 896 335 l 479 335 l 479 -456 l 354 -456 z "},"╀":{"ha":833,"x_min":-62,"x_max":896,"o":"m 354 -456 l 354 385 l -62 385 l -62 510 l 304 510 l 304 1350 l 529 1350 l 529 510 l 896 510 l 896 385 l 479 385 l 479 -456 l 354 -456 z "},"╁":{"ha":833,"x_min":-62,"x_max":896,"o":"m 304 -456 l 304 385 l -62 385 l -62 510 l 354 510 l 354 1350 l 479 1350 l 479 510 l 896 510 l 896 385 l 529 385 l 529 -456 l 304 -456 z "},"╂":{"ha":833,"x_min":-62,"x_max":896,"o":"m 304 -456 l 304 385 l -62 385 l -62 510 l 304 510 l 304 1350 l 529 1350 l 529 510 l 896 510 l 896 385 l 529 385 l 529 -456 l 304 -456 z "},"╃":{"ha":833,"x_min":-62,"x_max":896,"o":"m 354 -456 l 354 335 l -62 335 l -62 560 l 304 560 l 304 1350 l 529 1350 l 529 510 l 896 510 l 896 385 l 529 385 l 529 335 l 479 335 l 479 -456 l 354 -456 z "},"╄":{"ha":833,"x_min":-62,"x_max":896,"o":"m 354 -456 l 354 335 l 304 335 l 304 385 l -62 385 l -62 510 l 304 510 l 304 1350 l 529 1350 l 529 560 l 896 560 l 896 335 l 479 335 l 479 -456 l 354 -456 z "},"╅":{"ha":833,"x_min":-62,"x_max":896,"o":"m 304 -456 l 304 335 l -62 335 l -62 560 l 354 560 l 354 1350 l 479 1350 l 479 560 l 529 560 l 529 510 l 896 510 l 896 385 l 529 385 l 529 -456 l 304 -456 z "},"╆":{"ha":833,"x_min":-62,"x_max":896,"o":"m 304 -456 l 304 385 l -62 385 l -62 510 l 304 510 l 304 560 l 354 560 l 354 1350 l 479 1350 l 479 560 l 896 560 l 896 335 l 529 335 l 529 -456 l 304 -456 z "},"╇":{"ha":833,"x_min":-62,"x_max":896,"o":"m 354 -456 l 354 335 l -62 335 l -62 560 l 304 560 l 304 1350 l 529 1350 l 529 560 l 896 560 l 896 335 l 479 335 l 479 -456 l 354 -456 z "},"╈":{"ha":833,"x_min":-62,"x_max":896,"o":"m 304 -456 l 304 335 l -62 335 l -62 560 l 354 560 l 354 1350 l 479 1350 l 479 560 l 896 560 l 896 335 l 529 335 l 529 -456 l 304 -456 z "},"╉":{"ha":833,"x_min":-62,"x_max":896,"o":"m 304 -456 l 304 335 l -62 335 l -62 560 l 304 560 l 304 1350 l 529 1350 l 529 510 l 896 510 l 896 385 l 529 385 l 529 -456 l 304 -456 z "},"╊":{"ha":833,"x_min":-62,"x_max":896,"o":"m 304 -456 l 304 385 l -62 385 l -62 510 l 304 510 l 304 1350 l 529 1350 l 529 560 l 896 560 l 896 335 l 529 335 l 529 -456 l 304 -456 z "},"╋":{"ha":833,"x_min":-62,"x_max":896,"o":"m 304 -456 l 304 335 l -62 335 l -62 560 l 304 560 l 304 1350 l 529 1350 l 529 560 l 896 560 l 896 335 l 529 335 l 529 -456 l 304 -456 z "},"╌":{"ha":833,"x_min":104,"x_max":729,"o":"m 521 385 l 521 510 l 729 510 l 729 385 l 521 385 m 104 385 l 104 510 l 313 510 l 313 385 l 104 385 z "},"╍":{"ha":833,"x_min":104,"x_max":729,"o":"m 521 335 l 521 560 l 729 560 l 729 335 l 521 335 m 104 335 l 104 560 l 313 560 l 313 335 l 104 335 z "},"╎":{"ha":833,"x_min":354,"x_max":479,"o":"m 354 665 l 354 1099 l 479 1099 l 479 665 l 354 665 m 354 -203 l 354 231 l 479 231 l 479 -203 l 354 -203 z "},"╏":{"ha":833,"x_min":304,"x_max":529,"o":"m 304 665 l 304 1099 l 529 1099 l 529 665 l 304 665 m 304 -203 l 304 231 l 529 231 l 529 -203 l 304 -203 z "},"═":{"ha":833,"x_min":-62,"x_max":896,"o":"m -62 510 l -62 635 l 896 635 l 896 510 l -62 510 m -62 260 l -62 385 l 896 385 l 896 260 l -62 260 z "},"║":{"ha":833,"x_min":229,"x_max":604,"o":"m 479 -456 l 479 1350 l 604 1350 l 604 -456 l 479 -456 m 229 -456 l 229 1350 l 354 1350 l 354 -456 l 229 -456 z "},"╒":{"ha":833,"x_min":354,"x_max":896,"o":"m 354 -456 l 354 635 l 896 635 l 896 510 l 479 510 l 479 385 l 896 385 l 896 260 l 479 260 l 479 -456 l 354 -456 z "},"╓":{"ha":833,"x_min":229,"x_max":896,"o":"m 229 -456 l 229 510 l 896 510 l 896 385 l 604 385 l 604 -456 l 479 -456 l 479 385 l 354 385 l 354 -456 l 229 -456 z "},"╔":{"ha":833,"x_min":229,"x_max":896,"o":"m 229 -456 l 229 635 l 896 635 l 896 510 l 354 510 l 354 -456 l 229 -456 m 479 -456 l 479 385 l 896 385 l 896 260 l 604 260 l 604 -456 l 479 -456 z "},"╕":{"ha":833,"x_min":-62,"x_max":479,"o":"m 354 -456 l 354 260 l -62 260 l -62 385 l 354 385 l 354 510 l -62 510 l -62 635 l 479 635 l 479 -456 l 354 -456 z "},"╖":{"ha":833,"x_min":-62,"x_max":604,"o":"m 229 -456 l 229 385 l -62 385 l -62 510 l 604 510 l 604 -456 l 479 -456 l 479 385 l 354 385 l 354 -456 l 229 -456 z "},"╗":{"ha":833,"x_min":-62,"x_max":604,"o":"m 479 -456 l 479 510 l -62 510 l -62 635 l 604 635 l 604 -456 l 479 -456 m 229 -456 l 229 260 l -62 260 l -62 385 l 354 385 l 354 -456 l 229 -456 z "},"╘":{"ha":833,"x_min":354,"x_max":896,"o":"m 354 260 l 354 1350 l 479 1350 l 479 635 l 896 635 l 896 510 l 479 510 l 479 385 l 896 385 l 896 260 l 354 260 z "},"╙":{"ha":833,"x_min":229,"x_max":896,"o":"m 229 385 l 229 1350 l 354 1350 l 354 510 l 479 510 l 479 1350 l 604 1350 l 604 510 l 896 510 l 896 385 l 229 385 z "},"╚":{"ha":833,"x_min":229,"x_max":896,"o":"m 229 260 l 229 1350 l 354 1350 l 354 385 l 896 385 l 896 260 l 229 260 m 479 510 l 479 1350 l 604 1350 l 604 635 l 896 635 l 896 510 l 479 510 z "},"╛":{"ha":833,"x_min":-62,"x_max":479,"o":"m -62 260 l -62 385 l 354 385 l 354 510 l -62 510 l -62 635 l 354 635 l 354 1350 l 479 1350 l 479 260 l -62 260 z "},"╜":{"ha":833,"x_min":-62,"x_max":604,"o":"m -62 385 l -62 510 l 229 510 l 229 1350 l 354 1350 l 354 510 l 479 510 l 479 1350 l 604 1350 l 604 385 l -62 385 z "},"╝":{"ha":833,"x_min":-62,"x_max":604,"o":"m -62 260 l -62 385 l 479 385 l 479 1350 l 604 1350 l 604 260 l -62 260 m -62 510 l -62 635 l 229 635 l 229 1350 l 354 1350 l 354 510 l -62 510 z "},"╞":{"ha":833,"x_min":354,"x_max":896,"o":"m 354 -456 l 354 1350 l 479 1350 l 479 635 l 896 635 l 896 510 l 479 510 l 479 385 l 896 385 l 896 260 l 479 260 l 479 -456 l 354 -456 z "},"╟":{"ha":833,"x_min":229,"x_max":896,"o":"m 479 -456 l 479 1350 l 604 1350 l 604 510 l 896 510 l 896 385 l 604 385 l 604 -456 l 479 -456 m 229 -456 l 229 1350 l 354 1350 l 354 -456 l 229 -456 z "},"╠":{"ha":833,"x_min":229,"x_max":896,"o":"m 479 510 l 479 1350 l 604 1350 l 604 635 l 896 635 l 896 510 l 479 510 m 479 -456 l 479 385 l 896 385 l 896 260 l 604 260 l 604 -456 l 479 -456 m 229 -456 l 229 1350 l 354 1350 l 354 -456 l 229 -456 z "},"╡":{"ha":833,"x_min":-62,"x_max":479,"o":"m 354 -456 l 354 260 l -62 260 l -62 385 l 354 385 l 354 510 l -62 510 l -62 635 l 354 635 l 354 1350 l 479 1350 l 479 -456 l 354 -456 z "},"╢":{"ha":833,"x_min":-62,"x_max":604,"o":"m 229 -456 l 229 385 l -62 385 l -62 510 l 229 510 l 229 1350 l 354 1350 l 354 -456 l 229 -456 m 479 -456 l 479 1350 l 604 1350 l 604 -456 l 479 -456 z "},"╣":{"ha":833,"x_min":-62,"x_max":604,"o":"m -62 510 l -62 635 l 229 635 l 229 1350 l 354 1350 l 354 510 l -62 510 m 229 -456 l 229 260 l -62 260 l -62 385 l 354 385 l 354 -456 l 229 -456 m 479 -456 l 479 1350 l 604 1350 l 604 -456 l 479 -456 z "},"╤":{"ha":833,"x_min":-62,"x_max":896,"o":"m 354 -456 l 354 260 l -62 260 l -62 385 l 896 385 l 896 260 l 479 260 l 479 -456 l 354 -456 m -62 510 l -62 635 l 896 635 l 896 510 l -62 510 z "},"╥":{"ha":833,"x_min":-62,"x_max":896,"o":"m 229 -456 l 229 385 l -62 385 l -62 510 l 896 510 l 896 385 l 604 385 l 604 -456 l 479 -456 l 479 385 l 354 385 l 354 -456 l 229 -456 z "},"╦":{"ha":833,"x_min":-62,"x_max":896,"o":"m 479 -456 l 479 385 l 896 385 l 896 260 l 604 260 l 604 -456 l 479 -456 m 229 -456 l 229 260 l -62 260 l -62 385 l 354 385 l 354 -456 l 229 -456 m -62 510 l -62 635 l 896 635 l 896 510 l -62 510 z "},"╧":{"ha":833,"x_min":-62,"x_max":896,"o":"m -62 510 l -62 635 l 354 635 l 354 1350 l 479 1350 l 479 635 l 896 635 l 896 510 l -62 510 m -62 260 l -62 385 l 896 385 l 896 260 l -62 260 z "},"╨":{"ha":833,"x_min":-62,"x_max":896,"o":"m -62 385 l -62 510 l 229 510 l 229 1350 l 354 1350 l 354 510 l 479 510 l 479 1350 l 604 1350 l 604 510 l 896 510 l 896 385 l -62 385 z "},"╩":{"ha":833,"x_min":-62,"x_max":896,"o":"m 479 510 l 479 1350 l 604 1350 l 604 635 l 896 635 l 896 510 l 479 510 m -62 260 l -62 385 l 896 385 l 896 260 l -62 260 m -62 510 l -62 635 l 229 635 l 229 1350 l 354 1350 l 354 510 l -62 510 z "},"╪":{"ha":833,"x_min":-62,"x_max":896,"o":"m 354 -456 l 354 260 l -62 260 l -62 385 l 354 385 l 354 510 l -62 510 l -62 635 l 354 635 l 354 1350 l 479 1350 l 479 635 l 896 635 l 896 510 l 479 510 l 479 385 l 896 385 l 896 260 l 479 260 l 479 -456 l 354 -456 z "},"╫":{"ha":833,"x_min":-62,"x_max":896,"o":"m 229 -456 l 229 385 l -62 385 l -62 510 l 229 510 l 229 1350 l 354 1350 l 354 510 l 479 510 l 479 1350 l 604 1350 l 604 510 l 896 510 l 896 385 l 604 385 l 604 -456 l 479 -456 l 479 385 l 354 385 l 354 -456 l 229 -456 z "},"╬":{"ha":833,"x_min":-62,"x_max":896,"o":"m 479 510 l 479 1350 l 604 1350 l 604 635 l 896 635 l 896 510 l 479 510 m 229 -456 l 229 260 l -62 260 l -62 385 l 354 385 l 354 -456 l 229 -456 m 479 -456 l 479 385 l 896 385 l 896 260 l 604 260 l 604 -456 l 479 -456 m -62 510 l -62 635 l 229 635 l 229 1350 l 354 1350 l 354 510 l -62 510 z "},"╭":{"ha":833,"x_min":354,"x_max":896,"o":"m 354 -456 l 354 93 q 405 314 354 221 q 550 459 456 408 q 771 510 643 510 l 896 510 l 896 385 l 771 385 q 557 307 635 385 q 479 93 479 230 l 479 -456 l 354 -456 z "},"╮":{"ha":833,"x_min":-62,"x_max":479,"o":"m 354 -456 l 354 93 q 277 307 354 230 q 63 385 199 385 l -62 385 l -62 510 l 63 510 q 284 459 190 510 q 428 314 377 408 q 479 93 479 221 l 479 -456 l 354 -456 z "},"╯":{"ha":833,"x_min":-62,"x_max":479,"o":"m -62 385 l -62 510 l 63 510 q 277 588 199 510 q 354 801 354 665 l 354 1350 l 479 1350 l 479 801 q 428 580 479 674 q 284 436 377 487 q 63 385 190 385 l -62 385 z "},"╰":{"ha":833,"x_min":354,"x_max":896,"o":"m 771 385 q 550 436 643 385 q 405 580 456 487 q 354 801 354 674 l 354 1350 l 479 1350 l 479 801 q 557 588 479 665 q 771 510 635 510 l 896 510 l 896 385 l 771 385 z "},"╱":{"ha":833,"x_min":0,"x_max":833,"o":"m 0 -421 l 0 -276 l 764 1315 l 833 1315 l 833 1171 l 69 -421 l 0 -421 z "},"╲":{"ha":833,"x_min":0,"x_max":833,"o":"m 764 -421 l 0 1171 l 0 1315 l 69 1315 l 833 -276 l 833 -421 l 764 -421 z "},"╳":{"ha":833,"x_min":0,"x_max":833,"o":"m 0 -421 l 0 -276 l 347 447 l 0 1171 l 0 1315 l 69 1315 l 417 592 l 764 1315 l 833 1315 l 833 1171 l 486 447 l 833 -276 l 833 -421 l 764 -421 l 417 303 l 69 -421 l 0 -421 z "},"╴":{"ha":833,"x_min":-62,"x_max":479,"o":"m -62 385 l -62 510 l 479 510 l 479 385 l -62 385 z "},"╵":{"ha":833,"x_min":354,"x_max":479,"o":"m 354 385 l 354 1350 l 479 1350 l 479 385 l 354 385 z "},"╶":{"ha":833,"x_min":354,"x_max":896,"o":"m 354 385 l 354 510 l 896 510 l 896 385 l 354 385 z "},"╷":{"ha":833,"x_min":354,"x_max":479,"o":"m 354 -456 l 354 510 l 479 510 l 479 -456 l 354 -456 z "},"╸":{"ha":833,"x_min":-62,"x_max":479,"o":"m -62 335 l -62 560 l 479 560 l 479 335 l -62 335 z "},"╹":{"ha":833,"x_min":304,"x_max":529,"o":"m 304 385 l 304 1350 l 529 1350 l 529 385 l 304 385 z "},"╺":{"ha":833,"x_min":354,"x_max":896,"o":"m 354 335 l 354 560 l 896 560 l 896 335 l 354 335 z "},"╻":{"ha":833,"x_min":304,"x_max":529,"o":"m 304 -456 l 304 510 l 529 510 l 529 -456 l 304 -456 z "},"╼":{"ha":833,"x_min":-62,"x_max":896,"o":"m 354 335 l 354 385 l -62 385 l -62 510 l 354 510 l 354 560 l 896 560 l 896 335 l 354 335 z "},"╽":{"ha":833,"x_min":304,"x_max":529,"o":"m 304 -456 l 304 510 l 354 510 l 354 1350 l 479 1350 l 479 510 l 529 510 l 529 -456 l 304 -456 z "},"╾":{"ha":833,"x_min":-62,"x_max":896,"o":"m -62 335 l -62 560 l 479 560 l 479 510 l 896 510 l 896 385 l 479 385 l 479 335 l -62 335 z "},"╿":{"ha":833,"x_min":304,"x_max":529,"o":"m 354 -456 l 354 385 l 304 385 l 304 1350 l 529 1350 l 529 385 l 479 385 l 479 -456 l 354 -456 z "},"▀":{"ha":833,"x_min":0,"x_max":833,"o":"m 0 447 l 0 1350 l 833 1350 l 833 447 l 0 447 z "},"▁":{"ha":833,"x_min":0,"x_max":833,"o":"m 0 -456 l 0 -230 l 833 -230 l 833 -456 l 0 -456 z "},"▂":{"ha":833,"x_min":0,"x_max":833,"o":"m 0 -456 l 0 -4 l 833 -4 l 833 -456 l 0 -456 z "},"▃":{"ha":833,"x_min":0,"x_max":833,"o":"m 0 -456 l 0 222 l 833 222 l 833 -456 l 0 -456 z "},"▄":{"ha":833,"x_min":0,"x_max":833,"o":"m 0 -456 l 0 447 l 833 447 l 833 -456 l 0 -456 z "},"▅":{"ha":833,"x_min":0,"x_max":833,"o":"m 0 -456 l 0 673 l 833 673 l 833 -456 l 0 -456 z "},"▆":{"ha":833,"x_min":0,"x_max":833,"o":"m 0 -456 l 0 899 l 833 899 l 833 -456 l 0 -456 z "},"▇":{"ha":833,"x_min":0,"x_max":833,"o":"m 0 -456 l 0 1124 l 833 1124 l 833 -456 l 0 -456 z "},"█":{"ha":833,"x_min":0,"x_max":833,"o":"m 0 -456 l 0 1350 l 833 1350 l 833 -456 l 0 -456 z "},"▉":{"ha":833,"x_min":0,"x_max":729,"o":"m 0 -456 l 0 1350 l 729 1350 l 729 -456 l 0 -456 z "},"▊":{"ha":833,"x_min":0,"x_max":625,"o":"m 0 -456 l 0 1350 l 625 1350 l 625 -456 l 0 -456 z "},"▋":{"ha":833,"x_min":0,"x_max":521,"o":"m 0 -456 l 0 1350 l 521 1350 l 521 -456 l 0 -456 z "},"▌":{"ha":833,"x_min":0,"x_max":417,"o":"m 0 -456 l 0 1350 l 417 1350 l 417 -456 l 0 -456 z "},"▍":{"ha":833,"x_min":0,"x_max":313,"o":"m 0 -456 l 0 1350 l 313 1350 l 313 -456 l 0 -456 z "},"▎":{"ha":833,"x_min":0,"x_max":208,"o":"m 0 -456 l 0 1350 l 208 1350 l 208 -456 l 0 -456 z "},"▏":{"ha":833,"x_min":0,"x_max":104,"o":"m 0 -456 l 0 1350 l 104 1350 l 104 -456 l 0 -456 z "},"▐":{"ha":833,"x_min":417,"x_max":833,"o":"m 417 -456 l 417 1350 l 833 1350 l 833 -456 l 417 -456 z "},"░":{"ha":833,"x_min":33,"x_max":800,"o":"m 738 1192 l 738 1255 l 800 1255 l 800 1192 l 738 1192 m 33 -422 l 33 -360 l 96 -360 l 96 -422 l 33 -422 m 33 -174 l 33 -111 l 96 -111 l 96 -174 l 33 -174 m 175 -298 l 175 -235 l 238 -235 l 238 -298 l 175 -298 m 315 -422 l 315 -360 l 378 -360 l 378 -422 l 315 -422 m 33 74 l 33 137 l 96 137 l 96 74 l 33 74 m 175 -49 l 175 13 l 238 13 l 238 -49 l 175 -49 m 315 -174 l 315 -111 l 378 -111 l 378 -174 l 315 -174 m 456 -298 l 456 -235 l 519 -235 l 519 -298 l 456 -298 m 597 -422 l 597 -360 l 659 -360 l 659 -422 l 597 -422 m 33 323 l 33 385 l 96 385 l 96 323 l 33 323 m 175 199 l 175 261 l 238 261 l 238 199 l 175 199 m 315 74 l 315 137 l 378 137 l 378 74 l 315 74 m 456 -49 l 456 13 l 519 13 l 519 -49 l 456 -49 m 597 -174 l 597 -111 l 659 -111 l 659 -174 l 597 -174 m 738 -298 l 738 -235 l 800 -235 l 800 -298 l 738 -298 m 33 572 l 33 634 l 96 634 l 96 572 l 33 572 m 175 447 l 175 510 l 238 510 l 238 447 l 175 447 m 315 323 l 315 385 l 378 385 l 378 323 l 315 323 m 456 199 l 456 261 l 519 261 l 519 199 l 456 199 m 597 74 l 597 137 l 659 137 l 659 74 l 597 74 m 738 -49 l 738 13 l 800 13 l 800 -49 l 738 -49 m 33 820 l 33 883 l 96 883 l 96 820 l 33 820 m 175 696 l 175 758 l 238 758 l 238 696 l 175 696 m 315 572 l 315 634 l 378 634 l 378 572 l 315 572 m 456 447 l 456 510 l 519 510 l 519 447 l 456 447 m 597 323 l 597 385 l 659 385 l 659 323 l 597 323 m 738 199 l 738 261 l 800 261 l 800 199 l 738 199 m 33 1068 l 33 1131 l 96 1131 l 96 1068 l 33 1068 m 175 944 l 175 1006 l 238 1006 l 238 944 l 175 944 m 315 819 l 315 882 l 378 882 l 378 819 l 315 819 m 456 695 l 456 758 l 519 758 l 519 695 l 456 695 m 597 572 l 597 634 l 659 634 l 659 572 l 597 572 m 738 447 l 738 510 l 800 510 l 800 447 l 738 447 m 175 1192 l 175 1255 l 238 1255 l 238 1192 l 175 1192 m 315 1068 l 315 1131 l 378 1131 l 378 1068 l 315 1068 m 456 944 l 456 1007 l 519 1007 l 519 944 l 456 944 m 597 819 l 597 882 l 659 882 l 659 819 l 597 819 m 738 695 l 738 758 l 800 758 l 800 695 l 738 695 m 456 1192 l 456 1255 l 519 1255 l 519 1192 l 456 1192 m 597 1068 l 597 1131 l 659 1131 l 659 1068 l 597 1068 m 738 944 l 738 1007 l 800 1007 l 800 944 l 738 944 z "},"▒":{"ha":833,"x_min":6,"x_max":828,"o":"m 6 819 l 6 947 l 133 947 l 133 819 l 6 819 m 6 571 l 6 698 l 133 698 l 133 571 l 6 571 m 6 322 l 6 450 l 133 450 l 133 322 l 6 322 m 6 74 l 6 201 l 133 201 l 133 74 l 6 74 m 6 -174 l 6 -46 l 133 -46 l 133 -174 l 6 -174 m 145 1190 l 145 1317 l 273 1317 l 273 1190 l 145 1190 m 145 944 l 145 1072 l 273 1072 l 273 944 l 145 944 m 145 695 l 145 823 l 273 823 l 273 695 l 145 695 m 145 447 l 145 575 l 273 575 l 273 447 l 145 447 m 145 199 l 145 326 l 273 326 l 273 199 l 145 199 m 145 -50 l 145 78 l 273 78 l 273 -50 l 145 -50 m 145 -299 l 145 -171 l 273 -171 l 273 -299 l 145 -299 m 283 1067 l 283 1194 l 410 1194 l 410 1067 l 283 1067 m 283 819 l 283 947 l 411 947 l 411 819 l 283 819 m 283 571 l 283 698 l 411 698 l 411 571 l 283 571 m 283 322 l 283 450 l 411 450 l 411 322 l 283 322 m 283 74 l 283 202 l 411 202 l 411 74 l 283 74 m 283 -174 l 283 -47 l 411 -47 l 411 -174 l 283 -174 m 422 1190 l 422 1317 l 550 1317 l 550 1190 l 422 1190 m 423 942 l 423 1070 l 551 1070 l 551 942 l 423 942 m 423 694 l 423 822 l 551 822 l 551 694 l 423 694 m 423 446 l 423 574 l 551 574 l 551 446 l 423 446 m 423 199 l 423 326 l 551 326 l 551 199 l 423 199 m 423 -51 l 423 77 l 551 77 l 551 -51 l 423 -51 m 423 -299 l 423 -171 l 551 -171 l 551 -299 l 423 -299 m 561 1067 l 561 1194 l 688 1194 l 688 1067 l 561 1067 m 561 819 l 561 947 l 688 947 l 688 819 l 561 819 m 561 571 l 561 698 l 688 698 l 688 571 l 561 571 m 561 322 l 561 450 l 688 450 l 688 322 l 561 322 m 561 74 l 561 202 l 688 202 l 688 74 l 561 74 m 561 -174 l 561 -47 l 688 -47 l 688 -174 l 561 -174 m 701 1190 l 701 1317 l 828 1317 l 828 1190 l 701 1190 m 701 942 l 701 1070 l 828 1070 l 828 942 l 701 942 m 701 694 l 701 822 l 828 822 l 828 694 l 701 694 m 701 446 l 701 574 l 828 574 l 828 446 l 701 446 m 701 199 l 701 326 l 828 326 l 828 199 l 701 199 m 701 -51 l 701 77 l 828 77 l 828 -51 l 701 -51 m 701 -299 l 701 -171 l 828 -171 l 828 -299 l 701 -299 m 6 -422 l 6 -294 l 133 -294 l 133 -422 l 6 -422 m 283 -422 l 283 -294 l 411 -294 l 411 -422 l 283 -422 m 561 -422 l 561 -294 l 688 -294 l 688 -422 l 561 -422 m 6 1067 l 6 1194 l 133 1194 l 133 1067 l 6 1067 z "},"▓":{"ha":833,"x_min":-4,"x_max":838,"o":"m -4 -422 l -4 1317 l 838 1317 l 838 -422 l -4 -422 m 29 -422 l 108 -422 l 108 -343 l 29 -343 l 29 -422 m 29 -174 l 108 -174 l 108 -94 l 29 -94 l 29 -174 m 172 -298 l 251 -298 l 251 -219 l 172 -219 l 172 -298 m 306 -422 l 385 -422 l 385 -343 l 306 -343 l 306 -422 m 29 74 l 108 74 l 108 153 l 29 153 l 29 74 m 172 -49 l 251 -49 l 251 30 l 172 30 l 172 -49 m 306 -174 l 385 -174 l 385 -94 l 306 -94 l 306 -174 m 449 -298 l 528 -298 l 528 -219 l 449 -219 l 449 -298 m 583 -422 l 662 -422 l 662 -343 l 583 -343 l 583 -422 m 29 323 l 108 323 l 108 402 l 29 402 l 29 323 m 172 199 l 251 199 l 251 278 l 172 278 l 172 199 m 306 74 l 385 74 l 385 153 l 306 153 l 306 74 m 449 -49 l 528 -49 l 528 30 l 449 30 l 449 -49 m 583 -174 l 662 -174 l 662 -94 l 583 -94 l 583 -174 m 725 -298 l 804 -298 l 804 -219 l 725 -219 l 725 -298 m 29 572 l 108 572 l 108 651 l 29 651 l 29 572 m 172 447 l 251 447 l 251 526 l 172 526 l 172 447 m 306 323 l 385 323 l 385 402 l 306 402 l 306 323 m 449 199 l 528 199 l 528 278 l 449 278 l 449 199 m 583 74 l 662 74 l 662 153 l 583 153 l 583 74 m 725 -49 l 804 -49 l 804 30 l 725 30 l 725 -49 m 29 820 l 108 820 l 108 899 l 29 899 l 29 820 m 172 696 l 251 696 l 251 775 l 172 775 l 172 696 m 306 572 l 385 572 l 385 651 l 306 651 l 306 572 m 449 447 l 528 447 l 528 526 l 449 526 l 449 447 m 583 323 l 662 323 l 662 402 l 583 402 l 583 323 m 725 199 l 804 199 l 804 278 l 725 278 l 725 199 m 29 1068 l 108 1068 l 108 1147 l 29 1147 l 29 1068 m 172 944 l 251 944 l 251 1023 l 172 1023 l 172 944 m 306 819 l 385 819 l 385 899 l 306 899 l 306 819 m 449 696 l 528 696 l 528 775 l 449 775 l 449 696 m 583 572 l 662 572 l 662 651 l 583 651 l 583 572 m 725 447 l 804 447 l 804 526 l 725 526 l 725 447 m 172 1192 l 251 1192 l 251 1272 l 172 1272 l 172 1192 m 306 1068 l 385 1068 l 385 1147 l 306 1147 l 306 1068 m 449 944 l 528 944 l 528 1023 l 449 1023 l 449 944 m 583 820 l 662 820 l 662 899 l 583 899 l 583 820 m 725 696 l 804 696 l 804 775 l 725 775 l 725 696 m 449 1192 l 528 1192 l 528 1272 l 449 1272 l 449 1192 m 583 1068 l 662 1068 l 662 1147 l 583 1147 l 583 1068 m 725 944 l 804 944 l 804 1023 l 725 1023 l 725 944 m 725 1192 l 804 1192 l 804 1272 l 725 1272 l 725 1192 z "},"▔":{"ha":833,"x_min":0,"x_max":833,"o":"m 0 1124 l 0 1350 l 833 1350 l 833 1124 l 0 1124 z "},"▕":{"ha":833,"x_min":729,"x_max":833,"o":"m 729 -456 l 729 1350 l 833 1350 l 833 -456 l 729 -456 z "},"▖":{"ha":833,"x_min":0,"x_max":417,"o":"m 0 -456 l 0 447 l 417 447 l 417 -456 l 0 -456 z "},"▗":{"ha":833,"x_min":417,"x_max":833,"o":"m 417 -456 l 417 447 l 833 447 l 833 -456 l 417 -456 z "},"▘":{"ha":833,"x_min":0,"x_max":417,"o":"m 0 447 l 0 1350 l 417 1350 l 417 447 l 0 447 z "},"▙":{"ha":833,"x_min":0,"x_max":833,"o":"m 0 -456 l 0 1350 l 417 1350 l 417 447 l 833 447 l 833 -456 l 0 -456 z "},"▚":{"ha":833,"x_min":0,"x_max":833,"o":"m 0 447 l 0 1350 l 417 1350 l 417 447 l 0 447 m 417 -456 l 417 447 l 833 447 l 833 -456 l 417 -456 z "},"▛":{"ha":833,"x_min":0,"x_max":833,"o":"m 0 -456 l 0 1350 l 833 1350 l 833 447 l 417 447 l 417 -456 l 0 -456 z "},"▜":{"ha":833,"x_min":0,"x_max":833,"o":"m 417 -456 l 417 447 l 0 447 l 0 1350 l 833 1350 l 833 -456 l 417 -456 z "},"▝":{"ha":833,"x_min":417,"x_max":833,"o":"m 417 447 l 417 1350 l 833 1350 l 833 447 l 417 447 z "},"▞":{"ha":833,"x_min":0,"x_max":833,"o":"m 417 447 l 417 1350 l 833 1350 l 833 447 l 417 447 m 0 -456 l 0 447 l 417 447 l 417 -456 l 0 -456 z "},"▟":{"ha":833,"x_min":0,"x_max":833,"o":"m 0 -456 l 0 447 l 417 447 l 417 1350 l 833 1350 l 833 -456 l 0 -456 z "},"À":{"ha":833,"x_min":40,"x_max":794,"o":"m 40 0 l 349 994 l 486 994 l 794 0 l 658 0 l 446 738 l 418 846 l 414 846 l 385 738 l 175 0 l 40 0 m 176 256 l 213 372 l 619 372 l 656 256 l 176 256 m 358 1138 l 201 1380 l 201 1388 l 356 1388 l 478 1145 l 478 1138 l 358 1138 z "},"Á":{"ha":833,"x_min":40,"x_max":794,"o":"m 40 0 l 349 994 l 486 994 l 794 0 l 658 0 l 446 738 l 418 846 l 414 846 l 385 738 l 175 0 l 40 0 m 176 256 l 213 372 l 619 372 l 656 256 l 176 256 m 358 1138 l 358 1145 l 481 1388 l 635 1388 l 635 1380 l 478 1138 l 358 1138 z "},"Â":{"ha":833,"x_min":40,"x_max":794,"o":"m 40 0 l 349 994 l 486 994 l 794 0 l 658 0 l 446 738 l 418 846 l 414 846 l 385 738 l 175 0 l 40 0 m 176 256 l 213 372 l 619 372 l 656 256 l 176 256 m 162 1138 l 162 1145 l 351 1388 l 485 1388 l 674 1145 l 674 1138 l 538 1138 l 403 1332 l 433 1332 l 298 1138 l 162 1138 z "},"Ã":{"ha":833,"x_min":40,"x_max":794,"o":"m 40 0 l 349 994 l 486 994 l 794 0 l 658 0 l 446 738 l 418 846 l 414 846 l 385 738 l 175 0 l 40 0 m 176 256 l 213 372 l 619 372 l 656 256 l 176 256 m 535 1144 q 466 1163 497 1144 q 395 1228 435 1181 q 351 1272 367 1261 q 317 1283 335 1283 q 272 1213 272 1283 l 272 1147 l 167 1147 l 167 1214 q 204 1342 167 1296 q 306 1389 241 1389 q 373 1371 343 1389 q 442 1304 402 1353 q 485 1261 469 1272 q 519 1250 501 1250 q 564 1321 564 1250 l 564 1386 l 669 1386 l 669 1319 q 634 1191 669 1237 q 535 1144 599 1144 z "},"Ā":{"ha":833,"x_min":40,"x_max":794,"o":"m 40 0 l 349 994 l 486 994 l 794 0 l 658 0 l 446 738 l 418 846 l 414 846 l 385 738 l 175 0 l 40 0 m 176 256 l 213 372 l 619 372 l 656 256 l 176 256 m 198 1199 l 198 1313 l 638 1313 l 638 1199 l 198 1199 z "},"Ä":{"ha":833,"x_min":40,"x_max":794,"o":"m 40 0 l 349 994 l 486 994 l 794 0 l 658 0 l 446 738 l 418 846 l 414 846 l 385 738 l 175 0 l 40 0 m 176 256 l 213 372 l 619 372 l 656 256 l 176 256 m 267 1155 q 195 1184 224 1155 q 165 1256 165 1214 q 195 1328 165 1299 q 267 1358 225 1358 q 340 1328 310 1358 q 369 1257 369 1299 q 340 1184 369 1214 q 267 1155 310 1155 m 569 1155 q 498 1184 527 1155 q 468 1256 468 1214 q 498 1328 468 1299 q 569 1358 528 1358 q 642 1328 613 1358 q 672 1257 672 1299 q 643 1184 672 1214 q 569 1155 613 1155 z "},"Å":{"ha":833,"x_min":40,"x_max":794,"o":"m 40 0 l 349 994 l 486 994 l 794 0 l 658 0 l 446 738 l 418 846 l 414 846 l 385 738 l 175 0 l 40 0 m 176 256 l 213 372 l 619 372 l 656 256 l 176 256 m 418 1073 q 390 1073 418 1073 q 317 1098 362 1073 q 247 1166 273 1123 q 221 1264 221 1210 q 247 1362 221 1319 q 317 1430 273 1405 q 418 1455 362 1455 q 519 1430 474 1455 q 589 1362 563 1405 q 615 1264 615 1319 q 589 1166 615 1210 q 519 1098 563 1123 q 418 1073 474 1073 m 418 1169 q 439 1169 418 1169 q 486 1196 459 1169 q 513 1264 513 1223 q 486 1332 513 1305 q 418 1359 459 1359 q 350 1332 377 1359 q 324 1264 324 1305 q 350 1196 324 1223 q 418 1169 377 1169 z "},"Æ":{"ha":833,"x_min":6,"x_max":822,"o":"m 6 0 l 328 994 l 519 994 l 481 869 l 398 869 l 356 710 l 136 0 l 6 0 m 165 255 l 190 370 l 465 370 l 465 255 l 165 255 m 428 0 l 428 994 l 811 994 l 811 876 l 544 876 l 544 119 l 822 119 l 822 0 l 428 0 m 492 451 l 492 569 l 767 569 l 767 451 l 492 451 z "},"Ǽ":{"ha":833,"x_min":6,"x_max":822,"o":"m 6 0 l 328 994 l 519 994 l 481 869 l 398 869 l 356 710 l 136 0 l 6 0 m 165 255 l 190 370 l 465 370 l 465 255 l 165 255 m 428 0 l 428 994 l 811 994 l 811 876 l 544 876 l 544 119 l 822 119 l 822 0 l 428 0 m 492 451 l 492 569 l 767 569 l 767 451 l 492 451 m 497 1138 l 497 1145 l 619 1388 l 774 1388 l 774 1380 l 616 1138 l 497 1138 z "},"Ă":{"ha":833,"x_min":40,"x_max":794,"o":"m 40 0 l 349 994 l 486 994 l 794 0 l 658 0 l 446 738 l 418 846 l 414 846 l 385 738 l 175 0 l 40 0 m 176 256 l 213 372 l 619 372 l 656 256 l 176 256 m 418 1135 q 383 1135 418 1135 q 293 1166 347 1135 q 207 1251 238 1197 q 176 1378 176 1306 l 176 1388 l 289 1388 l 289 1374 q 324 1275 289 1312 q 418 1238 359 1238 q 513 1275 478 1238 q 547 1374 547 1312 l 547 1388 l 660 1388 l 660 1378 q 629 1251 660 1306 q 544 1166 598 1197 q 418 1135 490 1135 z "},"Ą":{"ha":833,"x_min":40,"x_max":824,"o":"m 40 0 l 349 994 l 486 994 l 794 0 l 658 0 l 446 738 l 418 846 l 414 846 l 385 738 l 175 0 l 40 0 m 176 256 l 213 372 l 619 372 l 656 256 l 176 256 m 705 -371 q 609 -348 651 -371 q 542 -285 566 -325 q 517 -196 517 -246 q 577 -51 517 -115 q 760 60 637 13 l 794 0 q 667 -87 706 -44 q 628 -181 628 -130 q 654 -244 628 -219 q 721 -268 680 -268 q 795 -250 761 -268 l 824 -341 q 705 -371 769 -371 z "},"Ạ":{"ha":833,"x_min":40,"x_max":794,"o":"m 40 0 l 349 994 l 486 994 l 794 0 l 658 0 l 446 738 l 418 846 l 414 846 l 385 738 l 175 0 l 40 0 m 176 256 l 213 372 l 619 372 l 656 256 l 176 256 m 417 -321 q 340 -289 371 -321 q 310 -213 310 -258 q 340 -137 310 -168 q 417 -107 371 -107 q 494 -137 463 -107 q 525 -213 525 -168 q 494 -289 525 -258 q 417 -321 463 -321 z "},"Ả":{"ha":833,"x_min":40,"x_max":794,"o":"m 40 0 l 349 994 l 486 994 l 794 0 l 658 0 l 446 738 l 418 846 l 414 846 l 385 738 l 175 0 l 40 0 m 176 256 l 213 372 l 619 372 l 656 256 l 176 256 m 408 1083 l 392 1183 q 480 1210 451 1190 q 510 1265 510 1231 q 419 1330 510 1330 q 305 1308 363 1330 l 274 1408 q 346 1430 308 1422 q 422 1438 384 1438 q 561 1392 509 1438 q 613 1269 613 1345 q 559 1144 613 1192 q 408 1083 506 1095 z "},"Ấ":{"ha":833,"x_min":40,"x_max":806,"o":"m 40 0 l 349 994 l 486 994 l 794 0 l 658 0 l 446 738 l 418 846 l 414 846 l 385 738 l 175 0 l 40 0 m 176 256 l 213 372 l 619 372 l 656 256 l 176 256 m 153 1075 l 153 1083 l 356 1315 l 481 1315 l 684 1083 l 684 1075 l 545 1075 l 406 1250 l 431 1250 l 292 1075 l 153 1075 m 560 1284 l 560 1292 l 673 1541 l 806 1541 l 806 1534 l 656 1284 l 560 1284 z "},"Ầ":{"ha":833,"x_min":40,"x_max":794,"o":"m 40 0 l 349 994 l 486 994 l 794 0 l 658 0 l 446 738 l 418 846 l 414 846 l 385 738 l 175 0 l 40 0 m 176 256 l 213 372 l 619 372 l 656 256 l 176 256 m 153 1075 l 153 1083 l 356 1315 l 481 1315 l 684 1083 l 684 1075 l 545 1075 l 406 1250 l 431 1250 l 292 1075 l 153 1075 m 642 1278 l 484 1528 l 484 1535 l 619 1535 l 742 1285 l 742 1278 l 642 1278 z "},"Ẩ":{"ha":833,"x_min":40,"x_max":794,"o":"m 40 0 l 349 994 l 486 994 l 794 0 l 658 0 l 446 738 l 418 846 l 414 846 l 385 738 l 175 0 l 40 0 m 176 256 l 213 372 l 619 372 l 656 256 l 176 256 m 153 1075 l 153 1083 l 356 1315 l 481 1315 l 684 1083 l 684 1075 l 545 1075 l 406 1250 l 431 1250 l 292 1075 l 153 1075 m 595 1258 l 583 1350 q 682 1419 682 1358 q 602 1479 682 1479 q 513 1464 558 1479 l 488 1556 q 606 1576 540 1576 q 731 1535 685 1576 q 778 1424 778 1494 q 730 1309 778 1353 q 595 1258 682 1266 z "},"Ẫ":{"ha":833,"x_min":40,"x_max":794,"o":"m 40 0 l 349 994 l 486 994 l 794 0 l 658 0 l 446 738 l 418 846 l 414 846 l 385 738 l 175 0 l 40 0 m 176 256 l 213 372 l 619 372 l 656 256 l 176 256 m 153 1075 l 153 1083 l 356 1315 l 481 1315 l 684 1083 l 684 1075 l 545 1075 l 406 1250 l 431 1250 l 292 1075 l 153 1075 m 531 1388 q 467 1401 495 1388 q 408 1444 439 1415 q 358 1486 375 1476 q 323 1497 341 1497 q 277 1425 277 1497 l 277 1389 l 173 1389 l 173 1426 q 210 1550 173 1505 q 310 1596 247 1596 q 373 1582 346 1596 q 430 1539 399 1569 q 480 1498 461 1509 q 516 1487 498 1487 q 560 1558 560 1487 l 560 1594 l 664 1594 l 664 1557 q 628 1432 664 1477 q 531 1388 593 1388 z "},"Ậ":{"ha":833,"x_min":40,"x_max":794,"o":"m 40 0 l 349 994 l 486 994 l 794 0 l 658 0 l 446 738 l 418 846 l 414 846 l 385 738 l 175 0 l 40 0 m 176 256 l 213 372 l 619 372 l 656 256 l 176 256 m 417 -321 q 340 -289 371 -321 q 310 -213 310 -258 q 340 -137 310 -168 q 417 -107 371 -107 q 494 -137 463 -107 q 525 -213 525 -168 q 494 -289 525 -258 q 417 -321 463 -321 m 162 1138 l 162 1145 l 351 1388 l 485 1388 l 674 1145 l 674 1138 l 538 1138 l 403 1332 l 433 1332 l 298 1138 l 162 1138 z "},"Ắ":{"ha":833,"x_min":40,"x_max":794,"o":"m 40 0 l 349 994 l 486 994 l 794 0 l 658 0 l 446 738 l 418 846 l 414 846 l 385 738 l 175 0 l 40 0 m 176 256 l 213 372 l 619 372 l 656 256 l 176 256 m 418 1067 q 381 1067 418 1067 q 288 1099 344 1067 q 200 1186 232 1131 q 169 1312 169 1241 l 169 1321 l 274 1321 l 274 1310 q 311 1204 274 1245 q 418 1163 348 1163 q 526 1204 489 1163 q 563 1310 563 1245 l 563 1321 l 668 1321 l 668 1312 q 636 1186 668 1241 q 548 1099 604 1131 q 418 1067 492 1067 m 346 1309 l 346 1317 l 458 1573 l 599 1573 l 599 1565 l 436 1309 l 346 1309 z "},"Ằ":{"ha":833,"x_min":40,"x_max":794,"o":"m 40 0 l 349 994 l 486 994 l 794 0 l 658 0 l 446 738 l 418 846 l 414 846 l 385 738 l 175 0 l 40 0 m 176 256 l 213 372 l 619 372 l 656 256 l 176 256 m 418 1067 q 381 1067 418 1067 q 288 1099 344 1067 q 200 1186 232 1131 q 169 1312 169 1241 l 169 1321 l 274 1321 l 274 1310 q 311 1204 274 1245 q 418 1163 348 1163 q 526 1204 489 1163 q 563 1310 563 1245 l 563 1321 l 668 1321 l 668 1312 q 636 1186 668 1241 q 548 1099 604 1131 q 418 1067 492 1067 m 406 1309 l 248 1565 l 248 1573 l 384 1573 l 497 1317 l 497 1309 l 406 1309 z "},"Ẳ":{"ha":833,"x_min":40,"x_max":794,"o":"m 40 0 l 349 994 l 486 994 l 794 0 l 658 0 l 446 738 l 418 846 l 414 846 l 385 738 l 175 0 l 40 0 m 176 256 l 213 372 l 619 372 l 656 256 l 176 256 m 418 1067 q 285 1099 344 1067 q 194 1186 227 1131 q 160 1313 160 1241 l 160 1322 l 265 1322 l 265 1311 q 304 1204 265 1245 q 418 1163 342 1163 q 533 1204 494 1163 q 572 1311 572 1245 l 572 1322 l 676 1322 l 676 1313 q 642 1186 676 1241 q 551 1099 609 1131 q 418 1067 493 1067 m 371 1281 l 360 1372 q 463 1442 463 1377 q 376 1503 463 1503 q 289 1490 334 1503 l 262 1579 q 380 1599 318 1599 q 508 1558 460 1599 q 556 1448 556 1517 q 506 1332 556 1376 q 371 1281 457 1287 z "},"Ẵ":{"ha":833,"x_min":40,"x_max":794,"o":"m 40 0 l 349 994 l 486 994 l 794 0 l 658 0 l 446 738 l 418 846 l 414 846 l 385 738 l 175 0 l 40 0 m 176 256 l 213 372 l 619 372 l 656 256 l 176 256 m 418 1067 q 291 1097 346 1067 q 207 1179 237 1126 q 177 1300 177 1232 l 177 1308 l 283 1308 l 283 1298 q 319 1200 283 1237 q 418 1164 355 1164 q 517 1200 481 1164 q 553 1298 553 1237 l 553 1308 l 660 1308 l 660 1300 q 630 1179 660 1232 q 545 1097 600 1126 q 418 1067 491 1067 m 541 1378 q 472 1394 502 1378 q 408 1440 441 1410 q 353 1487 372 1475 q 315 1499 335 1499 q 280 1485 293 1499 q 266 1444 266 1471 l 266 1381 l 162 1381 l 162 1451 q 199 1559 162 1520 q 299 1599 236 1599 q 367 1583 338 1599 q 430 1536 397 1567 q 486 1490 466 1502 q 526 1478 506 1478 q 571 1533 571 1478 l 571 1596 l 675 1596 l 675 1526 q 639 1418 675 1458 q 541 1378 603 1378 z "},"Ặ":{"ha":833,"x_min":40,"x_max":794,"o":"m 40 0 l 349 994 l 486 994 l 794 0 l 658 0 l 446 738 l 418 846 l 414 846 l 385 738 l 175 0 l 40 0 m 176 256 l 213 372 l 619 372 l 656 256 l 176 256 m 417 -321 q 340 -289 371 -321 q 310 -213 310 -258 q 340 -137 310 -168 q 417 -107 371 -107 q 494 -137 463 -107 q 525 -213 525 -168 q 494 -289 525 -258 q 417 -321 463 -321 m 418 1135 q 383 1135 418 1135 q 293 1166 347 1135 q 207 1251 238 1197 q 176 1378 176 1306 l 176 1388 l 289 1388 l 289 1374 q 324 1275 289 1312 q 418 1238 359 1238 q 513 1275 478 1238 q 547 1374 547 1312 l 547 1388 l 660 1388 l 660 1378 q 629 1251 660 1306 q 544 1166 598 1197 q 418 1135 490 1135 z "},"Ɓ":{"ha":833,"x_min":0,"x_max":822,"o":"m 281 0 l 281 994 l 513 994 q 714 929 640 994 q 788 751 788 863 l 788 731 q 751 599 788 656 q 642 514 713 543 l 642 509 q 774 430 726 492 q 822 279 822 369 l 822 260 q 786 124 822 183 q 686 33 750 65 q 535 0 622 0 l 281 0 m 34 616 q 9 692 17 655 q 0 763 0 729 q 32 883 0 831 q 122 965 65 935 q 252 994 178 994 l 365 994 l 365 885 l 253 885 q 156 853 190 885 q 122 760 122 820 q 128 708 122 733 q 144 656 133 683 l 34 616 m 398 110 l 524 110 q 652 152 608 110 q 697 274 697 194 l 697 290 q 651 413 697 371 q 517 454 606 454 l 342 454 l 342 564 l 509 564 q 625 603 585 564 q 665 717 665 642 l 665 731 q 625 846 665 808 q 509 885 586 885 l 398 885 l 398 110 z "},"Ç":{"ha":833,"x_min":69,"x_max":780,"o":"m 453 -22 q 250 40 336 -22 q 116 215 163 101 q 69 484 69 328 l 69 510 q 115 782 69 668 q 246 956 161 895 q 449 1017 331 1017 q 646 954 565 1017 q 767 772 728 892 l 647 726 q 569 855 617 815 q 447 894 522 894 q 265 796 329 894 q 201 514 201 697 l 201 481 q 268 199 201 299 q 456 100 334 100 q 660 267 606 100 l 780 223 q 658 41 742 103 q 453 -22 574 -22 m 456 -427 q 349 -402 399 -427 q 263 -331 298 -376 l 340 -268 q 456 -331 390 -331 q 523 -310 497 -331 q 548 -252 548 -288 q 525 -192 548 -215 q 465 -169 503 -169 q 392 -195 421 -169 l 326 -139 l 419 10 l 505 10 l 406 -145 l 356 -137 q 414 -98 381 -112 q 484 -84 448 -84 q 606 -131 560 -84 q 652 -253 652 -177 q 598 -379 652 -331 q 456 -427 544 -427 z "},"Ć":{"ha":833,"x_min":69,"x_max":780,"o":"m 453 -22 q 250 40 336 -22 q 116 215 163 101 q 69 484 69 328 l 69 510 q 115 782 69 668 q 246 956 161 895 q 449 1017 331 1017 q 646 954 565 1017 q 767 772 728 892 l 647 726 q 569 855 617 815 q 447 894 522 894 q 265 796 329 894 q 201 514 201 697 l 201 481 q 268 199 201 299 q 456 100 334 100 q 660 267 606 100 l 780 223 q 658 41 742 103 q 453 -22 574 -22 m 388 1138 l 388 1145 l 511 1388 l 665 1388 l 665 1380 l 508 1138 l 388 1138 z "},"Ċ":{"ha":833,"x_min":69,"x_max":780,"o":"m 453 -22 q 250 40 336 -22 q 116 215 163 101 q 69 484 69 328 l 69 510 q 115 782 69 668 q 246 956 161 895 q 449 1017 331 1017 q 646 954 565 1017 q 767 772 728 892 l 647 726 q 569 855 617 815 q 447 894 522 894 q 265 796 329 894 q 201 514 201 697 l 201 481 q 268 199 201 299 q 456 100 334 100 q 660 267 606 100 l 780 223 q 658 41 742 103 q 453 -22 574 -22 m 448 1155 q 372 1186 402 1155 q 341 1263 341 1218 q 372 1338 341 1308 q 448 1369 402 1369 q 525 1338 494 1369 q 556 1263 556 1308 q 525 1186 556 1218 q 448 1155 494 1155 z "},"Č":{"ha":833,"x_min":69,"x_max":780,"o":"m 453 -22 q 250 40 336 -22 q 116 215 163 101 q 69 484 69 328 l 69 510 q 115 782 69 668 q 246 956 161 895 q 449 1017 331 1017 q 646 954 565 1017 q 767 772 728 892 l 647 726 q 569 855 617 815 q 447 894 522 894 q 265 796 329 894 q 201 514 201 697 l 201 481 q 268 199 201 299 q 456 100 334 100 q 660 267 606 100 l 780 223 q 658 41 742 103 q 453 -22 574 -22 m 381 1138 l 192 1380 l 192 1388 l 328 1388 l 460 1193 l 436 1193 l 568 1388 l 704 1388 l 704 1380 l 515 1138 l 381 1138 z "},"Ď":{"ha":833,"x_min":97,"x_max":761,"o":"m 97 0 l 97 994 l 360 994 q 576 937 486 994 q 713 771 665 879 q 761 510 761 663 l 761 484 q 713 224 761 333 q 576 58 665 115 q 360 0 486 0 l 97 0 m 225 121 l 356 121 q 560 212 491 121 q 629 481 629 303 l 629 514 q 560 783 629 692 q 356 874 491 874 l 225 874 l 225 121 m 325 1138 l 136 1380 l 136 1388 l 272 1388 l 405 1193 l 381 1193 l 513 1388 l 649 1388 l 649 1380 l 460 1138 l 325 1138 z "},"Đ":{"ha":833,"x_min":16,"x_max":780,"o":"m 135 0 l 135 994 l 378 994 q 595 937 506 994 q 732 771 685 879 q 780 510 780 663 l 780 484 q 732 223 780 331 q 595 58 685 115 q 378 0 506 0 l 135 0 m 16 452 l 16 570 l 483 570 l 483 452 l 16 452 m 256 119 l 375 119 q 584 211 514 119 q 653 481 653 302 l 653 514 q 584 784 653 693 q 375 875 514 875 l 256 875 l 256 119 z "},"Ɗ":{"ha":833,"x_min":12,"x_max":796,"o":"m 272 0 l 272 994 l 431 994 q 628 939 547 994 q 753 778 710 883 q 796 527 796 674 l 796 467 q 753 216 796 321 q 628 56 710 112 q 431 0 547 0 l 272 0 m 44 618 q 20 692 28 656 q 12 760 12 727 q 44 882 12 829 q 133 965 76 935 q 264 994 190 994 l 341 994 l 341 887 l 265 887 q 169 852 203 887 q 135 756 135 818 q 140 708 135 731 q 155 658 144 684 l 44 618 m 390 114 l 442 114 q 617 200 559 114 q 675 464 675 287 l 675 531 q 617 794 675 708 q 442 881 559 881 l 390 881 l 390 114 z "},"Ǆ":{"ha":833,"x_min":28,"x_max":861,"o":"m 28 0 l 28 994 l 181 994 q 380 883 315 994 q 444 541 444 772 l 444 453 q 380 111 444 223 q 181 0 315 0 l 28 0 m 138 108 l 176 108 q 297 188 260 108 q 333 450 333 267 l 333 544 q 297 807 333 727 q 176 886 260 886 l 138 886 l 138 108 m 447 0 l 447 94 l 699 882 l 465 882 l 465 994 l 818 994 l 818 901 l 565 113 l 828 113 l 828 0 l 447 0 m 582 1138 l 422 1380 l 422 1388 l 538 1388 l 652 1193 l 631 1193 l 744 1388 l 861 1388 l 861 1380 l 700 1138 l 582 1138 z "},"ǅ":{"ha":833,"x_min":24,"x_max":851,"o":"m 24 0 l 24 994 l 176 994 q 378 883 313 994 q 444 541 444 772 l 444 453 q 378 111 444 223 q 176 0 313 0 l 24 0 m 133 108 l 175 108 q 297 188 260 108 q 334 450 334 267 l 334 544 q 297 807 334 727 q 175 886 260 886 l 133 886 l 133 108 m 476 0 l 476 94 l 704 617 l 494 617 l 494 727 l 824 727 l 824 634 l 595 110 l 828 110 l 828 0 l 476 0 m 598 870 l 461 1113 l 461 1120 l 576 1120 l 667 928 l 645 928 l 736 1120 l 851 1120 l 851 1113 l 715 870 l 598 870 z "},"È":{"ha":833,"x_min":128,"x_max":701,"o":"m 128 0 l 128 994 l 690 994 l 690 874 l 257 874 l 257 121 l 701 121 l 701 0 l 128 0 m 203 449 l 203 570 l 635 570 l 635 449 l 203 449 m 349 1138 l 192 1380 l 192 1388 l 347 1388 l 469 1145 l 469 1138 l 349 1138 z "},"É":{"ha":833,"x_min":128,"x_max":701,"o":"m 128 0 l 128 994 l 690 994 l 690 874 l 257 874 l 257 121 l 701 121 l 701 0 l 128 0 m 203 449 l 203 570 l 635 570 l 635 449 l 203 449 m 349 1138 l 349 1145 l 472 1388 l 626 1388 l 626 1380 l 469 1138 l 349 1138 z "},"Ê":{"ha":833,"x_min":128,"x_max":701,"o":"m 128 0 l 128 994 l 690 994 l 690 874 l 257 874 l 257 121 l 701 121 l 701 0 l 128 0 m 203 449 l 203 570 l 635 570 l 635 449 l 203 449 m 153 1138 l 153 1145 l 342 1388 l 476 1388 l 665 1145 l 665 1138 l 529 1138 l 394 1332 l 424 1332 l 289 1138 l 153 1138 z "},"Ë":{"ha":833,"x_min":128,"x_max":701,"o":"m 128 0 l 128 994 l 690 994 l 690 874 l 257 874 l 257 121 l 701 121 l 701 0 l 128 0 m 203 449 l 203 570 l 635 570 l 635 449 l 203 449 m 258 1155 q 186 1184 215 1155 q 156 1256 156 1214 q 186 1328 156 1299 q 258 1358 216 1358 q 331 1328 301 1358 q 360 1257 360 1299 q 331 1184 360 1214 q 258 1155 301 1155 m 560 1155 q 489 1184 518 1155 q 459 1256 459 1214 q 489 1328 459 1299 q 560 1358 519 1358 q 633 1328 603 1358 q 663 1257 663 1299 q 634 1184 663 1214 q 560 1155 604 1155 z "},"Ē":{"ha":833,"x_min":128,"x_max":701,"o":"m 128 0 l 128 994 l 690 994 l 690 874 l 257 874 l 257 121 l 701 121 l 701 0 l 128 0 m 203 449 l 203 570 l 635 570 l 635 449 l 203 449 m 189 1199 l 189 1313 l 629 1313 l 629 1199 l 189 1199 z "},"Ė":{"ha":833,"x_min":128,"x_max":701,"o":"m 128 0 l 128 994 l 690 994 l 690 874 l 257 874 l 257 121 l 701 121 l 701 0 l 128 0 m 203 449 l 203 570 l 635 570 l 635 449 l 203 449 m 409 1155 q 333 1186 363 1155 q 302 1263 302 1218 q 333 1338 302 1308 q 409 1369 363 1369 q 486 1338 456 1369 q 517 1263 517 1308 q 486 1186 517 1218 q 409 1155 456 1155 z "},"Ę":{"ha":833,"x_min":128,"x_max":732,"o":"m 128 0 l 128 994 l 690 994 l 690 874 l 257 874 l 257 121 l 701 121 l 701 0 l 128 0 m 203 449 l 203 570 l 635 570 l 635 449 l 203 449 m 613 -371 q 516 -348 559 -371 q 449 -285 474 -325 q 425 -196 425 -246 q 485 -51 425 -115 q 667 60 544 13 l 701 0 q 575 -87 614 -44 q 535 -181 535 -130 q 561 -244 535 -219 q 628 -268 588 -268 q 703 -250 669 -268 l 732 -341 q 613 -371 677 -371 z "},"Ě":{"ha":833,"x_min":128,"x_max":701,"o":"m 128 0 l 128 994 l 690 994 l 690 874 l 257 874 l 257 121 l 701 121 l 701 0 l 128 0 m 203 449 l 203 570 l 635 570 l 635 449 l 203 449 m 342 1138 l 153 1380 l 153 1388 l 289 1388 l 422 1193 l 397 1193 l 529 1388 l 665 1388 l 665 1380 l 476 1138 l 342 1138 z "},"Ẹ":{"ha":833,"x_min":128,"x_max":701,"o":"m 128 0 l 128 994 l 690 994 l 690 874 l 257 874 l 257 121 l 701 121 l 701 0 l 128 0 m 203 449 l 203 570 l 635 570 l 635 449 l 203 449 m 415 -337 q 338 -305 369 -337 q 308 -229 308 -274 q 338 -153 308 -184 q 415 -123 369 -123 q 492 -153 461 -123 q 523 -229 523 -184 q 492 -305 523 -274 q 415 -337 461 -337 z "},"Ẻ":{"ha":833,"x_min":128,"x_max":701,"o":"m 128 0 l 128 994 l 690 994 l 690 874 l 257 874 l 257 121 l 701 121 l 701 0 l 128 0 m 203 449 l 203 570 l 635 570 l 635 449 l 203 449 m 399 1083 l 383 1183 q 471 1210 442 1190 q 501 1265 501 1231 q 410 1330 501 1330 q 296 1308 354 1330 l 265 1408 q 337 1430 299 1422 q 413 1438 375 1438 q 552 1392 500 1438 q 604 1269 604 1345 q 550 1144 604 1192 q 399 1083 497 1095 z "},"Ẽ":{"ha":833,"x_min":128,"x_max":701,"o":"m 128 0 l 128 994 l 690 994 l 690 874 l 257 874 l 257 121 l 701 121 l 701 0 l 128 0 m 203 449 l 203 570 l 635 570 l 635 449 l 203 449 m 526 1144 q 457 1163 488 1144 q 386 1228 426 1181 q 342 1272 358 1261 q 308 1283 326 1283 q 263 1213 263 1283 l 263 1147 l 158 1147 l 158 1214 q 195 1342 158 1296 q 297 1389 232 1389 q 364 1371 334 1389 q 433 1304 393 1353 q 476 1261 460 1272 q 510 1250 492 1250 q 555 1321 555 1250 l 555 1386 l 660 1386 l 660 1319 q 625 1191 660 1237 q 526 1144 590 1144 z "},"Ế":{"ha":833,"x_min":128,"x_max":797,"o":"m 128 0 l 128 994 l 690 994 l 690 874 l 257 874 l 257 121 l 701 121 l 701 0 l 128 0 m 203 449 l 203 570 l 635 570 l 635 449 l 203 449 m 144 1075 l 144 1083 l 347 1315 l 472 1315 l 675 1083 l 675 1075 l 536 1075 l 397 1250 l 422 1250 l 283 1075 l 144 1075 m 551 1284 l 551 1292 l 664 1541 l 797 1541 l 797 1534 l 647 1284 l 551 1284 z "},"Ề":{"ha":833,"x_min":128,"x_max":733,"o":"m 128 0 l 128 994 l 690 994 l 690 874 l 257 874 l 257 121 l 701 121 l 701 0 l 128 0 m 203 449 l 203 570 l 635 570 l 635 449 l 203 449 m 144 1075 l 144 1083 l 347 1315 l 472 1315 l 675 1083 l 675 1075 l 536 1075 l 397 1250 l 422 1250 l 283 1075 l 144 1075 m 633 1278 l 475 1528 l 475 1535 l 610 1535 l 733 1285 l 733 1278 l 633 1278 z "},"Ể":{"ha":833,"x_min":128,"x_max":769,"o":"m 128 0 l 128 994 l 690 994 l 690 874 l 257 874 l 257 121 l 701 121 l 701 0 l 128 0 m 203 449 l 203 570 l 635 570 l 635 449 l 203 449 m 144 1075 l 144 1083 l 347 1315 l 472 1315 l 675 1083 l 675 1075 l 536 1075 l 397 1250 l 422 1250 l 283 1075 l 144 1075 m 586 1258 l 574 1350 q 673 1419 673 1358 q 593 1479 673 1479 q 504 1464 549 1479 l 479 1556 q 597 1576 531 1576 q 722 1535 676 1576 q 769 1424 769 1494 q 721 1309 769 1353 q 586 1258 673 1266 z "},"Ễ":{"ha":833,"x_min":128,"x_max":701,"o":"m 128 0 l 128 994 l 690 994 l 690 874 l 257 874 l 257 121 l 701 121 l 701 0 l 128 0 m 203 449 l 203 570 l 635 570 l 635 449 l 203 449 m 144 1075 l 144 1083 l 347 1315 l 472 1315 l 675 1083 l 675 1075 l 536 1075 l 397 1250 l 422 1250 l 283 1075 l 144 1075 m 522 1388 q 458 1401 486 1388 q 399 1444 430 1415 q 349 1486 366 1476 q 314 1497 332 1497 q 268 1425 268 1497 l 268 1389 l 164 1389 l 164 1426 q 201 1550 164 1505 q 301 1596 238 1596 q 364 1582 337 1596 q 421 1539 390 1569 q 470 1498 452 1509 q 507 1487 489 1487 q 551 1558 551 1487 l 551 1594 l 655 1594 l 655 1557 q 619 1432 655 1477 q 522 1388 584 1388 z "},"Ệ":{"ha":833,"x_min":128,"x_max":701,"o":"m 128 0 l 128 994 l 690 994 l 690 874 l 257 874 l 257 121 l 701 121 l 701 0 l 128 0 m 203 449 l 203 570 l 635 570 l 635 449 l 203 449 m 415 -337 q 338 -305 369 -337 q 308 -229 308 -274 q 338 -153 308 -184 q 415 -123 369 -123 q 492 -153 461 -123 q 523 -229 523 -184 q 492 -305 523 -274 q 415 -337 461 -337 m 153 1138 l 153 1145 l 342 1388 l 476 1388 l 665 1145 l 665 1138 l 529 1138 l 394 1332 l 424 1332 l 289 1138 l 153 1138 z "},"Ð":{"ha":833,"x_min":16,"x_max":780,"o":"m 135 0 l 135 994 l 378 994 q 595 937 506 994 q 732 771 685 879 q 780 510 780 663 l 780 484 q 732 223 780 331 q 595 58 685 115 q 378 0 506 0 l 135 0 m 16 452 l 16 570 l 483 570 l 483 452 l 16 452 m 256 119 l 375 119 q 584 211 514 119 q 653 481 653 302 l 653 514 q 584 784 653 693 q 375 875 514 875 l 256 875 l 256 119 z "},"Ŋ":{"ha":833,"x_min":95,"x_max":759,"o":"m 497 -310 q 261 -221 360 -310 l 338 -124 q 492 -187 406 -187 q 595 -148 560 -187 q 630 -32 630 -108 l 630 684 q 584 841 630 788 q 450 894 539 894 q 333 862 384 894 q 253 771 282 829 q 224 637 224 713 l 224 0 l 95 0 l 95 994 l 217 994 l 217 859 l 222 859 q 337 975 267 933 q 488 1017 407 1017 q 687 934 615 1017 q 759 707 759 851 l 759 -28 q 727 -178 759 -115 q 635 -275 694 -241 q 497 -310 576 -310 z "},"Ğ":{"ha":833,"x_min":60,"x_max":790,"o":"m 449 -22 q 240 38 327 -22 q 106 210 153 98 q 60 481 60 323 l 60 504 q 106 780 60 665 q 240 956 153 894 q 449 1017 327 1017 q 645 961 565 1017 q 766 801 726 906 l 649 749 q 573 858 622 822 q 452 894 524 894 q 258 794 326 894 q 190 508 190 693 l 190 477 q 257 198 190 295 q 449 100 324 100 q 610 173 555 100 q 665 384 665 245 l 665 421 l 435 421 l 435 541 l 790 541 l 790 396 q 700 88 790 198 q 449 -22 610 -22 m 451 1135 q 415 1135 451 1135 q 325 1166 380 1135 q 240 1251 271 1197 q 209 1378 209 1306 l 209 1388 l 322 1388 l 322 1374 q 357 1275 322 1312 q 451 1238 392 1238 q 545 1275 510 1238 q 580 1374 580 1312 l 580 1388 l 692 1388 l 692 1378 q 661 1251 692 1306 q 576 1166 631 1197 q 451 1135 522 1135 z "},"Ġ":{"ha":833,"x_min":60,"x_max":790,"o":"m 449 -22 q 240 38 327 -22 q 106 210 153 98 q 60 481 60 323 l 60 504 q 106 780 60 665 q 240 956 153 894 q 449 1017 327 1017 q 645 961 565 1017 q 766 801 726 906 l 649 749 q 573 858 622 822 q 452 894 524 894 q 258 794 326 894 q 190 508 190 693 l 190 477 q 257 198 190 295 q 449 100 324 100 q 610 173 555 100 q 665 384 665 245 l 665 421 l 435 421 l 435 541 l 790 541 l 790 396 q 700 88 790 198 q 449 -22 610 -22 m 451 1155 q 374 1186 405 1155 q 344 1263 344 1218 q 374 1338 344 1308 q 451 1369 405 1369 q 528 1338 497 1369 q 559 1263 559 1308 q 528 1186 559 1218 q 451 1155 497 1155 z "},"Ģ":{"ha":833,"x_min":60,"x_max":790,"o":"m 449 -22 q 240 38 327 -22 q 106 210 153 98 q 60 481 60 323 l 60 504 q 106 780 60 665 q 240 956 153 894 q 449 1017 327 1017 q 645 961 565 1017 q 766 801 726 906 l 649 749 q 573 858 622 822 q 452 894 524 894 q 258 794 326 894 q 190 508 190 693 l 190 477 q 257 198 190 295 q 449 100 324 100 q 610 173 555 100 q 665 384 665 245 l 665 421 l 435 421 l 435 541 l 790 541 l 790 396 q 700 88 790 198 q 449 -22 610 -22 m 408 -541 l 328 -487 l 459 -299 l 458 -331 q 378 -299 409 -328 q 347 -226 347 -270 q 378 -152 347 -182 q 455 -123 409 -123 q 536 -155 506 -123 q 567 -237 567 -186 q 555 -302 567 -268 q 513 -379 542 -335 l 408 -541 z "},"Ħ":{"ha":833,"x_min":13,"x_max":821,"o":"m 576 0 l 576 994 l 701 994 l 701 0 l 576 0 m 133 0 l 133 994 l 258 994 l 258 0 l 133 0 m 195 424 l 195 541 l 640 541 l 640 424 l 195 424 m 13 719 l 13 830 l 821 830 l 821 719 l 13 719 z "},"Ì":{"ha":833,"x_min":124,"x_max":710,"o":"m 351 63 l 351 931 l 482 931 l 482 63 l 351 63 m 124 0 l 124 122 l 710 122 l 710 0 l 124 0 m 124 873 l 124 994 l 710 994 l 710 873 l 124 873 m 357 1138 l 200 1380 l 200 1388 l 354 1388 l 476 1145 l 476 1138 l 357 1138 z "},"Í":{"ha":833,"x_min":124,"x_max":710,"o":"m 351 63 l 351 931 l 482 931 l 482 63 l 351 63 m 124 0 l 124 122 l 710 122 l 710 0 l 124 0 m 124 873 l 124 994 l 710 994 l 710 873 l 124 873 m 357 1138 l 357 1145 l 480 1388 l 634 1388 l 634 1380 l 476 1138 l 357 1138 z "},"Î":{"ha":833,"x_min":124,"x_max":710,"o":"m 351 63 l 351 931 l 482 931 l 482 63 l 351 63 m 124 0 l 124 122 l 710 122 l 710 0 l 124 0 m 124 873 l 124 994 l 710 994 l 710 873 l 124 873 m 160 1138 l 160 1145 l 349 1388 l 484 1388 l 673 1145 l 673 1138 l 537 1138 l 402 1332 l 432 1332 l 297 1138 l 160 1138 z "},"Ī":{"ha":833,"x_min":124,"x_max":710,"o":"m 351 63 l 351 931 l 482 931 l 482 63 l 351 63 m 124 0 l 124 122 l 710 122 l 710 0 l 124 0 m 124 873 l 124 994 l 710 994 l 710 873 l 124 873 m 197 1199 l 197 1313 l 637 1313 l 637 1199 l 197 1199 z "},"Ï":{"ha":833,"x_min":124,"x_max":710,"o":"m 351 63 l 351 931 l 482 931 l 482 63 l 351 63 m 124 0 l 124 122 l 710 122 l 710 0 l 124 0 m 124 873 l 124 994 l 710 994 l 710 873 l 124 873 m 265 1155 q 193 1184 223 1155 q 164 1256 164 1214 q 194 1328 164 1299 q 265 1358 224 1358 q 338 1328 308 1358 q 368 1257 368 1299 q 339 1184 368 1214 q 265 1155 309 1155 m 568 1155 q 496 1184 526 1155 q 467 1256 467 1214 q 497 1328 467 1299 q 568 1358 526 1358 q 641 1328 611 1358 q 671 1257 671 1299 q 641 1184 671 1214 q 568 1155 612 1155 z "},"Į":{"ha":833,"x_min":124,"x_max":710,"o":"m 351 63 l 351 931 l 482 931 l 482 63 l 351 63 m 124 0 l 124 122 l 710 122 l 710 0 l 124 0 m 124 873 l 124 994 l 710 994 l 710 873 l 124 873 m 432 -371 q 336 -348 378 -371 q 269 -285 293 -325 q 244 -196 244 -246 q 304 -51 244 -115 q 487 60 364 13 l 521 0 q 394 -87 433 -44 q 355 -181 355 -130 q 381 -244 355 -219 q 448 -268 407 -268 q 522 -250 488 -268 l 551 -341 q 432 -371 497 -371 z "},"İ":{"ha":833,"x_min":124,"x_max":710,"o":"m 351 63 l 351 931 l 482 931 l 482 63 l 351 63 m 124 0 l 124 122 l 710 122 l 710 0 l 124 0 m 124 873 l 124 994 l 710 994 l 710 873 l 124 873 m 417 1155 q 340 1186 371 1155 q 310 1263 310 1218 q 340 1338 310 1308 q 417 1369 371 1369 q 494 1338 463 1369 q 525 1263 525 1308 q 494 1186 525 1218 q 417 1155 463 1155 z "},"Ĳ":{"ha":833,"x_min":111,"x_max":722,"o":"m 427 -22 q 229 42 310 -22 q 111 221 148 106 l 235 260 q 426 103 285 103 q 550 156 508 103 q 592 312 592 209 l 592 994 l 722 994 l 722 308 q 687 133 722 208 q 585 19 651 59 q 427 -22 519 -22 m 111 406 l 111 994 l 242 994 l 242 406 l 111 406 z "},"Ĩ":{"ha":833,"x_min":124,"x_max":710,"o":"m 351 63 l 351 931 l 482 931 l 482 63 l 351 63 m 124 0 l 124 122 l 710 122 l 710 0 l 124 0 m 124 873 l 124 994 l 710 994 l 710 873 l 124 873 m 533 1144 q 464 1163 495 1144 q 394 1228 433 1181 q 350 1272 366 1261 q 316 1283 334 1283 q 271 1213 271 1283 l 271 1147 l 166 1147 l 166 1214 q 203 1342 166 1296 q 304 1389 240 1389 q 371 1371 342 1389 q 441 1304 401 1353 q 484 1261 467 1272 q 518 1250 500 1250 q 563 1321 563 1250 l 563 1386 l 668 1386 l 668 1319 q 633 1191 668 1237 q 533 1144 597 1144 z "},"Ỉ":{"ha":833,"x_min":124,"x_max":710,"o":"m 351 63 l 351 931 l 482 931 l 482 63 l 351 63 m 124 0 l 124 122 l 710 122 l 710 0 l 124 0 m 124 873 l 124 994 l 710 994 l 710 873 l 124 873 m 407 1083 l 391 1183 q 479 1210 449 1190 q 508 1265 508 1231 q 418 1330 508 1330 q 303 1308 362 1330 l 272 1408 q 345 1430 307 1422 q 421 1438 383 1438 q 560 1392 508 1438 q 612 1269 612 1345 q 558 1144 612 1192 q 407 1083 504 1095 z "},"Ị":{"ha":833,"x_min":124,"x_max":710,"o":"m 351 63 l 351 931 l 482 931 l 482 63 l 351 63 m 124 0 l 124 122 l 710 122 l 710 0 l 124 0 m 124 873 l 124 994 l 710 994 l 710 873 l 124 873 m 417 -337 q 340 -305 371 -337 q 310 -229 310 -274 q 340 -153 310 -184 q 417 -123 371 -123 q 494 -153 463 -123 q 525 -229 525 -184 q 494 -305 525 -274 q 417 -337 463 -337 z "},"Ķ":{"ha":833,"x_min":111,"x_max":799,"o":"m 640 0 l 237 499 l 237 503 l 627 994 l 783 994 l 365 479 l 365 532 l 799 0 l 640 0 m 111 0 l 111 994 l 240 994 l 240 0 l 111 0 m 383 -541 l 302 -487 l 433 -299 l 433 -331 q 352 -299 383 -328 q 322 -226 322 -270 q 352 -152 322 -182 q 429 -123 383 -123 q 511 -155 480 -123 q 542 -237 542 -186 q 529 -302 542 -268 q 488 -379 516 -335 l 383 -541 z "},"Ƙ":{"ha":833,"x_min":95,"x_max":828,"o":"m 624 0 l 221 513 l 221 517 l 443 848 q 557 977 503 938 q 688 1016 611 1016 q 764 1004 732 1016 q 828 964 796 992 l 763 860 q 727 885 744 878 q 688 892 710 892 q 616 867 649 892 q 543 786 583 842 l 351 515 l 351 546 l 783 0 l 624 0 m 95 0 l 95 994 l 224 994 l 224 0 l 95 0 z "},"Ĺ":{"ha":833,"x_min":138,"x_max":740,"o":"m 138 0 l 138 994 l 267 994 l 267 122 l 740 122 l 740 0 l 138 0 m 142 1138 l 142 1145 l 265 1388 l 419 1388 l 419 1380 l 262 1138 l 142 1138 z "},"Ľ":{"ha":833,"x_min":138,"x_max":740,"o":"m 433 650 l 460 994 l 592 994 l 539 650 l 433 650 m 138 0 l 138 994 l 267 994 l 267 122 l 740 122 l 740 0 l 138 0 z "},"Ļ":{"ha":833,"x_min":138,"x_max":740,"o":"m 138 0 l 138 994 l 267 994 l 267 122 l 740 122 l 740 0 l 138 0 m 381 -541 l 301 -487 l 432 -299 l 431 -331 q 351 -299 382 -328 q 320 -226 320 -270 q 351 -152 320 -182 q 428 -123 382 -123 q 509 -155 478 -123 q 540 -237 540 -186 q 527 -302 540 -268 q 486 -379 515 -335 l 381 -541 z "},"Ł":{"ha":833,"x_min":8,"x_max":763,"o":"m 197 0 l 197 994 l 322 994 l 322 122 l 763 122 l 763 0 l 197 0 m 8 278 l 8 412 l 223 542 l 276 564 l 652 789 l 652 656 l 258 422 l 214 405 l 8 278 z "},"Ŀ":{"ha":833,"x_min":138,"x_max":740,"o":"m 138 0 l 138 994 l 267 994 l 267 122 l 740 122 l 740 0 l 138 0 m 614 435 q 533 468 566 435 q 500 549 500 501 q 533 629 500 597 q 614 662 567 662 q 696 629 663 662 q 728 549 728 597 q 696 468 728 501 q 614 435 663 435 z "},"Ǉ":{"ha":833,"x_min":15,"x_max":816,"o":"m 592 -22 q 493 -6 539 -22 q 408 39 448 10 l 469 141 q 582 100 521 100 q 661 133 633 100 q 690 226 690 165 l 690 994 l 816 994 l 816 219 q 755 45 816 111 q 592 -22 694 -22 m 15 0 l 15 994 l 142 994 l 142 119 l 373 119 l 373 0 l 15 0 z "},"ǈ":{"ha":833,"x_min":49,"x_max":810,"o":"m 528 -307 q 301 -230 406 -307 l 363 -134 q 523 -193 444 -193 q 665 -26 665 -193 l 665 727 l 785 727 l 785 -26 q 715 -232 785 -156 q 528 -307 645 -307 m 49 0 l 49 994 l 174 994 l 174 119 l 484 119 l 484 0 l 49 0 m 394 624 l 394 727 l 734 727 l 734 624 l 394 624 m 705 888 q 630 919 661 888 q 599 994 599 950 q 630 1068 599 1038 q 705 1098 660 1098 q 780 1068 750 1098 q 810 993 810 1038 q 780 918 810 949 q 705 888 749 888 z "},"Ǹ":{"ha":833,"x_min":75,"x_max":758,"o":"m 75 0 l 75 994 l 207 994 l 639 236 l 642 236 l 628 466 l 628 994 l 758 994 l 758 0 l 644 0 l 194 790 l 190 790 l 206 560 l 206 0 l 75 0 m 358 1138 l 201 1380 l 201 1388 l 355 1388 l 477 1145 l 477 1138 l 358 1138 z "},"Ñ":{"ha":833,"x_min":75,"x_max":758,"o":"m 75 0 l 75 994 l 207 994 l 639 236 l 642 236 l 628 466 l 628 994 l 758 994 l 758 0 l 644 0 l 194 790 l 190 790 l 206 560 l 206 0 l 75 0 m 534 1144 q 465 1163 496 1144 q 394 1228 434 1181 q 351 1272 367 1261 q 317 1283 335 1283 q 272 1213 272 1283 l 272 1147 l 167 1147 l 167 1214 q 203 1342 167 1296 q 305 1389 240 1389 q 372 1371 342 1389 q 442 1304 401 1353 q 484 1261 468 1272 q 519 1250 501 1250 q 563 1321 563 1250 l 563 1386 l 669 1386 l 669 1319 q 633 1191 669 1237 q 534 1144 598 1144 z "},"Ń":{"ha":833,"x_min":75,"x_max":758,"o":"m 75 0 l 75 994 l 207 994 l 639 236 l 642 236 l 628 466 l 628 994 l 758 994 l 758 0 l 644 0 l 194 790 l 190 790 l 206 560 l 206 0 l 75 0 m 358 1138 l 358 1145 l 481 1388 l 635 1388 l 635 1380 l 477 1138 l 358 1138 z "},"Ṅ":{"ha":833,"x_min":75,"x_max":758,"o":"m 75 0 l 75 994 l 207 994 l 639 236 l 642 236 l 628 466 l 628 994 l 758 994 l 758 0 l 644 0 l 194 790 l 190 790 l 206 560 l 206 0 l 75 0 m 417 1155 q 341 1186 372 1155 q 310 1263 310 1218 q 341 1338 310 1308 q 417 1369 372 1369 q 495 1338 464 1369 q 526 1263 526 1308 q 495 1186 526 1218 q 417 1155 464 1155 z "},"Ň":{"ha":833,"x_min":75,"x_max":758,"o":"m 75 0 l 75 994 l 207 994 l 639 236 l 642 236 l 628 466 l 628 994 l 758 994 l 758 0 l 644 0 l 194 790 l 190 790 l 206 560 l 206 0 l 75 0 m 350 1138 l 161 1380 l 161 1388 l 297 1388 l 430 1193 l 406 1193 l 538 1388 l 674 1388 l 674 1380 l 485 1138 l 350 1138 z "},"Ņ":{"ha":833,"x_min":75,"x_max":758,"o":"m 75 0 l 75 994 l 207 994 l 639 236 l 642 236 l 628 466 l 628 994 l 758 994 l 758 0 l 644 0 l 194 790 l 190 790 l 206 560 l 206 0 l 75 0 m 378 -541 l 297 -487 l 428 -299 l 428 -331 q 348 -299 378 -328 q 317 -226 317 -270 q 348 -152 317 -182 q 424 -123 378 -123 q 506 -155 475 -123 q 537 -237 537 -186 q 524 -302 537 -268 q 483 -379 511 -335 l 378 -541 z "},"Ǌ":{"ha":833,"x_min":15,"x_max":816,"o":"m 15 0 l 15 994 l 167 994 l 349 198 l 357 198 l 338 585 l 338 994 l 442 994 l 442 0 l 303 0 l 110 837 l 103 837 l 119 453 l 119 0 l 15 0 m 626 -22 q 479 31 542 -22 l 533 122 q 615 88 572 88 q 702 199 702 88 l 702 994 l 816 994 l 816 194 q 766 36 816 94 q 626 -22 715 -22 z "},"ǋ":{"ha":833,"x_min":15,"x_max":823,"o":"m 15 0 l 15 994 l 165 994 l 399 212 l 407 212 l 382 578 l 382 994 l 489 994 l 489 0 l 358 0 l 110 837 l 103 837 l 122 467 l 122 0 l 15 0 m 558 -307 q 372 -240 457 -307 l 434 -151 q 493 -185 465 -174 q 553 -197 522 -197 q 662 -56 662 -197 l 662 727 l 780 727 l 780 -55 q 720 -239 780 -170 q 558 -307 660 -307 m 721 888 q 648 919 678 888 q 617 994 617 949 q 647 1068 617 1038 q 721 1098 676 1098 q 794 1068 765 1098 q 823 993 823 1038 q 793 918 823 949 q 721 888 764 888 z "},"Ò":{"ha":833,"x_min":53,"x_max":781,"o":"m 417 -22 q 360 -22 417 -22 q 223 39 304 -22 q 97 214 141 101 q 53 484 53 327 l 53 510 q 97 781 53 667 q 223 955 141 894 q 417 1017 304 1017 q 611 955 529 1017 q 736 781 692 894 q 781 510 781 667 l 781 484 q 736 214 781 327 q 611 39 692 101 q 417 -22 529 -22 m 417 100 q 473 100 417 100 q 589 199 528 100 q 649 481 649 297 l 649 514 q 588 795 649 696 q 417 894 527 894 q 245 795 306 894 q 185 514 185 696 l 185 481 q 245 199 185 297 q 417 100 306 100 m 357 1138 l 200 1380 l 200 1388 l 354 1388 l 476 1145 l 476 1138 l 357 1138 z "},"Ó":{"ha":833,"x_min":53,"x_max":781,"o":"m 417 -22 q 360 -22 417 -22 q 223 39 304 -22 q 97 214 141 101 q 53 484 53 327 l 53 510 q 97 781 53 667 q 223 955 141 894 q 417 1017 304 1017 q 611 955 529 1017 q 736 781 692 894 q 781 510 781 667 l 781 484 q 736 214 781 327 q 611 39 692 101 q 417 -22 529 -22 m 417 100 q 473 100 417 100 q 589 199 528 100 q 649 481 649 297 l 649 514 q 588 795 649 696 q 417 894 527 894 q 245 795 306 894 q 185 514 185 696 l 185 481 q 245 199 185 297 q 417 100 306 100 m 357 1138 l 357 1145 l 480 1388 l 634 1388 l 634 1380 l 476 1138 l 357 1138 z "},"Ô":{"ha":833,"x_min":53,"x_max":781,"o":"m 417 -22 q 360 -22 417 -22 q 223 39 304 -22 q 97 214 141 101 q 53 484 53 327 l 53 510 q 97 781 53 667 q 223 955 141 894 q 417 1017 304 1017 q 611 955 529 1017 q 736 781 692 894 q 781 510 781 667 l 781 484 q 736 214 781 327 q 611 39 692 101 q 417 -22 529 -22 m 417 100 q 473 100 417 100 q 589 199 528 100 q 649 481 649 297 l 649 514 q 588 795 649 696 q 417 894 527 894 q 245 795 306 894 q 185 514 185 696 l 185 481 q 245 199 185 297 q 417 100 306 100 m 160 1138 l 160 1145 l 349 1388 l 484 1388 l 673 1145 l 673 1138 l 537 1138 l 402 1332 l 432 1332 l 297 1138 l 160 1138 z "},"Õ":{"ha":833,"x_min":53,"x_max":781,"o":"m 417 -22 q 360 -22 417 -22 q 223 39 304 -22 q 97 214 141 101 q 53 484 53 327 l 53 510 q 97 781 53 667 q 223 955 141 894 q 417 1017 304 1017 q 611 955 529 1017 q 736 781 692 894 q 781 510 781 667 l 781 484 q 736 214 781 327 q 611 39 692 101 q 417 -22 529 -22 m 417 100 q 473 100 417 100 q 589 199 528 100 q 649 481 649 297 l 649 514 q 588 795 649 696 q 417 894 527 894 q 245 795 306 894 q 185 514 185 696 l 185 481 q 245 199 185 297 q 417 100 306 100 m 533 1144 q 464 1163 495 1144 q 394 1228 433 1181 q 350 1272 366 1261 q 316 1283 334 1283 q 271 1213 271 1283 l 271 1147 l 166 1147 l 166 1214 q 203 1342 166 1296 q 304 1389 240 1389 q 371 1371 342 1389 q 441 1304 401 1353 q 484 1261 467 1272 q 518 1250 500 1250 q 563 1321 563 1250 l 563 1386 l 668 1386 l 668 1319 q 633 1191 668 1237 q 533 1144 597 1144 z "},"Ō":{"ha":833,"x_min":53,"x_max":781,"o":"m 417 -22 q 360 -22 417 -22 q 223 39 304 -22 q 97 214 141 101 q 53 484 53 327 l 53 510 q 97 781 53 667 q 223 955 141 894 q 417 1017 304 1017 q 611 955 529 1017 q 736 781 692 894 q 781 510 781 667 l 781 484 q 736 214 781 327 q 611 39 692 101 q 417 -22 529 -22 m 417 100 q 473 100 417 100 q 589 199 528 100 q 649 481 649 297 l 649 514 q 588 795 649 696 q 417 894 527 894 q 245 795 306 894 q 185 514 185 696 l 185 481 q 245 199 185 297 q 417 100 306 100 m 197 1199 l 197 1313 l 637 1313 l 637 1199 l 197 1199 z "},"Ö":{"ha":833,"x_min":53,"x_max":781,"o":"m 417 -22 q 360 -22 417 -22 q 223 39 304 -22 q 97 214 141 101 q 53 484 53 327 l 53 510 q 97 781 53 667 q 223 955 141 894 q 417 1017 304 1017 q 611 955 529 1017 q 736 781 692 894 q 781 510 781 667 l 781 484 q 736 214 781 327 q 611 39 692 101 q 417 -22 529 -22 m 417 100 q 473 100 417 100 q 589 199 528 100 q 649 481 649 297 l 649 514 q 588 795 649 696 q 417 894 527 894 q 245 795 306 894 q 185 514 185 696 l 185 481 q 245 199 185 297 q 417 100 306 100 m 265 1155 q 193 1184 223 1155 q 164 1256 164 1214 q 194 1328 164 1299 q 265 1358 224 1358 q 338 1328 308 1358 q 368 1257 368 1299 q 339 1184 368 1214 q 265 1155 309 1155 m 568 1155 q 496 1184 526 1155 q 467 1256 467 1214 q 497 1328 467 1299 q 568 1358 526 1358 q 641 1328 611 1358 q 671 1257 671 1299 q 641 1184 671 1214 q 568 1155 612 1155 z "},"Ø":{"ha":833,"x_min":38,"x_max":796,"o":"m 128 -125 l 38 -74 l 705 1119 l 796 1069 l 128 -125 m 418 -22 q 227 41 309 -22 q 98 218 144 104 q 52 484 52 331 l 52 510 q 96 781 52 667 q 222 956 140 894 q 415 1017 303 1017 q 607 954 524 1017 q 735 777 689 891 q 781 510 781 663 l 781 484 q 738 214 781 327 q 612 39 694 101 q 418 -22 531 -22 m 414 93 q 595 193 532 93 q 658 479 658 292 l 658 518 q 599 805 658 709 q 419 901 541 901 q 239 801 302 901 q 176 515 176 701 l 176 476 q 234 189 176 284 q 414 93 292 93 z "},"Ő":{"ha":833,"x_min":53,"x_max":781,"o":"m 417 -22 q 360 -22 417 -22 q 223 39 304 -22 q 97 214 141 101 q 53 484 53 327 l 53 510 q 97 781 53 667 q 223 955 141 894 q 417 1017 304 1017 q 611 955 529 1017 q 736 781 692 894 q 781 510 781 667 l 781 484 q 736 214 781 327 q 611 39 692 101 q 417 -22 529 -22 m 417 100 q 473 100 417 100 q 589 199 528 100 q 649 481 649 297 l 649 514 q 588 795 649 696 q 417 894 527 894 q 245 795 306 894 q 185 514 185 696 l 185 481 q 245 199 185 297 q 417 100 306 100 m 489 1138 l 489 1145 l 603 1388 l 753 1388 l 753 1380 l 604 1138 l 489 1138 m 224 1138 l 224 1145 l 338 1388 l 488 1388 l 488 1380 l 339 1138 l 224 1138 z "},"Ǫ":{"ha":833,"x_min":53,"x_max":781,"o":"m 417 -22 q 360 -22 417 -22 q 223 39 304 -22 q 97 214 141 101 q 53 484 53 327 l 53 510 q 97 781 53 667 q 223 955 141 894 q 417 1017 304 1017 q 611 955 529 1017 q 736 781 692 894 q 781 510 781 667 l 781 484 q 736 214 781 327 q 611 39 692 101 q 417 -22 529 -22 m 417 100 q 473 100 417 100 q 589 199 528 100 q 649 481 649 297 l 649 514 q 588 795 649 696 q 417 894 527 894 q 245 795 306 894 q 185 514 185 696 l 185 481 q 245 199 185 297 q 417 100 306 100 m 495 -349 q 399 -326 442 -349 q 332 -264 356 -303 q 308 -174 308 -224 q 367 -30 308 -93 q 550 82 427 34 l 584 22 q 457 -65 497 -22 q 418 -160 418 -108 q 444 -222 418 -198 q 511 -247 470 -247 q 585 -228 551 -247 l 615 -319 q 495 -349 560 -349 z "},"Œ":{"ha":833,"x_min":25,"x_max":820,"o":"m 276 -22 q 92 111 159 -22 q 25 480 25 244 l 25 515 q 92 884 25 751 q 276 1016 159 1016 q 389 970 342 1016 q 457 836 435 924 l 465 836 l 465 994 l 809 994 l 809 876 l 554 876 l 554 119 l 820 119 l 820 0 l 466 0 l 466 158 l 457 158 q 389 25 435 71 q 276 -22 342 -22 m 295 99 q 402 194 366 99 q 438 471 438 290 l 438 524 q 402 801 438 706 q 295 896 366 896 q 186 799 224 896 q 149 518 149 703 l 149 476 q 186 196 149 292 q 295 99 224 99 m 507 451 l 507 569 l 765 569 l 765 451 l 507 451 z "},"Ọ":{"ha":833,"x_min":53,"x_max":781,"o":"m 417 -22 q 360 -22 417 -22 q 223 39 304 -22 q 97 214 141 101 q 53 484 53 327 l 53 510 q 97 781 53 667 q 223 955 141 894 q 417 1017 304 1017 q 611 955 529 1017 q 736 781 692 894 q 781 510 781 667 l 781 484 q 736 214 781 327 q 611 39 692 101 q 417 -22 529 -22 m 417 100 q 473 100 417 100 q 589 199 528 100 q 649 481 649 297 l 649 514 q 588 795 649 696 q 417 894 527 894 q 245 795 306 894 q 185 514 185 696 l 185 481 q 245 199 185 297 q 417 100 306 100 m 417 -359 q 340 -327 371 -359 q 310 -251 310 -296 q 340 -176 310 -206 q 417 -145 371 -145 q 494 -176 463 -145 q 525 -251 525 -206 q 494 -327 525 -296 q 417 -359 463 -359 z "},"Ỏ":{"ha":833,"x_min":53,"x_max":781,"o":"m 417 -22 q 360 -22 417 -22 q 223 39 304 -22 q 97 214 141 101 q 53 484 53 327 l 53 510 q 97 781 53 667 q 223 955 141 894 q 417 1017 304 1017 q 611 955 529 1017 q 736 781 692 894 q 781 510 781 667 l 781 484 q 736 214 781 327 q 611 39 692 101 q 417 -22 529 -22 m 417 100 q 473 100 417 100 q 589 199 528 100 q 649 481 649 297 l 649 514 q 588 795 649 696 q 417 894 527 894 q 245 795 306 894 q 185 514 185 696 l 185 481 q 245 199 185 297 q 417 100 306 100 m 407 1083 l 391 1183 q 479 1210 449 1190 q 508 1265 508 1231 q 418 1330 508 1330 q 303 1308 362 1330 l 272 1408 q 345 1430 307 1422 q 421 1438 383 1438 q 560 1392 508 1438 q 612 1269 612 1345 q 558 1144 612 1192 q 407 1083 504 1095 z "},"Ố":{"ha":833,"x_min":53,"x_max":804,"o":"m 417 -22 q 360 -22 417 -22 q 223 39 304 -22 q 97 214 141 101 q 53 484 53 327 l 53 510 q 97 781 53 667 q 223 955 141 894 q 417 1017 304 1017 q 611 955 529 1017 q 736 781 692 894 q 781 510 781 667 l 781 484 q 736 214 781 327 q 611 39 692 101 q 417 -22 529 -22 m 417 100 q 473 100 417 100 q 589 199 528 100 q 649 481 649 297 l 649 514 q 588 795 649 696 q 417 894 527 894 q 245 795 306 894 q 185 514 185 696 l 185 481 q 245 199 185 297 q 417 100 306 100 m 151 1075 l 151 1083 l 354 1315 l 479 1315 l 683 1083 l 683 1075 l 544 1075 l 404 1250 l 430 1250 l 290 1075 l 151 1075 m 558 1284 l 558 1292 l 672 1541 l 804 1541 l 804 1534 l 654 1284 l 558 1284 z "},"Ồ":{"ha":833,"x_min":53,"x_max":781,"o":"m 417 -22 q 360 -22 417 -22 q 223 39 304 -22 q 97 214 141 101 q 53 484 53 327 l 53 510 q 97 781 53 667 q 223 955 141 894 q 417 1017 304 1017 q 611 955 529 1017 q 736 781 692 894 q 781 510 781 667 l 781 484 q 736 214 781 327 q 611 39 692 101 q 417 -22 529 -22 m 417 100 q 473 100 417 100 q 589 199 528 100 q 649 481 649 297 l 649 514 q 588 795 649 696 q 417 894 527 894 q 245 795 306 894 q 185 514 185 696 l 185 481 q 245 199 185 297 q 417 100 306 100 m 151 1075 l 151 1083 l 354 1315 l 479 1315 l 683 1083 l 683 1075 l 544 1075 l 404 1250 l 430 1250 l 290 1075 l 151 1075 m 641 1278 l 483 1528 l 483 1535 l 617 1535 l 740 1285 l 740 1278 l 641 1278 z "},"Ổ":{"ha":833,"x_min":53,"x_max":781,"o":"m 417 -22 q 360 -22 417 -22 q 223 39 304 -22 q 97 214 141 101 q 53 484 53 327 l 53 510 q 97 781 53 667 q 223 955 141 894 q 417 1017 304 1017 q 611 955 529 1017 q 736 781 692 894 q 781 510 781 667 l 781 484 q 736 214 781 327 q 611 39 692 101 q 417 -22 529 -22 m 417 100 q 473 100 417 100 q 589 199 528 100 q 649 481 649 297 l 649 514 q 588 795 649 696 q 417 894 527 894 q 245 795 306 894 q 185 514 185 696 l 185 481 q 245 199 185 297 q 417 100 306 100 m 151 1075 l 151 1083 l 354 1315 l 479 1315 l 683 1083 l 683 1075 l 544 1075 l 404 1250 l 430 1250 l 290 1075 l 151 1075 m 594 1258 l 582 1350 q 681 1419 681 1358 q 601 1479 681 1479 q 512 1464 556 1479 l 487 1556 q 605 1576 539 1576 q 730 1535 683 1576 q 776 1424 776 1494 q 728 1309 776 1353 q 594 1258 681 1266 z "},"Ỗ":{"ha":833,"x_min":53,"x_max":781,"o":"m 417 -22 q 360 -22 417 -22 q 223 39 304 -22 q 97 214 141 101 q 53 484 53 327 l 53 510 q 97 781 53 667 q 223 955 141 894 q 417 1017 304 1017 q 611 955 529 1017 q 736 781 692 894 q 781 510 781 667 l 781 484 q 736 214 781 327 q 611 39 692 101 q 417 -22 529 -22 m 417 100 q 473 100 417 100 q 589 199 528 100 q 649 481 649 297 l 649 514 q 588 795 649 696 q 417 894 527 894 q 245 795 306 894 q 185 514 185 696 l 185 481 q 245 199 185 297 q 417 100 306 100 m 151 1075 l 151 1083 l 354 1315 l 479 1315 l 683 1083 l 683 1075 l 544 1075 l 404 1250 l 430 1250 l 290 1075 l 151 1075 m 530 1388 q 466 1401 494 1388 q 407 1444 438 1415 q 357 1486 374 1476 q 322 1497 340 1497 q 276 1425 276 1497 l 276 1389 l 172 1389 l 172 1426 q 208 1550 172 1505 q 308 1596 245 1596 q 371 1582 344 1596 q 428 1539 398 1569 q 478 1498 460 1509 q 515 1487 497 1487 q 558 1558 558 1487 l 558 1594 l 663 1594 l 663 1557 q 627 1432 663 1477 q 530 1388 592 1388 z "},"Ộ":{"ha":833,"x_min":53,"x_max":781,"o":"m 417 -22 q 360 -22 417 -22 q 223 39 304 -22 q 97 214 141 101 q 53 484 53 327 l 53 510 q 97 781 53 667 q 223 955 141 894 q 417 1017 304 1017 q 611 955 529 1017 q 736 781 692 894 q 781 510 781 667 l 781 484 q 736 214 781 327 q 611 39 692 101 q 417 -22 529 -22 m 417 100 q 473 100 417 100 q 589 199 528 100 q 649 481 649 297 l 649 514 q 588 795 649 696 q 417 894 527 894 q 245 795 306 894 q 185 514 185 696 l 185 481 q 245 199 185 297 q 417 100 306 100 m 417 -359 q 340 -327 371 -359 q 310 -251 310 -296 q 340 -176 310 -206 q 417 -145 371 -145 q 494 -176 463 -145 q 525 -251 525 -206 q 494 -327 525 -296 q 417 -359 463 -359 m 160 1138 l 160 1145 l 349 1388 l 484 1388 l 673 1145 l 673 1138 l 537 1138 l 402 1332 l 432 1332 l 297 1138 l 160 1138 z "},"Ơ":{"ha":833,"x_min":53,"x_max":822,"o":"m 416 -22 q 223 39 304 -22 q 97 214 141 101 q 53 484 53 327 l 53 510 q 98 783 53 669 q 226 956 143 896 q 422 1016 308 1016 q 504 1011 469 1016 q 579 1006 540 1006 q 663 1027 635 1006 q 692 1088 692 1048 q 683 1134 692 1111 q 654 1183 674 1157 l 769 1256 q 822 1108 822 1182 q 762 982 822 1027 q 603 937 702 937 l 531 937 l 535 983 q 716 812 653 934 q 779 510 779 690 l 779 484 q 735 214 779 327 q 610 39 692 101 q 416 -22 528 -22 m 416 100 q 588 199 528 100 q 648 481 648 297 l 648 517 q 591 800 648 703 q 422 897 534 897 q 246 797 308 897 q 184 514 184 697 l 184 481 q 244 199 184 297 q 416 100 305 100 z "},"Ớ":{"ha":833,"x_min":53,"x_max":824,"o":"m 416 -22 q 223 40 304 -22 q 97 215 141 101 q 53 484 53 328 l 53 510 q 98 781 53 667 q 224 955 142 894 q 422 1016 306 1016 q 506 1010 467 1016 q 583 1004 545 1004 q 688 1078 688 1004 q 683 1116 688 1097 q 668 1154 678 1135 l 796 1203 q 824 1097 824 1149 q 766 979 824 1022 q 602 937 708 937 l 523 937 l 531 981 q 715 811 651 932 q 779 510 779 691 l 779 484 q 735 215 779 328 q 610 40 692 101 q 416 -22 528 -22 m 416 101 q 588 199 528 101 q 648 481 648 297 l 648 517 q 591 800 648 703 q 422 897 533 897 q 246 797 308 897 q 184 514 184 697 l 184 481 q 244 199 184 297 q 416 101 305 101 m 353 1149 l 353 1157 l 476 1399 l 630 1399 l 630 1392 l 472 1149 l 353 1149 z "},"Ờ":{"ha":833,"x_min":53,"x_max":824,"o":"m 416 -22 q 223 40 304 -22 q 97 215 141 101 q 53 484 53 328 l 53 510 q 98 781 53 667 q 224 955 142 894 q 422 1016 306 1016 q 506 1010 467 1016 q 583 1004 545 1004 q 688 1078 688 1004 q 683 1116 688 1097 q 668 1154 678 1135 l 796 1203 q 824 1097 824 1149 q 766 979 824 1022 q 602 937 708 937 l 523 937 l 531 981 q 715 811 651 932 q 779 510 779 691 l 779 484 q 735 215 779 328 q 610 40 692 101 q 416 -22 528 -22 m 416 101 q 588 199 528 101 q 648 481 648 297 l 648 517 q 591 800 648 703 q 422 897 533 897 q 246 797 308 897 q 184 514 184 697 l 184 481 q 244 199 184 297 q 416 101 305 101 m 356 1149 l 199 1392 l 199 1399 l 353 1399 l 475 1157 l 475 1149 l 356 1149 z "},"Ở":{"ha":833,"x_min":53,"x_max":824,"o":"m 416 -22 q 223 40 304 -22 q 97 215 141 101 q 53 484 53 328 l 53 510 q 98 781 53 667 q 224 955 142 894 q 422 1016 306 1016 q 506 1010 467 1016 q 583 1004 545 1004 q 688 1078 688 1004 q 683 1116 688 1097 q 668 1154 678 1135 l 796 1203 q 824 1097 824 1149 q 766 979 824 1022 q 602 937 708 937 l 523 937 l 531 981 q 715 811 651 932 q 779 510 779 691 l 779 484 q 735 215 779 328 q 610 40 692 101 q 416 -22 528 -22 m 416 101 q 588 199 528 101 q 648 481 648 297 l 648 517 q 591 800 648 703 q 422 897 533 897 q 246 797 308 897 q 184 514 184 697 l 184 481 q 244 199 184 297 q 416 101 305 101 m 381 1098 l 365 1198 q 452 1225 423 1204 q 482 1279 482 1245 q 392 1344 482 1344 q 277 1323 335 1344 l 246 1422 q 318 1445 281 1437 q 394 1453 356 1453 q 533 1406 481 1453 q 585 1283 585 1360 q 532 1158 585 1207 q 381 1098 478 1110 z "},"Ỡ":{"ha":833,"x_min":53,"x_max":824,"o":"m 416 -22 q 223 40 304 -22 q 97 215 141 101 q 53 484 53 328 l 53 510 q 98 781 53 667 q 224 955 142 894 q 422 1016 306 1016 q 506 1010 467 1016 q 583 1004 545 1004 q 688 1078 688 1004 q 683 1116 688 1097 q 668 1154 678 1135 l 796 1203 q 824 1097 824 1149 q 766 979 824 1022 q 602 937 708 937 l 523 937 l 531 981 q 715 811 651 932 q 779 510 779 691 l 779 484 q 735 215 779 328 q 610 40 692 101 q 416 -22 528 -22 m 416 101 q 588 199 528 101 q 648 481 648 297 l 648 517 q 591 800 648 703 q 422 897 533 897 q 246 797 308 897 q 184 514 184 697 l 184 481 q 244 199 184 297 q 416 101 305 101 m 526 1168 q 457 1186 488 1168 q 387 1251 426 1204 q 343 1296 359 1285 q 309 1307 327 1307 q 264 1236 264 1307 l 264 1171 l 159 1171 l 159 1238 q 196 1366 159 1319 q 297 1413 233 1413 q 364 1395 335 1413 q 434 1328 394 1377 q 477 1285 460 1296 q 511 1274 493 1274 q 556 1344 556 1274 l 556 1410 l 661 1410 l 661 1343 q 626 1214 661 1260 q 526 1168 590 1168 z "},"Ợ":{"ha":833,"x_min":53,"x_max":822,"o":"m 416 -22 q 223 39 304 -22 q 97 214 141 101 q 53 484 53 327 l 53 510 q 98 783 53 669 q 226 956 143 896 q 422 1016 308 1016 q 504 1011 469 1016 q 579 1006 540 1006 q 663 1027 635 1006 q 692 1088 692 1048 q 683 1134 692 1111 q 654 1183 674 1157 l 769 1256 q 822 1108 822 1182 q 762 982 822 1027 q 603 937 702 937 l 531 937 l 535 983 q 716 812 653 934 q 779 510 779 690 l 779 484 q 735 214 779 327 q 610 39 692 101 q 416 -22 528 -22 m 416 100 q 588 199 528 100 q 648 481 648 297 l 648 517 q 591 800 648 703 q 422 897 534 897 q 246 797 308 897 q 184 514 184 697 l 184 481 q 244 199 184 297 q 416 100 305 100 m 416 -359 q 340 -327 370 -359 q 309 -251 309 -296 q 340 -176 309 -206 q 416 -145 370 -145 q 493 -176 463 -145 q 524 -251 524 -206 q 493 -327 524 -296 q 416 -359 463 -359 z "},"Ŕ":{"ha":833,"x_min":111,"x_max":796,"o":"m 111 0 l 111 994 l 418 994 q 585 958 515 994 q 695 856 656 922 q 735 701 735 790 l 735 688 q 695 533 735 599 q 585 431 656 467 q 418 394 514 394 l 183 394 l 183 510 l 415 510 q 554 556 504 510 q 604 682 604 601 l 604 703 q 554 829 604 783 q 415 875 504 875 l 239 875 l 239 0 l 111 0 m 649 0 l 375 447 l 517 447 l 796 0 l 649 0 m 305 1138 l 305 1145 l 428 1388 l 582 1388 l 582 1380 l 424 1138 l 305 1138 z "},"Ř":{"ha":833,"x_min":108,"x_max":796,"o":"m 111 0 l 111 994 l 418 994 q 585 958 515 994 q 695 856 656 922 q 735 701 735 790 l 735 688 q 695 533 735 599 q 585 431 656 467 q 418 394 514 394 l 183 394 l 183 510 l 415 510 q 554 556 504 510 q 604 682 604 601 l 604 703 q 554 829 604 783 q 415 875 504 875 l 239 875 l 239 0 l 111 0 m 649 0 l 375 447 l 517 447 l 796 0 l 649 0 m 297 1138 l 108 1380 l 108 1388 l 244 1388 l 377 1193 l 353 1193 l 485 1388 l 621 1388 l 621 1380 l 432 1138 l 297 1138 z "},"Ś":{"ha":833,"x_min":63,"x_max":765,"o":"m 445 -22 q 277 10 353 -22 q 147 102 201 42 q 63 247 92 163 l 183 291 q 282 148 215 197 q 443 99 348 99 q 585 140 534 99 q 636 251 636 180 l 636 263 q 597 361 636 322 q 466 433 557 401 l 329 481 q 119 740 119 554 l 119 745 q 158 888 119 826 q 268 983 197 949 q 431 1017 338 1017 q 639 961 555 1017 q 763 797 724 906 l 643 752 q 431 895 592 895 q 298 856 349 895 q 248 752 248 817 l 248 744 q 281 658 248 693 q 385 598 313 623 l 522 550 q 707 435 648 506 q 765 260 765 365 l 765 254 q 725 109 765 171 q 613 12 685 47 q 445 -22 541 -22 m 372 1138 l 372 1145 l 494 1388 l 649 1388 l 649 1380 l 491 1138 l 372 1138 z "},"Ş":{"ha":833,"x_min":63,"x_max":765,"o":"m 445 -22 q 277 10 353 -22 q 147 102 201 42 q 63 247 92 163 l 183 291 q 282 148 215 197 q 443 99 348 99 q 585 140 534 99 q 636 251 636 180 l 636 263 q 597 361 636 322 q 466 433 557 401 l 329 481 q 119 740 119 554 l 119 745 q 158 888 119 826 q 268 983 197 949 q 431 1017 338 1017 q 639 961 555 1017 q 763 797 724 906 l 643 752 q 431 895 592 895 q 298 856 349 895 q 248 752 248 817 l 248 744 q 281 658 248 693 q 385 598 313 623 l 522 550 q 707 435 648 506 q 765 260 765 365 l 765 254 q 725 109 765 171 q 613 12 685 47 q 445 -22 541 -22 m 444 -427 q 337 -402 388 -427 q 251 -331 286 -376 l 328 -268 q 444 -331 378 -331 q 511 -310 485 -331 q 536 -252 536 -288 q 514 -192 536 -215 q 453 -169 491 -169 q 381 -195 409 -169 l 315 -139 l 407 10 l 493 10 l 394 -145 l 344 -137 q 402 -98 369 -112 q 472 -84 436 -84 q 594 -131 548 -84 q 640 -253 640 -177 q 586 -379 640 -331 q 444 -427 533 -427 z "},"Š":{"ha":833,"x_min":63,"x_max":765,"o":"m 445 -22 q 277 10 353 -22 q 147 102 201 42 q 63 247 92 163 l 183 291 q 282 148 215 197 q 443 99 348 99 q 585 140 534 99 q 636 251 636 180 l 636 263 q 597 361 636 322 q 466 433 557 401 l 329 481 q 119 740 119 554 l 119 745 q 158 888 119 826 q 268 983 197 949 q 431 1017 338 1017 q 639 961 555 1017 q 763 797 724 906 l 643 752 q 431 895 592 895 q 298 856 349 895 q 248 752 248 817 l 248 744 q 281 658 248 693 q 385 598 313 623 l 522 550 q 707 435 648 506 q 765 260 765 365 l 765 254 q 725 109 765 171 q 613 12 685 47 q 445 -22 541 -22 m 364 1138 l 175 1380 l 175 1388 l 311 1388 l 444 1193 l 419 1193 l 551 1388 l 688 1388 l 688 1380 l 499 1138 l 364 1138 z "},"Ș":{"ha":833,"x_min":63,"x_max":765,"o":"m 445 -22 q 277 10 353 -22 q 147 102 201 42 q 63 247 92 163 l 183 291 q 282 148 215 197 q 443 99 348 99 q 585 140 534 99 q 636 251 636 180 l 636 263 q 597 361 636 322 q 466 433 557 401 l 329 481 q 119 740 119 554 l 119 745 q 158 888 119 826 q 268 983 197 949 q 431 1017 338 1017 q 639 961 555 1017 q 763 797 724 906 l 643 752 q 431 895 592 895 q 298 856 349 895 q 248 752 248 817 l 248 744 q 281 658 248 693 q 385 598 313 623 l 522 550 q 707 435 648 506 q 765 260 765 365 l 765 254 q 725 109 765 171 q 613 12 685 47 q 445 -22 541 -22 m 385 -541 l 305 -487 l 436 -299 l 435 -331 q 355 -299 386 -328 q 324 -226 324 -270 q 355 -152 324 -182 q 432 -123 386 -123 q 514 -155 483 -123 q 544 -237 544 -186 q 532 -302 544 -268 q 490 -379 519 -335 l 385 -541 z "},"Ṣ":{"ha":833,"x_min":63,"x_max":765,"o":"m 445 -22 q 277 10 353 -22 q 147 102 201 42 q 63 247 92 163 l 183 291 q 282 148 215 197 q 443 99 348 99 q 585 140 534 99 q 636 251 636 180 l 636 263 q 597 361 636 322 q 466 433 557 401 l 329 481 q 119 740 119 554 l 119 745 q 158 888 119 826 q 268 983 197 949 q 431 1017 338 1017 q 639 961 555 1017 q 763 797 724 906 l 643 752 q 431 895 592 895 q 298 856 349 895 q 248 752 248 817 l 248 744 q 281 658 248 693 q 385 598 313 623 l 522 550 q 707 435 648 506 q 765 260 765 365 l 765 254 q 725 109 765 171 q 613 12 685 47 q 445 -22 541 -22 m 443 -337 q 367 -305 397 -337 q 336 -229 336 -274 q 367 -153 336 -184 q 443 -123 397 -123 q 520 -153 490 -123 q 551 -229 551 -184 q 520 -305 551 -274 q 443 -337 490 -337 z "},"ẞ":{"ha":833,"x_min":82,"x_max":806,"o":"m 535 -22 q 393 11 458 -22 q 288 103 328 45 l 384 180 q 532 99 439 99 q 638 149 599 99 q 676 285 676 199 l 676 302 q 625 446 676 397 q 474 494 574 494 l 408 494 l 408 557 l 549 869 l 549 875 l 403 875 q 257 824 304 875 q 210 669 210 773 l 210 0 l 82 0 l 82 675 q 164 913 82 831 q 401 994 246 994 l 704 994 l 704 932 l 553 596 l 553 559 l 524 592 q 732 514 659 592 q 806 293 806 436 l 806 274 q 772 117 806 184 q 678 14 739 51 q 535 -22 617 -22 z "},"Ə":{"ha":833,"x_min":65,"x_max":791,"o":"m 428 -22 q 161 97 257 -22 q 65 426 65 215 q 67 483 65 456 q 72 533 69 509 l 708 533 l 708 419 l 190 419 l 190 419 q 250 181 190 263 q 424 100 309 100 q 605 195 544 100 q 665 481 665 290 l 665 517 q 609 803 665 711 q 435 894 553 894 q 185 749 283 894 l 84 822 q 239 967 149 917 q 439 1017 330 1017 q 702 889 613 1017 q 791 510 791 761 l 791 485 q 748 211 791 324 q 624 38 706 97 q 428 -22 543 -22 z "},"Ţ":{"ha":833,"x_min":75,"x_max":758,"o":"m 352 0 l 352 938 l 481 938 l 481 0 l 352 0 m 75 872 l 75 994 l 758 994 l 758 872 l 75 872 m 418 -427 q 310 -402 361 -427 q 225 -331 260 -376 l 301 -268 q 418 -331 352 -331 q 484 -310 459 -331 q 510 -252 510 -288 q 487 -192 510 -215 q 427 -169 465 -169 q 354 -195 383 -169 l 288 -139 l 381 10 l 467 10 l 368 -145 l 318 -137 q 376 -98 342 -112 q 446 -84 410 -84 q 568 -131 522 -84 q 614 -253 614 -177 q 560 -379 614 -331 q 418 -427 506 -427 z "},"Ť":{"ha":833,"x_min":75,"x_max":758,"o":"m 352 0 l 352 938 l 481 938 l 481 0 l 352 0 m 75 872 l 75 994 l 758 994 l 758 872 l 75 872 m 349 1138 l 160 1380 l 160 1388 l 297 1388 l 429 1193 l 405 1193 l 537 1388 l 673 1388 l 673 1380 l 484 1138 l 349 1138 z "},"Ț":{"ha":833,"x_min":75,"x_max":758,"o":"m 352 0 l 352 938 l 481 938 l 481 0 l 352 0 m 75 872 l 75 994 l 758 994 l 758 872 l 75 872 m 359 -541 l 278 -487 l 410 -299 l 409 -331 q 329 -299 360 -328 q 298 -226 298 -270 q 329 -152 298 -182 q 406 -123 360 -123 q 487 -155 456 -123 q 518 -237 518 -186 q 505 -302 518 -268 q 464 -379 492 -335 l 359 -541 z "},"Þ":{"ha":833,"x_min":112,"x_max":737,"o":"m 186 226 l 186 344 l 416 344 q 558 390 508 344 q 608 521 608 436 l 608 533 q 558 664 608 618 q 416 710 508 710 l 186 710 l 186 828 l 419 828 q 586 791 515 828 q 697 687 658 754 q 737 529 737 620 l 737 524 q 698 367 737 434 q 587 263 658 300 q 419 226 515 226 l 186 226 m 112 0 l 112 994 l 240 994 l 240 0 l 112 0 z "},"Ù":{"ha":833,"x_min":99,"x_max":735,"o":"m 417 -22 q 370 -22 417 -22 q 250 20 322 -22 q 139 137 178 62 q 99 310 99 212 l 99 994 l 228 994 l 228 318 q 278 159 228 217 q 417 100 329 100 q 555 159 505 100 q 606 318 606 217 l 606 994 l 735 994 l 735 310 q 695 137 735 212 q 583 20 655 62 q 417 -22 512 -22 m 357 1138 l 200 1380 l 200 1388 l 354 1388 l 476 1145 l 476 1138 l 357 1138 z "},"Ú":{"ha":833,"x_min":99,"x_max":735,"o":"m 417 -22 q 370 -22 417 -22 q 250 20 322 -22 q 139 137 178 62 q 99 310 99 212 l 99 994 l 228 994 l 228 318 q 278 159 228 217 q 417 100 329 100 q 555 159 505 100 q 606 318 606 217 l 606 994 l 735 994 l 735 310 q 695 137 735 212 q 583 20 655 62 q 417 -22 512 -22 m 357 1138 l 357 1145 l 480 1388 l 634 1388 l 634 1380 l 476 1138 l 357 1138 z "},"Û":{"ha":833,"x_min":99,"x_max":735,"o":"m 417 -22 q 370 -22 417 -22 q 250 20 322 -22 q 139 137 178 62 q 99 310 99 212 l 99 994 l 228 994 l 228 318 q 278 159 228 217 q 417 100 329 100 q 555 159 505 100 q 606 318 606 217 l 606 994 l 735 994 l 735 310 q 695 137 735 212 q 583 20 655 62 q 417 -22 512 -22 m 160 1138 l 160 1145 l 349 1388 l 484 1388 l 673 1145 l 673 1138 l 537 1138 l 402 1332 l 432 1332 l 297 1138 l 160 1138 z "},"Ü":{"ha":833,"x_min":99,"x_max":735,"o":"m 417 -22 q 370 -22 417 -22 q 250 20 322 -22 q 139 137 178 62 q 99 310 99 212 l 99 994 l 228 994 l 228 318 q 278 159 228 217 q 417 100 329 100 q 555 159 505 100 q 606 318 606 217 l 606 994 l 735 994 l 735 310 q 695 137 735 212 q 583 20 655 62 q 417 -22 512 -22 m 265 1155 q 193 1184 223 1155 q 164 1256 164 1214 q 194 1328 164 1299 q 265 1358 224 1358 q 338 1328 308 1358 q 368 1257 368 1299 q 339 1184 368 1214 q 265 1155 309 1155 m 568 1155 q 496 1184 526 1155 q 467 1256 467 1214 q 497 1328 467 1299 q 568 1358 526 1358 q 641 1328 611 1358 q 671 1257 671 1299 q 641 1184 671 1214 q 568 1155 612 1155 z "},"Ū":{"ha":833,"x_min":99,"x_max":735,"o":"m 417 -22 q 370 -22 417 -22 q 250 20 322 -22 q 139 137 178 62 q 99 310 99 212 l 99 994 l 228 994 l 228 318 q 278 159 228 217 q 417 100 329 100 q 555 159 505 100 q 606 318 606 217 l 606 994 l 735 994 l 735 310 q 695 137 735 212 q 583 20 655 62 q 417 -22 512 -22 m 197 1199 l 197 1313 l 637 1313 l 637 1199 l 197 1199 z "},"Ů":{"ha":833,"x_min":99,"x_max":735,"o":"m 417 -22 q 370 -22 417 -22 q 250 20 322 -22 q 139 137 178 62 q 99 310 99 212 l 99 994 l 228 994 l 228 318 q 278 159 228 217 q 417 100 329 100 q 555 159 505 100 q 606 318 606 217 l 606 994 l 735 994 l 735 310 q 695 137 735 212 q 583 20 655 62 q 417 -22 512 -22 m 417 1073 q 389 1073 417 1073 q 316 1098 360 1073 q 245 1166 272 1123 q 219 1264 219 1210 q 245 1362 219 1319 q 316 1430 272 1405 q 417 1455 360 1455 q 517 1430 473 1455 q 588 1362 562 1405 q 614 1264 614 1319 q 588 1166 614 1210 q 517 1098 562 1123 q 417 1073 473 1073 m 417 1169 q 437 1169 417 1169 q 484 1196 458 1169 q 511 1264 511 1223 q 484 1332 511 1305 q 417 1359 458 1359 q 349 1332 376 1359 q 322 1264 322 1305 q 349 1196 322 1223 q 417 1169 376 1169 z "},"Ű":{"ha":833,"x_min":99,"x_max":753,"o":"m 417 -22 q 370 -22 417 -22 q 250 20 322 -22 q 139 137 178 62 q 99 310 99 212 l 99 994 l 228 994 l 228 318 q 278 159 228 217 q 417 100 329 100 q 555 159 505 100 q 606 318 606 217 l 606 994 l 735 994 l 735 310 q 695 137 735 212 q 583 20 655 62 q 417 -22 512 -22 m 489 1138 l 489 1145 l 603 1388 l 753 1388 l 753 1380 l 604 1138 l 489 1138 m 224 1138 l 224 1145 l 338 1388 l 488 1388 l 488 1380 l 339 1138 l 224 1138 z "},"Ų":{"ha":833,"x_min":99,"x_max":735,"o":"m 491 -371 q 395 -348 438 -371 q 328 -285 352 -325 q 303 -196 303 -246 q 546 60 303 -35 l 516 -7 q 468 -17 493 -13 q 417 -21 443 -21 q 250 21 322 -21 q 139 138 178 63 q 99 310 99 213 l 99 994 l 228 994 l 228 318 q 278 159 228 217 q 417 100 329 100 q 555 159 504 100 q 606 318 606 217 l 606 994 l 735 994 l 735 310 q 690 128 735 206 q 540 -16 644 51 q 441 -100 467 -63 q 414 -181 414 -136 q 440 -244 414 -219 q 507 -268 466 -268 q 581 -250 547 -268 l 610 -341 q 491 -371 556 -371 z "},"Ũ":{"ha":833,"x_min":99,"x_max":735,"o":"m 417 -22 q 370 -22 417 -22 q 250 20 322 -22 q 139 137 178 62 q 99 310 99 212 l 99 994 l 228 994 l 228 318 q 278 159 228 217 q 417 100 329 100 q 555 159 505 100 q 606 318 606 217 l 606 994 l 735 994 l 735 310 q 695 137 735 212 q 583 20 655 62 q 417 -22 512 -22 m 533 1144 q 464 1163 495 1144 q 394 1228 433 1181 q 350 1272 366 1261 q 316 1283 334 1283 q 271 1213 271 1283 l 271 1147 l 166 1147 l 166 1214 q 203 1342 166 1296 q 304 1389 240 1389 q 371 1371 342 1389 q 441 1304 401 1353 q 484 1261 467 1272 q 518 1250 500 1250 q 563 1321 563 1250 l 563 1386 l 668 1386 l 668 1319 q 633 1191 668 1237 q 533 1144 597 1144 z "},"Ụ":{"ha":833,"x_min":99,"x_max":735,"o":"m 417 -22 q 370 -22 417 -22 q 250 20 322 -22 q 139 137 178 62 q 99 310 99 212 l 99 994 l 228 994 l 228 318 q 278 159 228 217 q 417 100 329 100 q 555 159 505 100 q 606 318 606 217 l 606 994 l 735 994 l 735 310 q 695 137 735 212 q 583 20 655 62 q 417 -22 512 -22 m 417 -359 q 340 -327 371 -359 q 310 -251 310 -296 q 340 -176 310 -206 q 417 -145 371 -145 q 494 -176 463 -145 q 525 -251 525 -206 q 494 -327 525 -296 q 417 -359 463 -359 z "},"Ủ":{"ha":833,"x_min":99,"x_max":735,"o":"m 417 -22 q 370 -22 417 -22 q 250 20 322 -22 q 139 137 178 62 q 99 310 99 212 l 99 994 l 228 994 l 228 318 q 278 159 228 217 q 417 100 329 100 q 555 159 505 100 q 606 318 606 217 l 606 994 l 735 994 l 735 310 q 695 137 735 212 q 583 20 655 62 q 417 -22 512 -22 m 407 1083 l 391 1183 q 479 1210 449 1190 q 508 1265 508 1231 q 418 1330 508 1330 q 303 1308 362 1330 l 272 1408 q 345 1430 307 1422 q 421 1438 383 1438 q 560 1392 508 1438 q 612 1269 612 1345 q 558 1144 612 1192 q 407 1083 504 1095 z "},"Ư":{"ha":833,"x_min":72,"x_max":820,"o":"m 368 -22 q 213 17 280 -22 q 109 124 147 56 q 72 284 72 193 l 72 994 l 199 994 l 199 292 q 244 152 199 203 q 369 101 290 101 q 493 152 447 101 q 538 292 538 203 l 538 994 l 579 994 q 661 1017 633 994 q 690 1080 690 1039 q 680 1130 690 1106 q 648 1184 669 1155 l 761 1256 q 806 1176 791 1215 q 820 1096 820 1138 q 760 967 820 1014 q 601 919 701 919 l 576 919 l 665 979 l 665 284 q 627 124 665 193 q 524 17 590 56 q 368 -22 457 -22 z "},"Ứ":{"ha":833,"x_min":72,"x_max":823,"o":"m 368 -22 q 324 -22 368 -22 q 213 17 279 -22 q 109 125 146 56 q 72 284 72 194 l 72 994 l 199 994 l 199 292 q 244 152 199 203 q 369 100 289 100 q 493 152 449 100 q 538 292 538 203 l 538 994 l 592 994 q 661 1013 638 994 q 684 1068 684 1031 q 680 1114 684 1091 q 665 1164 675 1138 l 801 1206 q 823 1090 823 1147 q 766 966 823 1010 q 623 922 710 922 l 575 922 l 665 972 l 665 284 q 627 125 665 194 q 524 17 590 56 q 368 -22 457 -22 m 307 1149 l 307 1157 l 430 1399 l 584 1399 l 584 1392 l 426 1149 l 307 1149 z "},"Ừ":{"ha":833,"x_min":72,"x_max":823,"o":"m 368 -22 q 324 -22 368 -22 q 213 17 279 -22 q 109 125 146 56 q 72 284 72 194 l 72 994 l 199 994 l 199 292 q 244 152 199 203 q 369 100 289 100 q 493 152 449 100 q 538 292 538 203 l 538 994 l 592 994 q 661 1013 638 994 q 684 1068 684 1031 q 680 1114 684 1091 q 665 1164 675 1138 l 801 1206 q 823 1090 823 1147 q 766 966 823 1010 q 623 922 710 922 l 575 922 l 665 972 l 665 284 q 627 125 665 194 q 524 17 590 56 q 368 -22 457 -22 m 338 1149 l 181 1392 l 181 1399 l 335 1399 l 457 1157 l 457 1149 l 338 1149 z "},"Ử":{"ha":833,"x_min":72,"x_max":823,"o":"m 368 -22 q 324 -22 368 -22 q 213 17 279 -22 q 109 125 146 56 q 72 284 72 194 l 72 994 l 199 994 l 199 292 q 244 152 199 203 q 369 100 289 100 q 493 152 449 100 q 538 292 538 203 l 538 994 l 592 994 q 661 1013 638 994 q 684 1068 684 1031 q 680 1114 684 1091 q 665 1164 675 1138 l 801 1206 q 823 1090 823 1147 q 766 966 823 1010 q 623 922 710 922 l 575 922 l 665 972 l 665 284 q 627 125 665 194 q 524 17 590 56 q 368 -22 457 -22 m 340 1095 l 324 1195 q 412 1222 383 1201 q 442 1276 442 1242 q 351 1342 442 1342 q 237 1320 295 1342 l 206 1419 q 278 1442 240 1434 q 354 1450 316 1450 q 493 1403 441 1450 q 545 1281 545 1357 q 491 1156 545 1204 q 340 1095 438 1107 z "},"Ữ":{"ha":833,"x_min":72,"x_max":823,"o":"m 368 -22 q 324 -22 368 -22 q 213 17 279 -22 q 109 125 146 56 q 72 284 72 194 l 72 994 l 199 994 l 199 292 q 244 152 199 203 q 369 100 289 100 q 493 152 449 100 q 538 292 538 203 l 538 994 l 592 994 q 661 1013 638 994 q 684 1068 684 1031 q 680 1114 684 1091 q 665 1164 675 1138 l 801 1206 q 823 1090 823 1147 q 766 966 823 1010 q 623 922 710 922 l 575 922 l 665 972 l 665 284 q 627 125 665 194 q 524 17 590 56 q 368 -22 457 -22 m 481 1159 q 411 1177 442 1159 q 341 1242 381 1195 q 297 1287 313 1276 q 263 1298 281 1298 q 218 1227 218 1298 l 218 1162 l 113 1162 l 113 1228 q 150 1357 113 1310 q 251 1403 187 1403 q 318 1386 289 1403 q 388 1319 348 1368 q 431 1276 415 1287 q 465 1265 447 1265 q 510 1335 510 1265 l 510 1401 l 615 1401 l 615 1334 q 580 1205 615 1251 q 481 1159 544 1159 z "},"Ự":{"ha":833,"x_min":72,"x_max":820,"o":"m 368 -22 q 213 17 280 -22 q 109 124 147 56 q 72 284 72 193 l 72 994 l 199 994 l 199 292 q 244 152 199 203 q 369 101 290 101 q 493 152 447 101 q 538 292 538 203 l 538 994 l 579 994 q 661 1017 633 994 q 690 1080 690 1039 q 680 1130 690 1106 q 648 1184 669 1155 l 761 1256 q 806 1176 791 1215 q 820 1096 820 1138 q 760 967 820 1014 q 601 919 701 919 l 576 919 l 665 979 l 665 284 q 627 124 665 193 q 524 17 590 56 q 368 -22 457 -22 m 369 -358 q 292 -327 323 -358 q 262 -251 262 -295 q 292 -175 262 -206 q 369 -144 323 -144 q 446 -175 415 -144 q 477 -251 477 -206 q 446 -327 477 -295 q 369 -358 415 -358 z "},"Ẁ":{"ha":833,"x_min":22,"x_max":812,"o":"m 156 0 l 22 994 l 148 994 l 233 210 l 238 210 l 274 413 l 367 799 l 466 799 l 559 413 l 596 210 l 600 210 l 684 994 l 812 994 l 678 0 l 564 0 l 446 472 l 419 614 l 415 614 l 388 472 l 271 0 l 156 0 m 356 1138 l 199 1380 l 199 1388 l 353 1388 l 476 1145 l 476 1138 l 356 1138 z "},"Ẃ":{"ha":833,"x_min":22,"x_max":812,"o":"m 156 0 l 22 994 l 148 994 l 233 210 l 238 210 l 274 413 l 367 799 l 466 799 l 559 413 l 596 210 l 600 210 l 684 994 l 812 994 l 678 0 l 564 0 l 446 472 l 419 614 l 415 614 l 388 472 l 271 0 l 156 0 m 356 1138 l 356 1145 l 479 1388 l 633 1388 l 633 1380 l 476 1138 l 356 1138 z "},"Ŵ":{"ha":833,"x_min":22,"x_max":812,"o":"m 156 0 l 22 994 l 148 994 l 233 210 l 238 210 l 274 413 l 367 799 l 466 799 l 559 413 l 596 210 l 600 210 l 684 994 l 812 994 l 678 0 l 564 0 l 446 472 l 419 614 l 415 614 l 388 472 l 271 0 l 156 0 m 160 1138 l 160 1145 l 349 1388 l 483 1388 l 672 1145 l 672 1138 l 536 1138 l 401 1332 l 431 1332 l 296 1138 l 160 1138 z "},"Ẅ":{"ha":833,"x_min":22,"x_max":812,"o":"m 156 0 l 22 994 l 148 994 l 233 210 l 238 210 l 274 413 l 367 799 l 466 799 l 559 413 l 596 210 l 600 210 l 684 994 l 812 994 l 678 0 l 564 0 l 446 472 l 419 614 l 415 614 l 388 472 l 271 0 l 156 0 m 265 1155 q 193 1184 222 1155 q 163 1256 163 1214 q 193 1328 163 1299 q 265 1358 223 1358 q 338 1328 308 1358 q 367 1257 367 1299 q 338 1184 367 1214 q 265 1155 308 1155 m 567 1155 q 495 1184 525 1155 q 466 1256 466 1214 q 496 1328 466 1299 q 567 1358 526 1358 q 640 1328 610 1358 q 670 1257 670 1299 q 641 1184 670 1214 q 567 1155 611 1155 z "},"Ỳ":{"ha":833,"x_min":45,"x_max":788,"o":"m 360 364 l 45 994 l 190 994 l 347 669 l 417 510 l 422 510 l 489 669 l 648 994 l 788 994 l 474 364 l 360 364 m 352 0 l 352 435 l 481 435 l 481 0 l 352 0 m 359 1138 l 202 1380 l 202 1388 l 356 1388 l 478 1145 l 478 1138 l 359 1138 z "},"Ý":{"ha":833,"x_min":45,"x_max":788,"o":"m 360 364 l 45 994 l 190 994 l 347 669 l 417 510 l 422 510 l 489 669 l 648 994 l 788 994 l 474 364 l 360 364 m 352 0 l 352 435 l 481 435 l 481 0 l 352 0 m 359 1138 l 359 1145 l 482 1388 l 636 1388 l 636 1380 l 478 1138 l 359 1138 z "},"Ŷ":{"ha":833,"x_min":45,"x_max":788,"o":"m 360 364 l 45 994 l 190 994 l 347 669 l 417 510 l 422 510 l 489 669 l 648 994 l 788 994 l 474 364 l 360 364 m 352 0 l 352 435 l 481 435 l 481 0 l 352 0 m 163 1138 l 163 1145 l 351 1388 l 486 1388 l 675 1145 l 675 1138 l 539 1138 l 404 1332 l 434 1332 l 299 1138 l 163 1138 z "},"Ÿ":{"ha":833,"x_min":45,"x_max":788,"o":"m 360 364 l 45 994 l 190 994 l 347 669 l 417 510 l 422 510 l 489 669 l 648 994 l 788 994 l 474 364 l 360 364 m 352 0 l 352 435 l 481 435 l 481 0 l 352 0 m 267 1155 q 195 1184 225 1155 q 166 1256 166 1214 q 196 1328 166 1299 q 267 1358 226 1358 q 340 1328 310 1358 q 370 1257 370 1299 q 341 1184 370 1214 q 267 1155 311 1155 m 570 1155 q 498 1184 528 1155 q 469 1256 469 1214 q 499 1328 469 1299 q 570 1358 528 1358 q 643 1328 613 1358 q 673 1257 673 1299 q 643 1184 673 1214 q 570 1155 614 1155 z "},"Ỵ":{"ha":833,"x_min":45,"x_max":788,"o":"m 360 364 l 45 994 l 190 994 l 347 669 l 417 510 l 422 510 l 489 669 l 648 994 l 788 994 l 474 364 l 360 364 m 352 0 l 352 435 l 481 435 l 481 0 l 352 0 m 417 -337 q 340 -305 371 -337 q 310 -229 310 -274 q 340 -153 310 -184 q 417 -123 371 -123 q 494 -153 463 -123 q 525 -229 525 -184 q 494 -305 525 -274 q 417 -337 463 -337 z "},"Ỷ":{"ha":833,"x_min":45,"x_max":788,"o":"m 360 364 l 45 994 l 190 994 l 347 669 l 417 510 l 422 510 l 489 669 l 648 994 l 788 994 l 474 364 l 360 364 m 352 0 l 352 435 l 481 435 l 481 0 l 352 0 m 409 1083 l 393 1183 q 481 1210 451 1190 q 510 1265 510 1231 q 420 1330 510 1330 q 306 1308 364 1330 l 274 1408 q 347 1430 309 1422 q 423 1438 385 1438 q 562 1392 510 1438 q 614 1269 614 1345 q 560 1144 614 1192 q 409 1083 506 1095 z "},"Ỹ":{"ha":833,"x_min":45,"x_max":788,"o":"m 360 364 l 45 994 l 190 994 l 347 669 l 417 510 l 422 510 l 489 669 l 648 994 l 788 994 l 474 364 l 360 364 m 352 0 l 352 435 l 481 435 l 481 0 l 352 0 m 535 1144 q 466 1163 497 1144 q 396 1228 435 1181 q 352 1272 368 1261 q 318 1283 336 1283 q 273 1213 273 1283 l 273 1147 l 168 1147 l 168 1214 q 205 1342 168 1296 q 306 1389 242 1389 q 373 1371 344 1389 q 443 1304 403 1353 q 486 1261 469 1272 q 520 1250 502 1250 q 565 1321 565 1250 l 565 1386 l 670 1386 l 670 1319 q 635 1191 670 1237 q 535 1144 599 1144 z "},"Ƴ":{"ha":833,"x_min":24,"x_max":833,"o":"m 299 353 l 24 994 l 168 994 l 301 663 l 356 504 l 360 504 l 407 653 l 442 748 q 514 903 477 844 q 597 989 551 963 q 703 1016 643 1016 q 770 1008 740 1016 q 833 980 801 999 l 783 874 q 751 889 767 884 q 715 894 735 894 q 655 877 681 894 q 605 818 628 860 q 551 701 581 776 l 414 353 l 299 353 m 292 0 l 292 424 l 422 424 l 422 0 l 292 0 z "},"Ź":{"ha":833,"x_min":100,"x_max":733,"o":"m 100 0 l 100 111 l 573 873 l 118 873 l 118 994 l 722 994 l 722 883 l 250 122 l 733 122 l 733 0 l 100 0 m 360 1138 l 360 1145 l 483 1388 l 638 1388 l 638 1380 l 480 1138 l 360 1138 z "},"Ż":{"ha":833,"x_min":100,"x_max":733,"o":"m 100 0 l 100 111 l 573 873 l 118 873 l 118 994 l 722 994 l 722 883 l 250 122 l 733 122 l 733 0 l 100 0 m 420 1155 q 344 1186 374 1155 q 313 1263 313 1218 q 344 1338 313 1308 q 420 1369 374 1369 q 498 1338 467 1369 q 528 1263 528 1308 q 498 1186 528 1218 q 420 1155 467 1155 z "},"Ž":{"ha":833,"x_min":100,"x_max":733,"o":"m 100 0 l 100 111 l 573 873 l 118 873 l 118 994 l 722 994 l 722 883 l 250 122 l 733 122 l 733 0 l 100 0 m 353 1138 l 164 1380 l 164 1388 l 300 1388 l 433 1193 l 408 1193 l 540 1388 l 676 1388 l 676 1380 l 488 1138 l 353 1138 z "},"à":{"ha":833,"x_min":113,"x_max":699,"o":"m 365 -22 q 233 7 290 -22 q 144 89 176 37 q 113 210 113 142 l 113 220 q 189 398 113 332 q 390 465 265 465 q 498 451 447 465 q 588 415 549 438 l 588 317 q 412 365 514 365 q 287 327 333 365 q 240 225 240 290 l 240 218 q 280 121 240 156 q 388 86 320 86 q 486 114 444 86 q 552 190 528 141 q 576 300 576 238 l 576 474 q 536 594 576 551 q 416 638 497 638 q 228 556 309 638 l 150 640 q 417 749 252 749 q 625 676 551 749 q 699 478 699 602 l 699 0 l 582 0 l 582 106 l 577 106 q 492 12 545 46 q 365 -22 438 -22 m 385 870 l 228 1113 l 228 1120 l 383 1120 l 505 878 l 505 870 l 385 870 z "},"á":{"ha":833,"x_min":113,"x_max":699,"o":"m 365 -22 q 233 7 290 -22 q 144 89 176 37 q 113 210 113 142 l 113 220 q 189 398 113 332 q 390 465 265 465 q 498 451 447 465 q 588 415 549 438 l 588 317 q 412 365 514 365 q 287 327 333 365 q 240 225 240 290 l 240 218 q 280 121 240 156 q 388 86 320 86 q 486 114 444 86 q 552 190 528 141 q 576 300 576 238 l 576 474 q 536 594 576 551 q 416 638 497 638 q 228 556 309 638 l 150 640 q 417 749 252 749 q 625 676 551 749 q 699 478 699 602 l 699 0 l 582 0 l 582 106 l 577 106 q 492 12 545 46 q 365 -22 438 -22 m 341 870 l 341 878 l 464 1120 l 618 1120 l 618 1113 l 460 870 l 341 870 z "},"â":{"ha":833,"x_min":113,"x_max":699,"o":"m 365 -22 q 233 7 290 -22 q 144 89 176 37 q 113 210 113 142 l 113 220 q 189 398 113 332 q 390 465 265 465 q 498 451 447 465 q 588 415 549 438 l 588 317 q 412 365 514 365 q 287 327 333 365 q 240 225 240 290 l 240 218 q 280 121 240 156 q 388 86 320 86 q 486 114 444 86 q 552 190 528 141 q 576 300 576 238 l 576 474 q 536 594 576 551 q 416 638 497 638 q 228 556 309 638 l 150 640 q 417 749 252 749 q 625 676 551 749 q 699 478 699 602 l 699 0 l 582 0 l 582 106 l 577 106 q 492 12 545 46 q 365 -22 438 -22 m 160 870 l 160 878 l 349 1120 l 484 1120 l 673 878 l 673 870 l 537 870 l 402 1065 l 432 1065 l 297 870 l 160 870 z "},"ã":{"ha":833,"x_min":113,"x_max":699,"o":"m 365 -22 q 233 7 290 -22 q 144 89 176 37 q 113 210 113 142 l 113 220 q 189 398 113 332 q 390 465 265 465 q 498 451 447 465 q 588 415 549 438 l 588 317 q 412 365 514 365 q 287 327 333 365 q 240 225 240 290 l 240 218 q 280 121 240 156 q 388 86 320 86 q 486 114 444 86 q 552 190 528 141 q 576 300 576 238 l 576 474 q 536 594 576 551 q 416 638 497 638 q 228 556 309 638 l 150 640 q 417 749 252 749 q 625 676 551 749 q 699 478 699 602 l 699 0 l 582 0 l 582 106 l 577 106 q 492 12 545 46 q 365 -22 438 -22 m 533 877 q 464 895 495 877 q 394 960 433 913 q 350 1005 366 994 q 316 1016 334 1016 q 271 945 271 1016 l 271 880 l 166 880 l 166 947 q 203 1075 166 1028 q 304 1122 240 1122 q 371 1104 342 1122 q 441 1037 401 1086 q 484 994 467 1005 q 518 983 500 983 q 563 1053 563 983 l 563 1119 l 668 1119 l 668 1052 q 633 923 668 969 q 533 877 597 877 z "},"ā":{"ha":833,"x_min":113,"x_max":699,"o":"m 365 -22 q 233 7 290 -22 q 144 89 176 37 q 113 210 113 142 l 113 220 q 189 398 113 332 q 390 465 265 465 q 498 451 447 465 q 588 415 549 438 l 588 317 q 412 365 514 365 q 287 327 333 365 q 240 225 240 290 l 240 218 q 280 121 240 156 q 388 86 320 86 q 486 114 444 86 q 552 190 528 141 q 576 300 576 238 l 576 474 q 536 594 576 551 q 416 638 497 638 q 228 556 309 638 l 150 640 q 417 749 252 749 q 625 676 551 749 q 699 478 699 602 l 699 0 l 582 0 l 582 106 l 577 106 q 492 12 545 46 q 365 -22 438 -22 m 197 931 l 197 1045 l 637 1045 l 637 931 l 197 931 z "},"ä":{"ha":833,"x_min":113,"x_max":699,"o":"m 365 -22 q 233 7 290 -22 q 144 89 176 37 q 113 210 113 142 l 113 220 q 189 398 113 332 q 390 465 265 465 q 498 451 447 465 q 588 415 549 438 l 588 317 q 412 365 514 365 q 287 327 333 365 q 240 225 240 290 l 240 218 q 280 121 240 156 q 388 86 320 86 q 486 114 444 86 q 552 190 528 141 q 576 300 576 238 l 576 474 q 536 594 576 551 q 416 638 497 638 q 228 556 309 638 l 150 640 q 417 749 252 749 q 625 676 551 749 q 699 478 699 602 l 699 0 l 582 0 l 582 106 l 577 106 q 492 12 545 46 q 365 -22 438 -22 m 265 888 q 193 917 223 888 q 164 989 164 947 q 194 1061 164 1031 q 265 1090 224 1090 q 338 1061 308 1090 q 368 989 368 1032 q 339 917 368 947 q 265 888 309 888 m 568 888 q 496 917 526 888 q 467 989 467 947 q 497 1061 467 1031 q 568 1090 526 1090 q 641 1061 611 1090 q 671 989 671 1032 q 641 917 671 947 q 568 888 612 888 z "},"å":{"ha":833,"x_min":113,"x_max":699,"o":"m 365 -22 q 233 7 290 -22 q 144 89 176 37 q 113 210 113 142 l 113 220 q 189 398 113 332 q 390 465 265 465 q 498 451 447 465 q 588 415 549 438 l 588 317 q 412 365 514 365 q 287 327 333 365 q 240 225 240 290 l 240 218 q 280 121 240 156 q 388 86 320 86 q 486 114 444 86 q 552 190 528 141 q 576 300 576 238 l 576 474 q 536 594 576 551 q 416 638 497 638 q 228 556 309 638 l 150 640 q 417 749 252 749 q 625 676 551 749 q 699 478 699 602 l 699 0 l 582 0 l 582 106 l 577 106 q 492 12 545 46 q 365 -22 438 -22 m 417 806 q 389 806 417 806 q 316 831 360 806 q 245 899 272 856 q 219 997 219 942 q 245 1094 219 1051 q 316 1163 272 1138 q 417 1188 360 1188 q 517 1163 473 1188 q 588 1094 562 1138 q 614 997 614 1051 q 588 899 614 942 q 517 831 562 856 q 417 806 473 806 m 417 901 q 437 901 417 901 q 484 928 458 901 q 511 997 511 956 q 484 1065 511 1038 q 417 1092 458 1092 q 349 1065 376 1092 q 322 997 322 1038 q 349 928 322 956 q 417 901 376 901 z "},"æ":{"ha":833,"x_min":16,"x_max":814,"o":"m 228 -22 q 118 8 166 -22 q 43 93 70 39 q 16 218 16 147 l 16 224 q 77 399 16 333 q 236 465 138 465 q 363 431 306 465 l 363 334 q 260 364 317 364 q 170 328 203 364 q 138 229 138 293 l 138 217 q 166 121 138 157 q 240 85 193 85 q 323 137 294 85 q 351 288 351 189 l 351 485 q 327 602 351 565 q 250 640 302 640 q 127 568 182 640 l 44 640 q 250 749 127 749 q 386 697 335 749 q 450 546 438 645 l 394 546 q 472 694 415 639 q 604 749 529 749 q 759 665 704 749 q 814 427 814 581 q 813 382 814 407 q 811 328 813 357 l 424 328 l 424 426 l 697 426 l 697 431 q 593 640 697 640 q 497 569 533 640 q 462 376 462 498 l 462 354 q 498 157 462 228 q 597 86 533 86 q 660 111 633 86 q 713 192 688 136 l 810 146 q 721 19 773 61 q 600 -22 669 -22 q 457 41 517 -22 q 381 210 398 103 l 441 210 q 368 38 423 97 q 228 -22 313 -22 z "},"ǽ":{"ha":833,"x_min":16,"x_max":814,"o":"m 228 -22 q 118 8 166 -22 q 43 93 70 39 q 16 218 16 147 l 16 224 q 77 399 16 333 q 236 465 138 465 q 363 431 306 465 l 363 334 q 260 364 317 364 q 170 328 203 364 q 138 229 138 293 l 138 217 q 166 121 138 157 q 240 85 193 85 q 323 137 294 85 q 351 288 351 189 l 351 485 q 327 602 351 565 q 250 640 302 640 q 127 568 182 640 l 44 640 q 250 749 127 749 q 386 697 335 749 q 450 546 438 645 l 394 546 q 472 694 415 639 q 604 749 529 749 q 759 665 704 749 q 814 427 814 581 q 813 382 814 407 q 811 328 813 357 l 424 328 l 424 426 l 697 426 l 697 431 q 593 640 697 640 q 497 569 533 640 q 462 376 462 498 l 462 354 q 498 157 462 228 q 597 86 533 86 q 660 111 633 86 q 713 192 688 136 l 810 146 q 721 19 773 61 q 600 -22 669 -22 q 457 41 517 -22 q 381 210 398 103 l 441 210 q 368 38 423 97 q 228 -22 313 -22 m 369 870 l 369 878 l 492 1120 l 647 1120 l 647 1113 l 489 870 l 369 870 z "},"ă":{"ha":833,"x_min":113,"x_max":699,"o":"m 365 -22 q 233 7 290 -22 q 144 89 176 37 q 113 210 113 142 l 113 220 q 189 398 113 332 q 390 465 265 465 q 498 451 447 465 q 588 415 549 438 l 588 317 q 412 365 514 365 q 287 327 333 365 q 240 225 240 290 l 240 218 q 280 121 240 156 q 388 86 320 86 q 486 114 444 86 q 552 190 528 141 q 576 300 576 238 l 576 474 q 536 594 576 551 q 416 638 497 638 q 228 556 309 638 l 150 640 q 417 749 252 749 q 625 676 551 749 q 699 478 699 602 l 699 0 l 582 0 l 582 106 l 577 106 q 492 12 545 46 q 365 -22 438 -22 m 417 867 q 381 867 417 867 q 291 898 346 867 q 206 984 237 929 q 175 1110 175 1039 l 175 1120 l 288 1120 l 288 1106 q 323 1008 288 1044 q 417 971 358 971 q 511 1008 476 971 q 546 1106 546 1044 l 546 1120 l 658 1120 l 658 1110 q 627 984 658 1039 q 542 898 597 929 q 417 867 488 867 z "},"ą":{"ha":833,"x_min":113,"x_max":756,"o":"m 633 -371 q 537 -348 579 -371 q 470 -285 494 -325 q 446 -195 446 -245 q 500 -54 446 -118 q 666 60 555 10 l 699 0 q 590 -87 624 -44 q 556 -181 556 -129 q 582 -244 556 -219 q 649 -268 608 -268 q 724 -250 688 -268 l 756 -340 q 633 -371 700 -371 m 365 -22 q 233 7 290 -22 q 144 89 176 37 q 113 210 113 142 l 113 220 q 189 398 113 332 q 390 465 265 465 q 498 451 447 465 q 588 415 549 438 l 588 317 q 412 365 514 365 q 287 327 333 365 q 240 225 240 290 l 240 218 q 280 121 240 156 q 388 86 320 86 q 486 114 444 86 q 552 190 528 141 q 576 300 576 238 l 576 474 q 536 594 576 551 q 416 638 497 638 q 228 556 309 638 l 150 640 q 417 749 252 749 q 625 676 551 749 q 699 478 699 602 l 699 0 l 582 0 l 582 106 l 577 106 q 492 12 545 46 q 365 -22 438 -22 z "},"ạ":{"ha":833,"x_min":113,"x_max":699,"o":"m 365 -22 q 233 7 290 -22 q 144 89 176 37 q 113 210 113 142 l 113 220 q 189 398 113 332 q 390 465 265 465 q 498 451 447 465 q 588 415 549 438 l 588 317 q 412 365 514 365 q 287 327 333 365 q 240 225 240 290 l 240 218 q 280 121 240 156 q 388 86 320 86 q 486 114 444 86 q 552 190 528 141 q 576 300 576 238 l 576 474 q 536 594 576 551 q 416 638 497 638 q 228 556 309 638 l 150 640 q 417 749 252 749 q 625 676 551 749 q 699 478 699 602 l 699 0 l 582 0 l 582 106 l 577 106 q 492 12 545 46 q 365 -22 438 -22 m 426 -359 q 350 -327 381 -359 q 319 -251 319 -296 q 350 -176 319 -206 q 426 -145 381 -145 q 504 -176 473 -145 q 535 -251 535 -206 q 504 -327 535 -296 q 426 -359 473 -359 z "},"ả":{"ha":833,"x_min":113,"x_max":699,"o":"m 365 -22 q 233 7 290 -22 q 144 89 176 37 q 113 210 113 142 l 113 220 q 189 398 113 332 q 390 465 265 465 q 498 451 447 465 q 588 415 549 438 l 588 317 q 412 365 514 365 q 287 327 333 365 q 240 225 240 290 l 240 218 q 280 121 240 156 q 388 86 320 86 q 486 114 444 86 q 552 190 528 141 q 576 300 576 238 l 576 474 q 536 594 576 551 q 416 638 497 638 q 228 556 309 638 l 150 640 q 417 749 252 749 q 625 676 551 749 q 699 478 699 602 l 699 0 l 582 0 l 582 106 l 577 106 q 492 12 545 46 q 365 -22 438 -22 m 407 816 l 391 916 q 479 943 449 922 q 508 997 508 963 q 418 1063 508 1063 q 303 1041 362 1063 l 272 1140 q 345 1163 307 1155 q 421 1171 383 1171 q 560 1124 508 1171 q 612 1001 612 1078 q 558 876 612 925 q 407 816 504 828 z "},"ấ":{"ha":833,"x_min":113,"x_max":804,"o":"m 365 -22 q 233 7 290 -22 q 144 89 176 37 q 113 210 113 142 l 113 220 q 189 398 113 332 q 390 465 265 465 q 498 451 447 465 q 588 415 549 438 l 588 317 q 412 365 514 365 q 287 327 333 365 q 240 225 240 290 l 240 218 q 280 121 240 156 q 388 86 320 86 q 486 114 444 86 q 552 190 528 141 q 576 300 576 238 l 576 474 q 536 594 576 551 q 416 638 497 638 q 228 556 309 638 l 150 640 q 417 749 252 749 q 625 676 551 749 q 699 478 699 602 l 699 0 l 582 0 l 582 106 l 577 106 q 492 12 545 46 q 365 -22 438 -22 m 151 854 l 151 862 l 354 1094 l 479 1094 l 683 862 l 683 854 l 544 854 l 404 1029 l 430 1029 l 290 854 l 151 854 m 558 1063 l 558 1071 l 672 1320 l 804 1320 l 804 1313 l 654 1063 l 558 1063 z "},"ầ":{"ha":833,"x_min":113,"x_max":740,"o":"m 365 -22 q 233 7 290 -22 q 144 89 176 37 q 113 210 113 142 l 113 220 q 189 398 113 332 q 390 465 265 465 q 498 451 447 465 q 588 415 549 438 l 588 317 q 412 365 514 365 q 287 327 333 365 q 240 225 240 290 l 240 218 q 280 121 240 156 q 388 86 320 86 q 486 114 444 86 q 552 190 528 141 q 576 300 576 238 l 576 474 q 536 594 576 551 q 416 638 497 638 q 228 556 309 638 l 150 640 q 417 749 252 749 q 625 676 551 749 q 699 478 699 602 l 699 0 l 582 0 l 582 106 l 577 106 q 492 12 545 46 q 365 -22 438 -22 m 151 854 l 151 862 l 354 1094 l 479 1094 l 683 862 l 683 854 l 544 854 l 404 1029 l 430 1029 l 290 854 l 151 854 m 641 1058 l 483 1307 l 483 1315 l 617 1315 l 740 1065 l 740 1058 l 641 1058 z "},"ẩ":{"ha":833,"x_min":113,"x_max":776,"o":"m 365 -22 q 233 7 290 -22 q 144 89 176 37 q 113 210 113 142 l 113 220 q 189 398 113 332 q 390 465 265 465 q 498 451 447 465 q 588 415 549 438 l 588 317 q 412 365 514 365 q 287 327 333 365 q 240 225 240 290 l 240 218 q 280 121 240 156 q 388 86 320 86 q 486 114 444 86 q 552 190 528 141 q 576 300 576 238 l 576 474 q 536 594 576 551 q 416 638 497 638 q 228 556 309 638 l 150 640 q 417 749 252 749 q 625 676 551 749 q 699 478 699 602 l 699 0 l 582 0 l 582 106 l 577 106 q 492 12 545 46 q 365 -22 438 -22 m 151 854 l 151 862 l 354 1094 l 479 1094 l 683 862 l 683 854 l 544 854 l 404 1029 l 430 1029 l 290 854 l 151 854 m 594 1038 l 582 1129 q 681 1198 681 1138 q 601 1258 681 1258 q 512 1243 556 1258 l 487 1335 q 605 1356 539 1356 q 730 1314 683 1356 q 776 1203 776 1273 q 728 1089 776 1132 q 594 1038 681 1045 z "},"ẫ":{"ha":833,"x_min":113,"x_max":699,"o":"m 365 -22 q 233 7 290 -22 q 144 89 176 37 q 113 210 113 142 l 113 220 q 189 398 113 332 q 390 465 265 465 q 498 451 447 465 q 588 415 549 438 l 588 317 q 412 365 514 365 q 287 327 333 365 q 240 225 240 290 l 240 218 q 280 121 240 156 q 388 86 320 86 q 486 114 444 86 q 552 190 528 141 q 576 300 576 238 l 576 474 q 536 594 576 551 q 416 638 497 638 q 228 556 309 638 l 150 640 q 417 749 252 749 q 625 676 551 749 q 699 478 699 602 l 699 0 l 582 0 l 582 106 l 577 106 q 492 12 545 46 q 365 -22 438 -22 m 151 854 l 151 862 l 354 1094 l 479 1094 l 683 862 l 683 854 l 544 854 l 404 1029 l 430 1029 l 290 854 l 151 854 m 530 1167 q 466 1180 494 1167 q 407 1223 438 1194 q 357 1265 374 1255 q 322 1276 340 1276 q 276 1204 276 1276 l 276 1168 l 172 1168 l 172 1206 q 208 1330 172 1284 q 308 1375 245 1375 q 371 1361 344 1375 q 428 1318 398 1348 q 478 1277 460 1288 q 515 1266 497 1266 q 558 1337 558 1266 l 558 1374 l 663 1374 l 663 1336 q 627 1211 663 1256 q 530 1167 592 1167 z "},"ậ":{"ha":833,"x_min":113,"x_max":699,"o":"m 365 -22 q 233 7 290 -22 q 144 89 176 37 q 113 210 113 142 l 113 220 q 189 398 113 332 q 390 465 265 465 q 498 451 447 465 q 588 415 549 438 l 588 317 q 412 365 514 365 q 287 327 333 365 q 240 225 240 290 l 240 218 q 280 121 240 156 q 388 86 320 86 q 486 114 444 86 q 552 190 528 141 q 576 300 576 238 l 576 474 q 536 594 576 551 q 416 638 497 638 q 228 556 309 638 l 150 640 q 417 749 252 749 q 625 676 551 749 q 699 478 699 602 l 699 0 l 582 0 l 582 106 l 577 106 q 492 12 545 46 q 365 -22 438 -22 m 426 -359 q 350 -327 381 -359 q 319 -251 319 -296 q 350 -176 319 -206 q 426 -145 381 -145 q 504 -176 473 -145 q 535 -251 535 -206 q 504 -327 535 -296 q 426 -359 473 -359 m 160 870 l 160 878 l 349 1120 l 484 1120 l 673 878 l 673 870 l 537 870 l 402 1065 l 432 1065 l 297 870 l 160 870 z "},"ắ":{"ha":833,"x_min":113,"x_max":699,"o":"m 365 -22 q 233 7 290 -22 q 144 89 176 37 q 113 210 113 142 l 113 220 q 189 398 113 332 q 390 465 265 465 q 498 451 447 465 q 588 415 549 438 l 588 317 q 412 365 514 365 q 287 327 333 365 q 240 225 240 290 l 240 218 q 280 121 240 156 q 388 86 320 86 q 486 114 444 86 q 552 190 528 141 q 576 300 576 238 l 576 474 q 536 594 576 551 q 416 638 497 638 q 228 556 309 638 l 150 640 q 417 749 252 749 q 625 676 551 749 q 699 478 699 602 l 699 0 l 582 0 l 582 106 l 577 106 q 492 12 545 46 q 365 -22 438 -22 m 417 840 q 380 840 417 840 q 287 871 343 840 q 199 958 231 903 q 167 1084 167 1013 l 167 1093 l 273 1093 l 273 1083 q 310 976 273 1017 q 417 935 347 935 q 524 976 488 935 q 561 1083 561 1017 l 561 1093 l 667 1093 l 667 1084 q 635 958 667 1013 q 547 871 603 903 q 417 840 490 840 m 344 1081 l 344 1089 l 456 1345 l 598 1345 l 598 1338 l 435 1081 l 344 1081 z "},"ằ":{"ha":833,"x_min":113,"x_max":699,"o":"m 365 -22 q 233 7 290 -22 q 144 89 176 37 q 113 210 113 142 l 113 220 q 189 398 113 332 q 390 465 265 465 q 498 451 447 465 q 588 415 549 438 l 588 317 q 412 365 514 365 q 287 327 333 365 q 240 225 240 290 l 240 218 q 280 121 240 156 q 388 86 320 86 q 486 114 444 86 q 552 190 528 141 q 576 300 576 238 l 576 474 q 536 594 576 551 q 416 638 497 638 q 228 556 309 638 l 150 640 q 417 749 252 749 q 625 676 551 749 q 699 478 699 602 l 699 0 l 582 0 l 582 106 l 577 106 q 492 12 545 46 q 365 -22 438 -22 m 417 840 q 380 840 417 840 q 287 871 343 840 q 199 958 231 903 q 167 1084 167 1013 l 167 1093 l 273 1093 l 273 1083 q 310 976 273 1017 q 417 935 347 935 q 524 976 488 935 q 561 1083 561 1017 l 561 1093 l 667 1093 l 667 1084 q 635 958 667 1013 q 547 871 603 903 q 417 840 490 840 m 404 1081 l 247 1338 l 247 1345 l 383 1345 l 495 1089 l 495 1081 l 404 1081 z "},"ẳ":{"ha":833,"x_min":113,"x_max":699,"o":"m 365 -22 q 233 7 290 -22 q 144 89 176 37 q 113 210 113 142 l 113 220 q 189 398 113 332 q 390 465 265 465 q 498 451 447 465 q 588 415 549 438 l 588 317 q 412 365 514 365 q 287 327 333 365 q 240 225 240 290 l 240 218 q 280 121 240 156 q 388 86 320 86 q 486 114 444 86 q 552 190 528 141 q 576 300 576 238 l 576 474 q 536 594 576 551 q 416 638 497 638 q 228 556 309 638 l 150 640 q 417 749 252 749 q 625 676 551 749 q 699 478 699 602 l 699 0 l 582 0 l 582 106 l 577 106 q 492 12 545 46 q 365 -22 438 -22 m 423 840 q 290 871 349 840 q 199 958 232 903 q 165 1085 165 1013 l 165 1094 l 270 1094 l 270 1083 q 309 976 270 1017 q 423 935 347 935 q 538 976 499 935 q 576 1083 576 1017 l 576 1094 l 681 1094 l 681 1085 q 647 958 681 1013 q 556 871 614 903 q 423 840 498 840 m 376 1053 l 365 1144 q 467 1215 467 1149 q 381 1276 467 1276 q 294 1262 339 1276 l 267 1351 q 385 1372 323 1372 q 513 1331 465 1372 q 560 1220 560 1290 q 511 1104 560 1149 q 376 1053 462 1059 z "},"ẵ":{"ha":833,"x_min":113,"x_max":699,"o":"m 365 -22 q 233 7 290 -22 q 144 89 176 37 q 113 210 113 142 l 113 220 q 189 398 113 332 q 390 465 265 465 q 498 451 447 465 q 588 415 549 438 l 588 317 q 412 365 514 365 q 287 327 333 365 q 240 225 240 290 l 240 218 q 280 121 240 156 q 388 86 320 86 q 486 114 444 86 q 552 190 528 141 q 576 300 576 238 l 576 474 q 536 594 576 551 q 416 638 497 638 q 228 556 309 638 l 150 640 q 417 749 252 749 q 625 676 551 749 q 699 478 699 602 l 699 0 l 582 0 l 582 106 l 577 106 q 492 12 545 46 q 365 -22 438 -22 m 423 840 q 296 869 351 840 q 212 951 242 899 q 182 1072 182 1004 l 182 1081 l 288 1081 l 288 1070 q 324 973 288 1009 q 423 936 360 936 q 522 973 486 936 q 558 1070 558 1009 l 558 1081 l 665 1081 l 665 1072 q 635 951 665 1004 q 550 869 605 899 q 423 840 496 840 m 546 1151 q 476 1166 507 1151 q 413 1213 446 1182 q 358 1259 377 1247 q 319 1272 340 1272 q 284 1257 298 1272 q 271 1217 271 1243 l 271 1153 l 167 1153 l 167 1223 q 204 1332 167 1292 q 303 1371 241 1371 q 372 1355 343 1371 q 435 1308 401 1339 q 491 1262 471 1274 q 531 1250 510 1250 q 576 1305 576 1250 l 576 1368 l 680 1368 l 680 1299 q 644 1191 680 1231 q 546 1151 608 1151 z "},"ặ":{"ha":833,"x_min":113,"x_max":699,"o":"m 365 -22 q 233 7 290 -22 q 144 89 176 37 q 113 210 113 142 l 113 220 q 189 398 113 332 q 390 465 265 465 q 498 451 447 465 q 588 415 549 438 l 588 317 q 412 365 514 365 q 287 327 333 365 q 240 225 240 290 l 240 218 q 280 121 240 156 q 388 86 320 86 q 486 114 444 86 q 552 190 528 141 q 576 300 576 238 l 576 474 q 536 594 576 551 q 416 638 497 638 q 228 556 309 638 l 150 640 q 417 749 252 749 q 625 676 551 749 q 699 478 699 602 l 699 0 l 582 0 l 582 106 l 577 106 q 492 12 545 46 q 365 -22 438 -22 m 426 -359 q 350 -327 381 -359 q 319 -251 319 -296 q 350 -176 319 -206 q 426 -145 381 -145 q 504 -176 473 -145 q 535 -251 535 -206 q 504 -327 535 -296 q 426 -359 473 -359 m 417 867 q 381 867 417 867 q 291 898 346 867 q 206 984 237 929 q 175 1110 175 1039 l 175 1120 l 288 1120 l 288 1106 q 323 1008 288 1044 q 417 971 358 971 q 511 1008 476 971 q 546 1106 546 1044 l 546 1120 l 658 1120 l 658 1110 q 627 984 658 1039 q 542 898 597 929 q 417 867 488 867 z "},"ɓ":{"ha":833,"x_min":106,"x_max":747,"o":"m 453 -22 q 321 15 380 -22 q 227 119 262 52 l 222 119 l 222 0 l 106 0 l 106 744 q 180 958 106 878 q 381 1038 253 1038 q 466 1028 427 1038 q 545 996 504 1018 l 498 890 q 444 911 470 905 q 384 918 419 918 q 270 874 308 918 q 232 738 232 829 l 232 615 l 236 615 q 334 711 276 678 q 464 744 392 744 q 613 698 549 744 q 711 568 676 651 q 747 374 747 485 l 747 349 q 710 155 747 238 q 607 24 673 71 q 453 -22 542 -22 m 426 92 q 566 161 515 92 q 617 352 617 231 l 617 370 q 566 561 617 492 q 426 630 515 630 q 282 559 335 630 q 228 370 228 488 l 228 353 q 282 163 228 234 q 426 92 335 92 z "},"ç":{"ha":833,"x_min":117,"x_max":758,"o":"m 468 -22 q 284 26 363 -22 q 161 158 205 73 q 117 355 117 242 l 117 373 q 160 570 117 485 q 280 701 203 654 q 458 749 357 749 q 628 703 559 749 q 740 574 697 658 l 635 514 q 564 602 607 572 q 458 632 520 632 q 302 564 360 632 q 245 378 245 496 l 245 349 q 306 165 245 233 q 467 96 366 96 q 575 125 528 96 q 656 215 622 153 l 758 150 q 682 56 726 94 q 584 -2 638 17 q 468 -22 531 -22 m 469 -427 q 361 -402 412 -427 q 276 -331 310 -376 l 352 -268 q 469 -331 403 -331 q 535 -310 510 -331 q 560 -252 560 -288 q 538 -192 560 -215 q 478 -169 515 -169 q 405 -195 433 -169 l 339 -139 l 431 10 l 517 10 l 419 -145 l 369 -137 q 427 -98 393 -112 q 497 -84 460 -84 q 618 -131 572 -84 q 665 -253 665 -177 q 611 -379 665 -331 q 469 -427 557 -427 z "},"ć":{"ha":833,"x_min":117,"x_max":758,"o":"m 468 -22 q 284 26 363 -22 q 161 158 205 73 q 117 355 117 242 l 117 373 q 160 570 117 485 q 280 701 203 654 q 458 749 357 749 q 628 703 559 749 q 740 574 697 658 l 635 514 q 564 602 607 572 q 458 632 520 632 q 302 564 360 632 q 245 378 245 496 l 245 349 q 306 165 245 233 q 467 96 366 96 q 575 125 528 96 q 656 215 622 153 l 758 150 q 682 56 726 94 q 584 -2 638 17 q 468 -22 531 -22 m 399 870 l 399 878 l 522 1120 l 676 1120 l 676 1113 l 518 870 l 399 870 z "},"ċ":{"ha":833,"x_min":117,"x_max":758,"o":"m 468 -22 q 284 26 363 -22 q 161 158 205 73 q 117 355 117 242 l 117 373 q 160 570 117 485 q 280 701 203 654 q 458 749 357 749 q 628 703 559 749 q 740 574 697 658 l 635 514 q 564 602 607 572 q 458 632 520 632 q 302 564 360 632 q 245 378 245 496 l 245 349 q 306 165 245 233 q 467 96 366 96 q 575 125 528 96 q 656 215 622 153 l 758 150 q 682 56 726 94 q 584 -2 638 17 q 468 -22 531 -22 m 458 888 q 382 919 413 888 q 351 995 351 951 q 382 1071 351 1040 q 458 1101 413 1101 q 536 1071 505 1101 q 567 995 567 1040 q 536 919 567 951 q 458 888 505 888 z "},"č":{"ha":833,"x_min":117,"x_max":758,"o":"m 468 -22 q 284 26 363 -22 q 161 158 205 73 q 117 355 117 242 l 117 373 q 160 570 117 485 q 280 701 203 654 q 458 749 357 749 q 628 703 559 749 q 740 574 697 658 l 635 514 q 564 602 607 572 q 458 632 520 632 q 302 564 360 632 q 245 378 245 496 l 245 349 q 306 165 245 233 q 467 96 366 96 q 575 125 528 96 q 656 215 622 153 l 758 150 q 682 56 726 94 q 584 -2 638 17 q 468 -22 531 -22 m 391 870 l 202 1113 l 202 1120 l 338 1120 l 471 926 l 447 926 l 578 1120 l 715 1120 l 715 1113 l 526 870 l 391 870 z "},"ď":{"ha":833,"x_min":68,"x_max":869,"o":"m 340 -22 q 199 24 260 -22 q 103 151 138 69 q 68 345 68 233 l 68 383 q 101 578 68 497 q 195 704 135 660 q 335 749 255 749 q 452 716 406 749 q 528 625 499 683 l 533 625 l 533 1014 l 655 1014 l 655 0 l 542 0 l 542 117 l 538 117 q 461 15 510 52 q 340 -22 413 -22 m 366 90 q 491 159 444 90 q 538 348 538 228 l 538 380 q 491 568 538 500 q 366 637 445 637 q 240 569 285 637 q 194 380 194 502 l 194 348 q 240 158 194 226 q 366 90 286 90 m 735 672 l 749 1014 l 869 1014 l 833 672 l 735 672 z "},"đ":{"ha":833,"x_min":69,"x_max":837,"o":"m 367 -22 q 212 22 279 -22 q 107 145 145 66 q 69 328 69 224 l 69 351 q 106 535 69 456 q 208 657 142 613 q 361 701 274 701 q 492 666 437 701 q 583 568 547 632 l 588 568 l 588 1038 l 708 1038 l 708 0 l 594 0 l 594 119 l 590 119 q 499 16 556 53 q 367 -22 441 -22 m 393 92 q 536 157 483 92 q 589 333 589 223 l 589 349 q 536 525 589 459 q 393 590 483 590 q 249 526 301 590 q 197 350 197 461 l 197 332 q 249 156 197 221 q 393 92 302 92 m 331 825 l 331 919 l 837 919 l 837 825 l 331 825 z "},"ɗ":{"ha":833,"x_min":48,"x_max":841,"o":"m 322 -22 q 178 24 240 -22 q 82 152 117 69 q 48 345 48 235 l 48 383 q 81 577 48 494 q 175 704 115 659 q 317 749 235 749 q 513 625 451 749 l 517 625 l 517 791 q 544 923 517 868 q 617 1008 570 978 q 727 1038 665 1038 q 788 1030 760 1038 q 841 1008 815 1023 l 800 901 q 771 915 786 910 q 738 919 756 919 q 663 887 687 919 q 639 784 639 854 l 639 0 l 526 0 l 526 117 l 522 117 q 322 -22 463 -22 m 349 90 q 475 159 429 90 q 522 348 522 228 l 522 380 q 475 568 522 499 q 349 638 429 638 q 220 570 266 638 q 174 380 174 502 l 174 348 q 220 158 174 227 q 349 90 267 90 z "},"ǆ":{"ha":833,"x_min":10,"x_max":860,"o":"m 196 -22 q 99 24 140 -22 q 34 154 57 71 q 10 348 10 238 l 10 379 q 32 573 10 490 q 92 703 53 656 q 185 749 131 749 q 256 723 226 749 q 308 646 285 697 l 313 646 l 313 1014 l 424 1014 l 424 0 l 326 0 l 326 95 l 322 95 q 270 8 302 38 q 196 -22 238 -22 m 228 88 q 298 153 274 88 q 322 335 322 219 l 322 392 q 297 574 322 508 q 225 640 272 640 q 152 576 178 640 q 126 392 126 512 l 126 335 q 153 151 126 215 q 228 88 181 88 m 484 0 l 484 93 l 708 617 l 490 617 l 490 727 l 828 727 l 828 634 l 603 110 l 835 110 l 835 0 l 484 0 m 607 870 l 470 1113 l 470 1120 l 585 1120 l 677 928 l 654 928 l 745 1120 l 860 1120 l 860 1113 l 724 870 l 607 870 z "},"è":{"ha":833,"x_min":90,"x_max":738,"o":"m 438 -22 q 255 25 333 -22 q 133 156 176 72 q 90 353 90 240 l 90 380 q 133 574 90 491 q 253 703 176 657 q 433 749 330 749 q 593 709 525 749 q 700 597 662 669 q 738 427 738 524 q 736 376 738 401 q 731 328 734 351 l 169 328 l 169 428 l 613 428 l 613 431 q 564 582 613 526 q 431 638 515 638 q 274 568 333 638 q 215 376 215 499 l 215 357 q 276 163 215 235 q 441 92 337 92 q 631 205 567 92 l 733 140 q 613 18 686 59 q 438 -22 539 -22 m 372 870 l 215 1113 l 215 1120 l 369 1120 l 492 878 l 492 870 l 372 870 z "},"é":{"ha":833,"x_min":90,"x_max":738,"o":"m 438 -22 q 255 25 333 -22 q 133 156 176 72 q 90 353 90 240 l 90 380 q 133 574 90 491 q 253 703 176 657 q 433 749 330 749 q 593 709 525 749 q 700 597 662 669 q 738 427 738 524 q 736 376 738 401 q 731 328 734 351 l 169 328 l 169 428 l 613 428 l 613 431 q 564 582 613 526 q 431 638 515 638 q 274 568 333 638 q 215 376 215 499 l 215 357 q 276 163 215 235 q 441 92 337 92 q 631 205 567 92 l 733 140 q 613 18 686 59 q 438 -22 539 -22 m 372 870 l 372 878 l 495 1120 l 649 1120 l 649 1113 l 492 870 l 372 870 z "},"ê":{"ha":833,"x_min":90,"x_max":738,"o":"m 438 -22 q 255 25 333 -22 q 133 156 176 72 q 90 353 90 240 l 90 380 q 133 574 90 491 q 253 703 176 657 q 433 749 330 749 q 593 709 525 749 q 700 597 662 669 q 738 427 738 524 q 736 376 738 401 q 731 328 734 351 l 169 328 l 169 428 l 613 428 l 613 431 q 564 582 613 526 q 431 638 515 638 q 274 568 333 638 q 215 376 215 499 l 215 357 q 276 163 215 235 q 441 92 337 92 q 631 205 567 92 l 733 140 q 613 18 686 59 q 438 -22 539 -22 m 176 870 l 176 878 l 365 1120 l 499 1120 l 688 878 l 688 870 l 552 870 l 417 1065 l 447 1065 l 312 870 l 176 870 z "},"ë":{"ha":833,"x_min":90,"x_max":738,"o":"m 438 -22 q 255 25 333 -22 q 133 156 176 72 q 90 353 90 240 l 90 380 q 133 574 90 491 q 253 703 176 657 q 433 749 330 749 q 593 709 525 749 q 700 597 662 669 q 738 427 738 524 q 736 376 738 401 q 731 328 734 351 l 169 328 l 169 428 l 613 428 l 613 431 q 564 582 613 526 q 431 638 515 638 q 274 568 333 638 q 215 376 215 499 l 215 357 q 276 163 215 235 q 441 92 337 92 q 631 205 567 92 l 733 140 q 613 18 686 59 q 438 -22 539 -22 m 281 888 q 209 917 238 888 q 179 989 179 947 q 209 1061 179 1031 q 281 1090 239 1090 q 353 1061 324 1090 q 383 989 383 1032 q 354 917 383 947 q 281 888 324 888 m 583 888 q 511 917 541 888 q 482 989 482 947 q 512 1061 482 1031 q 583 1090 542 1090 q 656 1061 626 1090 q 686 989 686 1032 q 657 917 686 947 q 583 888 627 888 z "},"ē":{"ha":833,"x_min":90,"x_max":738,"o":"m 438 -22 q 255 25 333 -22 q 133 156 176 72 q 90 353 90 240 l 90 380 q 133 574 90 491 q 253 703 176 657 q 433 749 330 749 q 593 709 525 749 q 700 597 662 669 q 738 427 738 524 q 736 376 738 401 q 731 328 734 351 l 169 328 l 169 428 l 613 428 l 613 431 q 564 582 613 526 q 431 638 515 638 q 274 568 333 638 q 215 376 215 499 l 215 357 q 276 163 215 235 q 441 92 337 92 q 631 205 567 92 l 733 140 q 613 18 686 59 q 438 -22 539 -22 m 212 931 l 212 1045 l 652 1045 l 652 931 l 212 931 z "},"ė":{"ha":833,"x_min":90,"x_max":738,"o":"m 438 -22 q 255 25 333 -22 q 133 156 176 72 q 90 353 90 240 l 90 380 q 133 574 90 491 q 253 703 176 657 q 433 749 330 749 q 593 709 525 749 q 700 597 662 669 q 738 427 738 524 q 736 376 738 401 q 731 328 734 351 l 169 328 l 169 428 l 613 428 l 613 431 q 564 582 613 526 q 431 638 515 638 q 274 568 333 638 q 215 376 215 499 l 215 357 q 276 163 215 235 q 441 92 337 92 q 631 205 567 92 l 733 140 q 613 18 686 59 q 438 -22 539 -22 m 432 888 q 356 919 386 888 q 325 995 325 951 q 356 1071 325 1040 q 432 1101 386 1101 q 509 1071 478 1101 q 540 995 540 1040 q 509 919 540 951 q 432 888 478 888 z "},"ę":{"ha":833,"x_min":90,"x_max":738,"o":"m 538 -371 q 441 -348 484 -371 q 374 -284 399 -324 q 349 -193 349 -244 q 410 -51 349 -112 q 592 60 471 11 l 548 -6 q 437 -20 497 -20 q 254 26 332 -20 q 133 157 176 73 q 90 353 90 241 l 90 380 q 133 574 90 491 q 253 703 176 657 q 433 749 330 749 q 593 709 525 749 q 700 597 662 669 q 738 427 738 524 q 736 376 738 401 q 731 328 734 351 l 169 328 l 169 428 l 613 428 l 613 431 q 564 582 613 526 q 431 638 515 638 q 274 568 333 638 q 215 376 215 499 l 215 357 q 276 163 215 235 q 440 92 336 92 q 631 205 567 92 l 733 140 q 674 64 709 99 q 575 -17 638 28 q 485 -97 511 -62 q 460 -176 460 -131 q 486 -242 460 -217 q 553 -268 513 -268 q 630 -249 595 -268 l 660 -340 q 602 -363 633 -356 q 538 -371 572 -371 z "},"ě":{"ha":833,"x_min":90,"x_max":738,"o":"m 438 -22 q 255 25 333 -22 q 133 156 176 72 q 90 353 90 240 l 90 380 q 133 574 90 491 q 253 703 176 657 q 433 749 330 749 q 593 709 525 749 q 700 597 662 669 q 738 427 738 524 q 736 376 738 401 q 731 328 734 351 l 169 328 l 169 428 l 613 428 l 613 431 q 564 582 613 526 q 431 638 515 638 q 274 568 333 638 q 215 376 215 499 l 215 357 q 276 163 215 235 q 441 92 337 92 q 631 205 567 92 l 733 140 q 613 18 686 59 q 438 -22 539 -22 m 365 870 l 176 1113 l 176 1120 l 312 1120 l 444 926 l 420 926 l 552 1120 l 688 1120 l 688 1113 l 499 870 l 365 870 z "},"ẹ":{"ha":833,"x_min":90,"x_max":738,"o":"m 438 -22 q 255 25 333 -22 q 133 156 176 72 q 90 353 90 240 l 90 380 q 133 574 90 491 q 253 703 176 657 q 433 749 330 749 q 593 709 525 749 q 700 597 662 669 q 738 427 738 524 q 736 376 738 401 q 731 328 734 351 l 169 328 l 169 428 l 613 428 l 613 431 q 564 582 613 526 q 431 638 515 638 q 274 568 333 638 q 215 376 215 499 l 215 357 q 276 163 215 235 q 441 92 337 92 q 631 205 567 92 l 733 140 q 613 18 686 59 q 438 -22 539 -22 m 440 -359 q 363 -327 394 -359 q 333 -251 333 -296 q 363 -176 333 -206 q 440 -145 394 -145 q 517 -176 486 -145 q 548 -251 548 -206 q 517 -327 548 -296 q 440 -359 486 -359 z "},"ẻ":{"ha":833,"x_min":90,"x_max":738,"o":"m 438 -22 q 255 25 333 -22 q 133 156 176 72 q 90 353 90 240 l 90 380 q 133 574 90 491 q 253 703 176 657 q 433 749 330 749 q 593 709 525 749 q 700 597 662 669 q 738 427 738 524 q 736 376 738 401 q 731 328 734 351 l 169 328 l 169 428 l 613 428 l 613 431 q 564 582 613 526 q 431 638 515 638 q 274 568 333 638 q 215 376 215 499 l 215 357 q 276 163 215 235 q 441 92 337 92 q 631 205 567 92 l 733 140 q 613 18 686 59 q 438 -22 539 -22 m 422 816 l 406 916 q 494 943 465 922 q 524 997 524 963 q 433 1063 524 1063 q 319 1041 377 1063 l 288 1140 q 360 1163 322 1155 q 436 1171 398 1171 q 575 1124 523 1171 q 627 1001 627 1078 q 573 876 627 925 q 422 816 519 828 z "},"ẽ":{"ha":833,"x_min":90,"x_max":738,"o":"m 438 -22 q 255 25 333 -22 q 133 156 176 72 q 90 353 90 240 l 90 380 q 133 574 90 491 q 253 703 176 657 q 433 749 330 749 q 593 709 525 749 q 700 597 662 669 q 738 427 738 524 q 736 376 738 401 q 731 328 734 351 l 169 328 l 169 428 l 613 428 l 613 431 q 564 582 613 526 q 431 638 515 638 q 274 568 333 638 q 215 376 215 499 l 215 357 q 276 163 215 235 q 441 92 337 92 q 631 205 567 92 l 733 140 q 613 18 686 59 q 438 -22 539 -22 m 549 877 q 480 895 510 877 q 409 960 449 913 q 365 1005 381 994 q 331 1016 349 1016 q 286 945 286 1016 l 286 880 l 181 880 l 181 947 q 218 1075 181 1028 q 319 1122 255 1122 q 386 1104 357 1122 q 456 1037 416 1086 q 499 994 483 1005 q 533 983 515 983 q 578 1053 578 983 l 578 1119 l 683 1119 l 683 1052 q 648 923 683 969 q 549 877 613 877 z "},"ế":{"ha":833,"x_min":90,"x_max":819,"o":"m 438 -22 q 255 25 333 -22 q 133 156 176 72 q 90 353 90 240 l 90 380 q 133 574 90 491 q 253 703 176 657 q 433 749 330 749 q 593 709 525 749 q 700 597 662 669 q 738 427 738 524 q 736 376 738 401 q 731 328 734 351 l 169 328 l 169 428 l 613 428 l 613 431 q 564 582 613 526 q 431 638 515 638 q 274 568 333 638 q 215 376 215 499 l 215 357 q 276 163 215 235 q 441 92 337 92 q 631 205 567 92 l 733 140 q 613 18 686 59 q 438 -22 539 -22 m 167 854 l 167 862 l 369 1094 l 494 1094 l 698 862 l 698 854 l 559 854 l 419 1029 l 445 1029 l 306 854 l 167 854 m 574 1063 l 574 1071 l 687 1320 l 819 1320 l 819 1313 l 669 1063 l 574 1063 z "},"ề":{"ha":833,"x_min":90,"x_max":756,"o":"m 438 -22 q 255 25 333 -22 q 133 156 176 72 q 90 353 90 240 l 90 380 q 133 574 90 491 q 253 703 176 657 q 433 749 330 749 q 593 709 525 749 q 700 597 662 669 q 738 427 738 524 q 736 376 738 401 q 731 328 734 351 l 169 328 l 169 428 l 613 428 l 613 431 q 564 582 613 526 q 431 638 515 638 q 274 568 333 638 q 215 376 215 499 l 215 357 q 276 163 215 235 q 441 92 337 92 q 631 205 567 92 l 733 140 q 613 18 686 59 q 438 -22 539 -22 m 167 854 l 167 862 l 369 1094 l 494 1094 l 698 862 l 698 854 l 559 854 l 419 1029 l 445 1029 l 306 854 l 167 854 m 656 1058 l 498 1307 l 498 1315 l 633 1315 l 756 1065 l 756 1058 l 656 1058 z "},"ể":{"ha":833,"x_min":90,"x_max":792,"o":"m 438 -22 q 255 25 333 -22 q 133 156 176 72 q 90 353 90 240 l 90 380 q 133 574 90 491 q 253 703 176 657 q 433 749 330 749 q 593 709 525 749 q 700 597 662 669 q 738 427 738 524 q 736 376 738 401 q 731 328 734 351 l 169 328 l 169 428 l 613 428 l 613 431 q 564 582 613 526 q 431 638 515 638 q 274 568 333 638 q 215 376 215 499 l 215 357 q 276 163 215 235 q 441 92 337 92 q 631 205 567 92 l 733 140 q 613 18 686 59 q 438 -22 539 -22 m 167 854 l 167 862 l 370 1094 l 495 1094 l 699 862 l 699 854 l 560 854 l 420 1029 l 446 1029 l 306 854 l 167 854 m 610 1038 l 598 1129 q 697 1198 697 1138 q 617 1258 697 1258 q 528 1243 572 1258 l 503 1335 q 621 1356 555 1356 q 746 1314 699 1356 q 792 1203 792 1273 q 744 1089 792 1132 q 610 1038 697 1045 z "},"ễ":{"ha":833,"x_min":90,"x_max":738,"o":"m 438 -22 q 255 25 333 -22 q 133 156 176 72 q 90 353 90 240 l 90 380 q 133 574 90 491 q 253 703 176 657 q 433 749 330 749 q 593 709 525 749 q 700 597 662 669 q 738 427 738 524 q 736 376 738 401 q 731 328 734 351 l 169 328 l 169 428 l 613 428 l 613 431 q 564 582 613 526 q 431 638 515 638 q 274 568 333 638 q 215 376 215 499 l 215 357 q 276 163 215 235 q 441 92 337 92 q 631 205 567 92 l 733 140 q 613 18 686 59 q 438 -22 539 -22 m 167 854 l 167 862 l 370 1094 l 495 1094 l 699 862 l 699 854 l 560 854 l 420 1029 l 446 1029 l 306 854 l 167 854 m 546 1167 q 482 1180 510 1167 q 423 1223 453 1194 q 373 1265 390 1255 q 338 1276 356 1276 q 292 1204 292 1276 l 292 1168 l 188 1168 l 188 1206 q 224 1330 188 1284 q 324 1375 261 1375 q 387 1361 360 1375 q 444 1318 414 1348 q 494 1277 476 1288 q 531 1266 513 1266 q 574 1337 574 1266 l 574 1374 l 678 1374 l 678 1336 q 643 1211 678 1256 q 546 1167 608 1167 z "},"ệ":{"ha":833,"x_min":90,"x_max":738,"o":"m 438 -22 q 255 25 333 -22 q 133 156 176 72 q 90 353 90 240 l 90 380 q 133 574 90 491 q 253 703 176 657 q 433 749 330 749 q 593 709 525 749 q 700 597 662 669 q 738 427 738 524 q 736 376 738 401 q 731 328 734 351 l 169 328 l 169 428 l 613 428 l 613 431 q 564 582 613 526 q 431 638 515 638 q 274 568 333 638 q 215 376 215 499 l 215 357 q 276 163 215 235 q 441 92 337 92 q 631 205 567 92 l 733 140 q 613 18 686 59 q 438 -22 539 -22 m 440 -359 q 363 -327 394 -359 q 333 -251 333 -296 q 363 -176 333 -206 q 440 -145 394 -145 q 517 -176 486 -145 q 548 -251 548 -206 q 517 -327 548 -296 q 440 -359 486 -359 m 176 870 l 176 878 l 365 1120 l 499 1120 l 688 878 l 688 870 l 552 870 l 417 1065 l 447 1065 l 312 870 l 176 870 z "},"ð":{"ha":833,"x_min":85,"x_max":758,"o":"m 420 -22 q 245 23 320 -22 q 127 149 169 68 q 85 338 85 231 l 85 349 q 125 533 85 453 q 238 656 166 612 q 403 701 309 701 q 545 662 489 701 q 631 561 602 624 l 598 581 l 622 590 q 571 758 607 679 q 469 905 535 837 q 299 1028 403 972 l 354 1120 q 587 932 498 1035 q 717 697 676 829 q 758 392 758 565 l 758 383 q 718 165 758 256 q 603 26 678 74 q 420 -22 527 -22 m 422 94 q 576 161 523 94 q 629 341 629 228 l 629 347 q 575 528 629 462 q 422 594 522 594 q 268 528 322 594 q 214 347 214 462 l 214 341 q 268 160 214 226 q 422 94 322 94 m 224 791 l 201 883 l 481 951 l 540 874 l 224 791 m 557 887 l 499 963 l 722 1024 l 746 931 l 557 887 z "},"ŋ":{"ha":833,"x_min":128,"x_max":726,"o":"m 509 -307 q 319 -239 399 -307 l 390 -144 q 445 -178 417 -167 q 503 -190 473 -190 q 600 -74 600 -190 l 600 458 q 447 638 600 638 q 307 578 359 638 q 254 420 254 519 l 254 0 l 128 0 l 128 727 l 246 727 l 246 616 l 251 616 q 491 749 338 749 q 664 677 601 749 q 726 477 726 606 l 726 -72 q 668 -244 726 -181 q 509 -307 610 -307 z "},"ğ":{"ha":833,"x_min":60,"x_max":781,"o":"m 412 -397 q 225 -367 303 -397 q 103 -283 146 -337 q 60 -153 60 -228 q 104 -20 60 -77 q 228 63 148 36 l 258 3 q 195 -55 217 -19 q 173 -137 173 -92 q 233 -249 173 -211 q 412 -286 293 -286 q 594 -243 526 -286 q 661 -126 661 -200 q 527 -19 661 -19 l 187 -19 l 187 21 l 326 244 l 403 229 l 349 86 l 537 86 q 716 30 652 86 q 781 -125 781 -26 q 735 -269 781 -208 q 608 -364 690 -331 q 412 -397 525 -397 m 417 199 q 269 235 335 199 q 164 333 203 271 q 126 471 126 394 l 126 478 q 163 618 126 557 q 267 715 201 680 q 417 749 333 749 q 566 713 500 749 q 670 616 632 677 q 709 478 709 554 l 709 471 q 672 331 709 392 q 568 234 634 269 q 417 199 502 199 m 417 302 q 541 348 493 302 q 590 466 590 394 l 590 477 q 541 595 590 549 q 417 641 493 641 q 293 595 342 641 q 245 477 245 549 l 245 466 q 293 348 245 394 q 417 302 342 302 m 578 667 l 530 692 q 613 836 554 786 q 760 886 672 886 l 760 747 q 578 667 639 747 m 418 867 q 382 867 418 867 q 292 898 347 867 q 207 984 238 929 q 176 1110 176 1039 l 176 1120 l 288 1120 l 288 1106 q 323 1008 288 1044 q 418 971 358 971 q 512 1008 477 971 q 547 1106 547 1044 l 547 1120 l 659 1120 l 659 1110 q 628 984 659 1039 q 543 898 597 929 q 418 867 489 867 z "},"ġ":{"ha":833,"x_min":60,"x_max":781,"o":"m 412 -397 q 225 -367 303 -397 q 103 -283 146 -337 q 60 -153 60 -228 q 104 -20 60 -77 q 228 63 148 36 l 258 3 q 195 -55 217 -19 q 173 -137 173 -92 q 233 -249 173 -211 q 412 -286 293 -286 q 594 -243 526 -286 q 661 -126 661 -200 q 527 -19 661 -19 l 187 -19 l 187 21 l 326 244 l 403 229 l 349 86 l 537 86 q 716 30 652 86 q 781 -125 781 -26 q 735 -269 781 -208 q 608 -364 690 -331 q 412 -397 525 -397 m 417 199 q 269 235 335 199 q 164 333 203 271 q 126 471 126 394 l 126 478 q 163 618 126 557 q 267 715 201 680 q 417 749 333 749 q 566 713 500 749 q 670 616 632 677 q 709 478 709 554 l 709 471 q 672 331 709 392 q 568 234 634 269 q 417 199 502 199 m 417 302 q 541 348 493 302 q 590 466 590 394 l 590 477 q 541 595 590 549 q 417 641 493 641 q 293 595 342 641 q 245 477 245 549 l 245 466 q 293 348 245 394 q 417 302 342 302 m 578 667 l 530 692 q 613 836 554 786 q 760 886 672 886 l 760 747 q 578 667 639 747 m 417 888 q 341 919 372 888 q 310 995 310 951 q 341 1071 310 1040 q 417 1101 372 1101 q 495 1071 464 1101 q 526 995 526 1040 q 495 919 526 951 q 417 888 464 888 z "},"ģ":{"ha":833,"x_min":60,"x_max":781,"o":"m 412 -397 q 225 -367 303 -397 q 103 -283 146 -337 q 60 -153 60 -228 q 104 -20 60 -77 q 228 63 148 36 l 258 3 q 195 -55 217 -19 q 173 -137 173 -92 q 233 -249 173 -211 q 412 -286 293 -286 q 594 -243 526 -286 q 661 -126 661 -200 q 527 -19 661 -19 l 187 -19 l 187 21 l 326 244 l 403 229 l 349 86 l 537 86 q 716 30 652 86 q 781 -125 781 -26 q 735 -269 781 -208 q 608 -364 690 -331 q 412 -397 525 -397 m 417 199 q 269 235 335 199 q 164 333 203 271 q 126 471 126 394 l 126 478 q 163 618 126 557 q 267 715 201 680 q 417 749 333 749 q 566 713 500 749 q 670 616 632 677 q 709 478 709 554 l 709 471 q 672 331 709 392 q 568 234 634 269 q 417 199 502 199 m 417 302 q 541 348 493 302 q 590 466 590 394 l 590 477 q 541 595 590 549 q 417 641 493 641 q 293 595 342 641 q 245 477 245 549 l 245 466 q 293 348 245 394 q 417 302 342 302 m 578 667 l 530 692 q 613 836 554 786 q 760 886 672 886 l 760 747 q 578 667 639 747 m 445 1288 l 526 1235 l 394 1047 l 395 1078 q 475 1047 444 1076 q 506 974 506 1017 q 475 900 506 929 q 399 870 444 870 q 317 902 348 870 q 286 985 286 933 q 299 1049 286 1015 q 340 1126 312 1083 l 445 1288 z "},"ħ":{"ha":833,"x_min":-3,"x_max":719,"o":"m 126 0 l 126 1038 l 246 1038 l 246 574 l 251 574 q 486 701 338 701 q 658 629 596 701 q 719 430 719 557 l 719 0 l 594 0 l 594 411 q 442 589 594 589 q 304 530 356 589 q 252 374 252 471 l 252 0 l 126 0 m -3 825 l -3 919 l 493 919 l 493 825 l -3 825 z "},"ì":{"ha":833,"x_min":141,"x_max":748,"o":"m 388 35 l 388 727 l 511 727 l 511 35 l 388 35 m 141 0 l 141 103 l 748 103 l 748 0 l 141 0 m 155 624 l 155 727 l 474 727 l 474 624 l 155 624 m 390 870 l 233 1113 l 233 1120 l 387 1120 l 509 878 l 509 870 l 390 870 z "},"í":{"ha":833,"x_min":141,"x_max":748,"o":"m 388 35 l 388 727 l 511 727 l 511 35 l 388 35 m 141 0 l 141 103 l 748 103 l 748 0 l 141 0 m 155 624 l 155 727 l 474 727 l 474 624 l 155 624 m 390 870 l 390 878 l 513 1120 l 667 1120 l 667 1113 l 509 870 l 390 870 z "},"î":{"ha":833,"x_min":141,"x_max":748,"o":"m 388 35 l 388 727 l 511 727 l 511 35 l 388 35 m 141 0 l 141 103 l 748 103 l 748 0 l 141 0 m 155 624 l 155 727 l 474 727 l 474 624 l 155 624 m 193 870 l 193 878 l 382 1120 l 517 1120 l 706 878 l 706 870 l 569 870 l 435 1065 l 465 1065 l 329 870 l 193 870 z "},"ī":{"ha":833,"x_min":141,"x_max":748,"o":"m 388 35 l 388 727 l 511 727 l 511 35 l 388 35 m 141 0 l 141 103 l 748 103 l 748 0 l 141 0 m 155 624 l 155 727 l 474 727 l 474 624 l 155 624 m 229 931 l 229 1045 l 669 1045 l 669 931 l 229 931 z "},"ï":{"ha":833,"x_min":141,"x_max":748,"o":"m 388 35 l 388 727 l 511 727 l 511 35 l 388 35 m 141 0 l 141 103 l 748 103 l 748 0 l 141 0 m 155 624 l 155 727 l 474 727 l 474 624 l 155 624 m 298 888 q 226 917 256 888 q 197 989 197 947 q 226 1061 197 1031 q 298 1090 256 1090 q 371 1061 341 1090 q 401 989 401 1032 q 371 917 401 947 q 298 888 342 888 m 601 888 q 529 917 558 888 q 499 989 499 947 q 529 1061 499 1031 q 601 1090 559 1090 q 674 1061 644 1090 q 703 989 703 1032 q 674 917 703 947 q 601 888 644 888 z "},"į":{"ha":833,"x_min":141,"x_max":748,"o":"m 388 42 l 388 727 l 511 727 l 511 42 l 388 42 m 141 0 l 141 103 l 748 103 l 748 0 l 141 0 m 155 624 l 155 727 l 474 727 l 474 624 l 155 624 m 431 888 q 356 919 388 888 q 325 994 325 950 q 356 1068 325 1039 q 431 1098 388 1098 q 506 1068 476 1098 q 536 993 536 1038 q 506 919 536 950 q 431 888 476 888 m 457 -371 q 361 -348 403 -371 q 294 -285 318 -325 q 269 -196 269 -246 q 329 -51 269 -115 q 512 60 389 13 l 546 0 q 419 -87 458 -44 q 380 -181 380 -130 q 406 -244 380 -219 q 473 -268 432 -268 q 547 -250 513 -268 l 576 -341 q 457 -371 522 -371 z "},"ı":{"ha":833,"x_min":141,"x_max":748,"o":"m 388 35 l 388 727 l 511 727 l 511 35 l 388 35 m 141 0 l 141 103 l 748 103 l 748 0 l 141 0 m 155 624 l 155 727 l 474 727 l 474 624 l 155 624 z "},"ĳ":{"ha":833,"x_min":28,"x_max":792,"o":"m 503 -307 q 271 -229 380 -307 l 335 -130 q 417 -175 376 -160 q 499 -190 457 -190 q 606 -148 569 -190 q 642 -24 642 -106 l 642 727 l 767 727 l 767 -22 q 695 -230 767 -153 q 503 -307 624 -307 m 28 0 l 28 103 l 504 103 l 504 0 l 28 0 m 208 49 l 208 727 l 331 727 l 331 49 l 208 49 m 40 624 l 40 727 l 297 727 l 297 624 l 40 624 m 256 888 q 181 919 212 888 q 149 994 149 950 q 181 1068 149 1039 q 256 1098 212 1098 q 331 1068 301 1098 q 360 993 360 1038 q 331 919 360 950 q 256 888 301 888 m 470 624 l 470 727 l 737 727 l 737 624 l 470 624 m 687 888 q 612 919 643 888 q 581 994 581 950 q 611 1068 581 1038 q 687 1098 642 1098 q 762 1068 732 1098 q 792 993 792 1038 q 761 918 792 949 q 687 888 731 888 z "},"ĩ":{"ha":833,"x_min":141,"x_max":748,"o":"m 388 35 l 388 727 l 511 727 l 511 35 l 388 35 m 141 0 l 141 103 l 748 103 l 748 0 l 141 0 m 155 624 l 155 727 l 474 727 l 474 624 l 155 624 m 566 877 q 497 895 528 877 q 426 960 466 913 q 383 1005 399 994 q 349 1016 367 1016 q 303 945 303 1016 l 303 880 l 199 880 l 199 947 q 235 1075 199 1028 q 337 1122 272 1122 q 404 1104 374 1122 q 474 1037 433 1086 q 516 994 500 1005 q 551 983 533 983 q 595 1053 595 983 l 595 1119 l 701 1119 l 701 1052 q 665 923 701 969 q 566 877 630 877 z "},"ỉ":{"ha":833,"x_min":141,"x_max":748,"o":"m 388 35 l 388 727 l 511 727 l 511 35 l 388 35 m 141 0 l 141 103 l 748 103 l 748 0 l 141 0 m 155 624 l 155 727 l 474 727 l 474 624 l 155 624 m 385 816 l 369 916 q 457 943 428 922 q 487 997 487 963 q 397 1063 487 1063 q 282 1041 340 1063 l 251 1140 q 323 1163 285 1155 q 399 1171 361 1171 q 538 1124 486 1171 q 590 1001 590 1078 q 536 876 590 925 q 385 816 483 828 z "},"ị":{"ha":833,"x_min":141,"x_max":748,"o":"m 388 42 l 388 727 l 511 727 l 511 42 l 388 42 m 141 0 l 141 103 l 748 103 l 748 0 l 141 0 m 155 624 l 155 727 l 474 727 l 474 624 l 155 624 m 431 888 q 356 919 388 888 q 325 994 325 950 q 356 1068 325 1039 q 431 1098 388 1098 q 506 1068 476 1098 q 536 993 536 1038 q 506 919 536 950 q 431 888 476 888 m 449 -337 q 373 -305 403 -337 q 342 -229 342 -274 q 373 -153 342 -184 q 449 -123 403 -123 q 527 -153 496 -123 q 558 -229 558 -184 q 527 -305 558 -274 q 449 -337 496 -337 z "},"ȷ":{"ha":833,"x_min":77,"x_max":573,"o":"m 308 -307 q 77 -229 185 -307 l 141 -130 q 222 -175 182 -160 q 305 -190 263 -190 q 411 -148 375 -190 q 448 -24 448 -106 l 448 727 l 573 727 l 573 -22 q 501 -230 573 -153 q 308 -307 429 -307 m 166 624 l 166 727 l 543 727 l 543 624 l 166 624 z "},"ķ":{"ha":833,"x_min":121,"x_max":749,"o":"m 585 0 l 242 390 l 242 394 l 569 727 l 731 727 l 360 355 l 360 433 l 749 0 l 585 0 m 121 0 l 121 1014 l 247 1014 l 247 0 l 121 0 m 370 -532 l 290 -478 l 421 -290 l 420 -322 q 340 -290 371 -319 q 309 -217 309 -261 q 340 -143 309 -173 q 417 -114 371 -114 q 498 -145 467 -114 q 529 -228 529 -177 q 516 -293 529 -259 q 475 -370 503 -326 l 370 -532 z "},"ƙ":{"ha":833,"x_min":121,"x_max":749,"o":"m 121 0 l 121 747 q 192 960 121 882 q 384 1038 263 1038 q 538 999 466 1038 l 491 894 q 389 918 447 918 q 247 741 247 918 l 247 0 l 121 0 m 585 0 l 242 390 l 242 394 l 569 727 l 731 727 l 359 353 l 359 434 l 749 0 l 585 0 z "},"ĸ":{"ha":833,"x_min":121,"x_max":749,"o":"m 585 0 l 242 390 l 242 394 l 569 727 l 731 727 l 360 355 l 360 433 l 749 0 l 585 0 m 121 0 l 121 727 l 247 727 l 247 0 l 121 0 z "},"ĺ":{"ha":833,"x_min":81,"x_max":758,"o":"m 543 -22 q 361 45 428 -22 q 295 232 295 113 l 295 1014 l 420 1014 l 420 245 q 551 96 420 96 q 619 110 588 96 q 686 156 651 124 l 758 61 q 660 -2 713 19 q 543 -22 606 -22 m 81 904 l 81 1014 l 361 1014 l 361 904 l 81 904 m 297 1157 l 297 1165 l 420 1407 l 574 1407 l 574 1399 l 417 1157 l 297 1157 z "},"ľ":{"ha":833,"x_min":82,"x_max":756,"o":"m 540 -22 q 359 45 425 -22 q 292 232 292 113 l 292 1014 l 417 1014 l 417 245 q 547 96 417 96 q 616 110 584 96 q 683 156 648 124 l 756 61 q 657 -1 711 19 q 540 -22 603 -22 m 82 904 l 82 1014 l 358 1014 l 358 904 l 82 904 m 540 669 l 563 1014 l 697 1014 l 642 669 l 540 669 z "},"ļ":{"ha":833,"x_min":81,"x_max":758,"o":"m 543 -22 q 361 45 428 -22 q 295 232 295 113 l 295 1014 l 420 1014 l 420 245 q 551 96 420 96 q 619 110 588 96 q 686 156 651 124 l 758 61 q 660 -2 713 19 q 543 -22 606 -22 m 81 904 l 81 1014 l 361 1014 l 361 904 l 81 904 m 476 -562 l 395 -509 l 526 -321 l 526 -352 q 445 -321 476 -350 q 415 -248 415 -292 q 445 -174 415 -203 q 522 -144 476 -144 q 604 -176 573 -144 q 635 -259 635 -208 q 622 -323 635 -290 q 581 -401 609 -357 l 476 -562 z "},"ł":{"ha":833,"x_min":81,"x_max":758,"o":"m 93 318 l 93 449 l 345 590 l 387 600 l 678 763 l 678 633 l 385 470 l 344 460 l 93 318 m 543 -22 q 361 45 428 -22 q 295 232 295 113 l 295 1014 l 420 1014 l 420 245 q 551 96 420 96 q 619 110 588 96 q 686 156 651 124 l 758 61 q 660 -2 713 19 q 543 -22 606 -22 m 81 904 l 81 1014 l 361 1014 l 361 904 l 81 904 z "},"ŀ":{"ha":833,"x_min":81,"x_max":882,"o":"m 543 -22 q 361 45 428 -22 q 295 232 295 113 l 295 1014 l 420 1014 l 420 245 q 551 96 420 96 q 619 110 588 96 q 686 156 651 124 l 758 61 q 660 -2 713 19 q 543 -22 606 -22 m 81 904 l 81 1014 l 361 1014 l 361 904 l 81 904 m 767 424 q 686 457 719 424 q 653 538 653 490 q 687 618 653 585 q 767 651 720 651 q 849 618 817 651 q 882 538 882 585 q 849 457 882 490 q 767 424 817 424 z "},"ǉ":{"ha":833,"x_min":13,"x_max":824,"o":"m 563 -307 q 357 -232 453 -307 l 420 -142 q 489 -183 456 -169 q 560 -197 522 -197 q 682 -49 682 -197 l 682 727 l 800 727 l 800 -48 q 735 -237 800 -167 q 563 -307 671 -307 m 406 0 q 241 65 302 0 q 180 240 180 129 l 180 1014 l 298 1014 l 298 245 q 408 113 298 113 q 467 125 440 113 q 521 168 493 138 l 588 82 q 406 0 510 0 m 13 912 l 13 1014 l 233 1014 l 233 912 l 13 912 m 478 624 l 478 727 l 769 727 l 769 624 l 478 624 m 719 888 q 644 919 676 888 q 613 994 613 950 q 644 1068 613 1038 q 719 1098 675 1098 q 794 1068 765 1098 q 824 993 824 1038 q 794 918 824 949 q 719 888 763 888 z "},"ǹ":{"ha":833,"x_min":128,"x_max":726,"o":"m 128 0 l 128 727 l 246 727 l 246 616 l 251 616 q 353 715 292 681 q 491 749 413 749 q 665 676 603 749 q 726 478 726 602 l 726 0 l 600 0 l 600 458 q 561 592 600 547 q 447 638 522 638 q 307 579 360 638 q 254 417 254 521 l 254 0 l 128 0 m 369 870 l 212 1113 l 212 1120 l 366 1120 l 488 878 l 488 870 l 369 870 z "},"ñ":{"ha":833,"x_min":128,"x_max":726,"o":"m 128 0 l 128 727 l 246 727 l 246 616 l 251 616 q 353 715 292 681 q 491 749 413 749 q 665 676 603 749 q 726 478 726 602 l 726 0 l 600 0 l 600 458 q 561 592 600 547 q 447 638 522 638 q 307 579 360 638 q 254 417 254 521 l 254 0 l 128 0 m 545 877 q 476 895 507 877 q 406 960 445 913 q 362 1005 378 994 q 328 1016 346 1016 q 283 945 283 1016 l 283 880 l 178 880 l 178 947 q 215 1075 178 1028 q 316 1122 251 1122 q 383 1104 353 1122 q 453 1037 413 1086 q 495 994 479 1005 q 530 983 512 983 q 574 1053 574 983 l 574 1119 l 680 1119 l 680 1052 q 644 923 680 969 q 545 877 609 877 z "},"ń":{"ha":833,"x_min":128,"x_max":726,"o":"m 128 0 l 128 727 l 246 727 l 246 616 l 251 616 q 353 715 292 681 q 491 749 413 749 q 665 676 603 749 q 726 478 726 602 l 726 0 l 600 0 l 600 458 q 561 592 600 547 q 447 638 522 638 q 307 579 360 638 q 254 417 254 521 l 254 0 l 128 0 m 369 870 l 369 878 l 492 1120 l 646 1120 l 646 1113 l 488 870 l 369 870 z "},"ṅ":{"ha":833,"x_min":128,"x_max":726,"o":"m 128 0 l 128 727 l 246 727 l 246 616 l 251 616 q 353 715 292 681 q 491 749 413 749 q 665 676 603 749 q 726 478 726 602 l 726 0 l 600 0 l 600 458 q 561 592 600 547 q 447 638 522 638 q 307 579 360 638 q 254 417 254 521 l 254 0 l 128 0 m 428 888 q 352 919 383 888 q 322 995 322 951 q 352 1071 322 1040 q 428 1101 383 1101 q 506 1071 475 1101 q 537 995 537 1040 q 506 919 537 951 q 428 888 475 888 z "}}}
